<svg viewBox="0 0 48 48" fill="none" xmlns="http://www.w3.org/2000/svg">
<rect width="48" height="48" rx="24" fill="#222222" fill-opacity="0.03"></rect>
<path d="M29.5938 22.9314C31.1961 22.9314 32.4959 21.6325 32.4959 20.0302C32.4959 18.4278 31.1961 17.1289 29.5938 17.1289" stroke="#222222" stroke-width="1.5" stroke-linecap="round" stroke-linejoin="round"></path>
<path d="M30.9297 26.085C31.4082 26.118 31.8839 26.1858 32.3524 26.2912C33.0032 26.4186 33.786 26.6854 34.0647 27.2693C34.2425 27.6433 34.2425 28.0787 34.0647 28.4536C33.7869 29.0375 33.0032 29.3034 32.3524 29.4372" stroke="#222222" stroke-width="1.5" stroke-linecap="round" stroke-linejoin="round"></path>
<path d="M18.2889 22.9314C16.6866 22.9314 15.3867 21.6325 15.3867 20.0302C15.3867 18.4278 16.6866 17.1289 18.2889 17.1289" stroke="#222222" stroke-width="1.5" stroke-linecap="round" stroke-linejoin="round"></path>
<path d="M16.9556 26.085C16.4771 26.118 16.0014 26.1858 15.533 26.2912C14.8821 26.4186 14.0993 26.6854 13.8216 27.2693C13.6428 27.6433 13.6428 28.0787 13.8216 28.4536C14.0984 29.0375 14.8821 29.3034 15.533 29.4372" stroke="#222222" stroke-width="1.5" stroke-linecap="round" stroke-linejoin="round"></path>
<path fill-rule="evenodd" clip-rule="evenodd" d="M23.9386 26.71C27.1855 26.71 29.9593 27.2013 29.9593 29.1675C29.9593 31.1329 27.2038 31.6425 23.9386 31.6425C20.6909 31.6425 17.918 31.1512 17.918 29.185C17.918 27.2187 20.6735 26.71 23.9386 26.71Z" stroke="#222222" stroke-width="1.5" stroke-linecap="round" stroke-linejoin="round"></path>
<path fill-rule="evenodd" clip-rule="evenodd" d="M23.9364 23.9049C21.795 23.9049 20.0781 22.188 20.0781 20.0457C20.0781 17.9044 21.795 16.1875 23.9364 16.1875C26.0777 16.1875 27.7946 17.9044 27.7946 20.0457C27.7946 22.188 26.0777 23.9049 23.9364 23.9049Z" stroke="#222222" stroke-width="1.5" stroke-linecap="round" stroke-linejoin="round"></path>
</svg>