<svg width="20" height="20" viewBox="0 0 52 52" fill="none" xmlns="http://www.w3.org/2000/svg"><path fill-rule="evenodd" clip-rule="evenodd" d="M37.4753 1.33398H14.4113C6.37132 1.33398 1.33398 7.02465 1.33398 15.078V36.8087C1.33398 44.862 6.34998 50.5527 14.4113 50.5527H37.4727C45.5367 50.5527 50.5527 44.862 50.5527 36.8087V15.078C50.5527 7.02465 45.5367 1.33398 37.4753 1.33398Z" fill="white" stroke="#222222" stroke-width="2" stroke-linecap="round" stroke-linejoin="round"></path><path fill-rule="evenodd" clip-rule="evenodd" d="M22.5419 17.4285C22.5419 20.1459 20.3366 22.3512 17.6192 22.3512C14.9046 22.3512 12.6992 20.1459 12.6992 17.4285C12.6992 14.7112 14.9046 12.5059 17.6192 12.5059C20.3366 12.5059 22.5419 14.7112 22.5419 17.4285Z" stroke="#222222" stroke-width="2" stroke-linecap="round" stroke-linejoin="round"></path><path d="M50.552 33.8671C47.9013 31.5605 45.5947 28.7845 42.5547 26.9525C39.5093 25.1205 36.2373 26.2511 34.1253 28.9845C32.0853 31.6271 30.8107 35.1818 27.7307 36.8485C23.936 38.9045 21.7067 35.5898 18.5413 34.2618C15.008 32.7818 12.3253 35.4431 10.2613 38.0005C8.19467 40.5605 6.10133 43.0938 4 45.6271" stroke="#222222" stroke-width="2" stroke-linecap="round" stroke-linejoin="round"></path></svg>