<svg class="yc-svg" width="155" height="40" viewBox="0 0 145 30" fill="none" xmlns="http://www.w3.org/2000/svg"> <rect width="30" height="30" fill="#F26625"></rect> <path d="M14 17L8.79999 7.29999H11.2L14.2 13.4C14.2 13.5 14.3 13.6 14.4 13.7C14.5 13.8 14.5 13.9 14.6 14.1L14.7 14.2V14.3C14.8 14.5 14.8 14.6 14.9 14.8C15 14.9 15 15.1 15.1 15.2C15.2 14.9 15.4 14.7 15.5 14.3C15.6 14 15.8 13.7 16 13.4L19 7.29999H21.2L16 17.1V23.3H14V17Z" fill="white"></path> <path d="M43.7 5.79999C45.2 5.79999 46.5 6.19999 47.5 6.99999L46.5 8.19999C45.6 7.59999 44.7 7.19999 43.6 7.19999C41.9 7.19999 40.6 8.09999 39.9 9.79999C39.5 10.8 39.3 12.1 39.3 13.8C39.3 15.1 39.5 16.2 39.8 17C40.6 18.9 41.9 19.8 43.9 19.8C45 19.8 46 19.5 46.9 18.8L47.9 20.1C46.6 20.9 45.2 21.3 43.7 21.3C41.9 21.3 40.4 20.6 39.2 19.1C38 17.7 37.5 15.8 37.5 13.5C37.5 11.2 38.1 9.39999 39.3 7.89999C40.4 6.59999 41.9 5.79999 43.7 5.79999Z" fill="#F26625"></path> <path fill-rule="evenodd" clip-rule="evenodd" d="M50.7 11.5C49.8 12.5 49.4 13.9 49.4 15.7C49.4 17.5 49.8 19 50.7 20C51.6 21.1 52.7 21.6 54.2 21.6C55.4 21.6 56.4 21.2 57.2 20.5C58.3 19.5 58.9 17.9 58.9 15.9C58.9 14.2 58.6 12.8 57.9 11.8C57 10.5 55.7 9.90002 54.1 9.90002C52.7 9.90002 51.6 10.5 50.7 11.5ZM54.1 11.4C55.2 11.4 55.9 11.9 56.4 12.8C56.8 13.5 57 14.6 56.9 16.1C56.9 17.1 56.8 17.9 56.6 18.5C56.2 19.6 55.4 20.2 54.2 20.2C53.2 20.2 52.5 19.8 52 19.1C51.5 18.4 51.3 17.2 51.3 15.5C51.3 14.2 51.4 13.2 51.8 12.6C52.3 11.8 53 11.4 54.1 11.4Z" fill="#F26625"></path> <path d="M62.1 13C62.1 11.9 62 11 61.7 10.3L63.4 9.90002C63.7 10.4 63.8 11 63.8 11.5V11.6C64.2 11.2 64.6 10.8 65.2 10.5C65.9 10.1 66.5 9.90002 67.1 9.90002C68 9.90002 68.8 10.3 69.3 11C69.4 11.2 69.6 11.5 69.7 11.7C70.9 10.5 72 9.90002 73.2 9.90002C74 9.90002 74.7 10.2 75.2 10.7C75.7 11.3 76 12 76 12.8V21.1H74.2V12.9C74.2 11.8 73.7 11.3 72.8 11.3C72.3 11.3 71.7 11.5 71.2 11.9C71 12.1 70.6 12.4 70.1 12.8L69.9 13V21.1H68V13.3C68 12.6 67.9 12.1 67.7 11.9C67.4 11.6 67.1 11.5 66.6 11.5C65.8 11.5 64.9 12 63.8 13V21.2H62.1V13Z" fill="#F26625"></path> <path fill-rule="evenodd" clip-rule="evenodd" d="M80.9 5L79.1 5.4C79.4 5.9 79.5 6.8 79.6 8V18.5C79.6 19.9 79.5 20.8 79.3 21.3H81C81.1 21 81.2 20.6 81.3 20.1C81.6 20.5 82 20.8 82.6 21.1C83.2 21.4 83.7 21.5 84.3 21.5C85.6 21.5 86.7 21 87.5 19.9C88.3 18.8 88.7 17.4 88.7 15.6C88.7 13.9 88.3 12.5 87.5 11.5C86.8 10.5 85.7 10 84.4 10C83.3 10 82.2 10.5 81.2 11.5V10.3V7.8C81.2 6.7 81.1 5.8 80.9 5ZM81.2 13C81.4 12.7 81.7 12.4 82 12.2C82.6 11.7 83.3 11.5 83.9 11.6C84.9 11.6 85.6 11.9 86 12.5C86.5 13.1 86.7 14.1 86.7 15.5C86.7 17.1 86.4 18.2 85.9 19C85.5 19.7 84.8 20 83.9 20C82.8 20 81.9 19.6 81.2 18.7V13Z" fill="#F26625"></path> <path fill-rule="evenodd" clip-rule="evenodd" d="M91.7 5.80002C91.4 6.10002 91.3 6.40002 91.3 6.80002C91.3 7.20002 91.4 7.50002 91.7 7.80002C92 8.10002 92.3 8.20002 92.7 8.20002C93.1 8.20002 93.4 8.10002 93.7 7.80002C94 7.50002 94.1 7.20002 94.1 6.80002C94.1 6.40002 94 6.10002 93.7 5.80002C93.4 5.50002 93.1 5.40002 92.7 5.40002C92.3 5.40002 92 5.50002 91.7 5.80002ZM91.7 10.2V21.2H93.5V9.90002L91.7 10.2Z" fill="#F26625"></path> <path d="M97.4 13C97.4 12.2 97.4 11.7 97.3 11.5C97.3 11.2 97.1 10.9 96.9 10.4L98.6 9.90002C98.9 10.5 99 11 99 11.6C100.1 10.5 101.3 9.90002 102.5 9.90002C103.1 9.90002 103.6 10 104.1 10.3C104.6 10.6 105 11 105.2 11.5C105.4 11.9 105.5 12.3 105.5 12.8V21.2H103.8V13.7C103.8 12.8 103.7 12.2 103.4 11.9C103.1 11.6 102.7 11.4 102.2 11.4C101.8 11.4 101.2 11.6 100.6 11.9C100 12.2 99.5 12.6 99.1 13V21.2H97.4V13Z" fill="#F26625"></path> <path fill-rule="evenodd" clip-rule="evenodd" d="M108.6 11.4L109.5 12.6C109.849 12.3909 110.149 12.1817 110.4 12.0064C110.509 11.9303 110.609 11.8606 110.7 11.8C111.5 11.5 112.2 11.3 112.8 11.3C113.5 11.3 113.9 11.5 114.3 11.9C114.6 12.1 114.7 12.7 114.7 13.6V14.4H113.9C112.1 14.4 110.6 14.7 109.6 15.4C108.6 16.1 108.1 17 108.1 18.3C108.1 19.3 108.4 20.1 109 20.6C109.7 21.2 110.6 21.5 111.7 21.5C112.8 21.5 113.9 21 114.9 20C115.1 20.8 115.6 21.3 116.4 21.6L117.3 20.4C116.9 20.2 116.6 19.9 116.5 19.5C116.4 19.2 116.4 18.8 116.4 18.2V18.2V17.7L116.5 14.1V13.5C116.5 12.6 116.5 12 116.3 11.6C115.8 10.5 114.8 9.90002 113.2 9.90002C111.6 9.90002 110.1 10.4 108.6 11.4ZM114.9 15.6L114.8 18.5C114.2 19.6 113.3 20.2 112.1 20.3C110.8 20.3 110.2 19.6 110.2 18.3C110.2 17.5 110.4 16.9 110.8 16.5C111.4 15.9 112.4 15.6 114 15.6H114.9Z" fill="#F26625"></path> <path d="M122.2 10.2H125L124.5 11.6H122.2V18.7C122.2 19.3 122.3 19.7 122.5 20C122.7 20.2 123.1 20.4 123.6 20.4C124 20.4 124.4 20.3 124.7 20.2L124.9 21.3C124.3 21.6 123.7 21.7 123 21.7C121.3 21.7 120.5 20.9 120.5 19.2V11.6H119V10.2H120.4V10C120.4 9.8 120.5 9 120.6 7.7V7.4L122.4 7C122.2 8.2 122.2 9.3 122.2 10.2Z" fill="#F26625"></path> <path fill-rule="evenodd" clip-rule="evenodd" d="M128.1 11.5C127.2 12.5 126.8 13.9 126.8 15.7C126.8 17.5 127.3 19 128.1 20C129 21.1 130.1 21.6 131.6 21.6C132.8 21.6 133.8 21.2 134.6 20.5C135.7 19.5 136.3 17.9 136.3 15.9C136.3 14.2 136 12.8 135.3 11.8C134.4 10.5 133.1 9.90002 131.5 9.90002C130.1 9.90002 128.9 10.5 128.1 11.5ZM131.6 11.4C132.7 11.4 133.4 11.9 133.9 12.8C134.2 13.5 134.4 14.6 134.4 16.1C134.4 17.1 134.3 17.9 134.1 18.5C133.7 19.6 132.9 20.2 131.7 20.2C130.7 20.2 130 19.8 129.5 19.1C129 18.4 128.8 17.2 128.8 15.5C128.8 14.2 128.9 13.2 129.3 12.6C129.8 11.8 130.5 11.4 131.6 11.4Z" fill="#F26625"></path> <path d="M139.6 12.8C139.6 11.8 139.5 11 139.2 10.4L140.9 9.90002C141.2 10.5 141.3 11 141.3 11.6V11.8C142.2 10.6 143.2 10 144.4 10C144.6 10 144.8 10 145 10.1L144.3 12C144.1 11.9 143.9 11.9 143.8 11.9C143.4 11.9 142.9 12 142.5 12.3C142.1 12.6 141.7 12.9 141.5 13.3C141.4 13.6 141.3 14 141.3 14.5V21.4H139.6V12.8Z" fill="#F26625"></path> </svg>