<svg class="xs-wid" width="123" height="26" viewBox="0 0 123 26" fill="none" xmlns="http://www.w3.org/2000/svg"><rect x="0.501953" width="25.3431" height="25.3431" fill="#222222" fill-opacity="0.5"></rect><path d="M12.3281 14.3612L7.9353 6.16693H9.96275L12.4971 11.32C12.4971 11.4045 12.5815 11.489 12.666 11.5735C12.7505 11.6579 12.7505 11.7424 12.835 11.9114L12.9195 11.9959V12.0803C13.0039 12.2493 13.0039 12.3338 13.0884 12.5027C13.1729 12.5872 13.1729 12.7561 13.2574 12.8406C13.3418 12.5872 13.5108 12.4182 13.5953 12.0803C13.6797 11.8269 13.8487 11.5735 14.0177 11.32L16.552 6.16693H18.4105L14.0177 14.4457V19.6833H12.3281V14.3612Z" fill="white"></path><path d="M37.4173 4.89972C38.6844 4.89972 39.7826 5.23763 40.6274 5.91344L39.7826 6.92717C39.0223 6.42031 38.262 6.0824 37.3328 6.0824C35.8967 6.0824 34.7985 6.84269 34.2071 8.27881C33.8692 9.12358 33.7003 10.2218 33.7003 11.6579C33.7003 12.7561 33.8692 13.6853 34.1227 14.3612C34.7985 15.9662 35.8967 16.7265 37.5862 16.7265C38.5155 16.7265 39.3602 16.4731 40.1205 15.8817L40.9653 16.98C39.8671 17.6558 38.6844 17.9937 37.4173 17.9937C35.8967 17.9937 34.6295 17.4023 33.6158 16.1352C32.6021 14.9525 32.1797 13.3474 32.1797 11.4045C32.1797 9.46148 32.6866 7.9409 33.7003 6.67374C34.6295 5.57554 35.8967 4.89972 37.4173 4.89972Z" fill="#222222" fill-opacity="0.5"></path><path fill-rule="evenodd" clip-rule="evenodd" d="M43.3314 9.71492C42.5711 10.5597 42.2332 11.7424 42.2332 13.263C42.2332 14.7835 42.5711 16.0507 43.3314 16.8955C44.0917 17.8247 45.0209 18.2471 46.2881 18.2471C47.3018 18.2471 48.1466 17.9092 48.8224 17.3179C49.7516 16.4731 50.2585 15.1215 50.2585 13.4319C50.2585 11.9958 50.0051 10.8131 49.4137 9.96835C48.6534 8.87014 47.5552 8.36328 46.2036 8.36328C45.0209 8.36328 44.0917 8.87014 43.3314 9.71492ZM46.2034 9.63052C47.1327 9.63052 47.724 10.0529 48.1464 10.8132C48.4843 11.4045 48.6532 12.3338 48.5688 13.6009C48.5688 14.4457 48.4843 15.1215 48.3153 15.6284C47.9774 16.5576 47.3016 17.0645 46.2879 17.0645C45.4431 17.0645 44.8518 16.7266 44.4294 16.1353C44.007 15.5439 43.838 14.5302 43.838 13.0941C43.838 11.9959 43.9225 11.1511 44.2604 10.6442C44.6828 9.96843 45.2742 9.63052 46.2034 9.63052Z" fill="#222222" fill-opacity="0.5"></path><path d="M52.9612 10.9821C52.9612 10.0528 52.8767 9.29253 52.6233 8.70119L54.0594 8.36328C54.3128 8.78567 54.3973 9.29253 54.3973 9.71492V9.79939C54.7352 9.46148 55.0731 9.12358 55.58 8.87014C56.1713 8.53224 56.6782 8.36328 57.1851 8.36328C57.9454 8.36328 58.6212 8.70119 59.0436 9.29253C59.128 9.46148 59.297 9.71492 59.3815 9.88387C60.3952 8.87014 61.3244 8.36328 62.3382 8.36328C63.014 8.36328 63.6053 8.61671 64.0277 9.0391C64.4501 9.54596 64.7035 10.1373 64.7035 10.8131V17.8247H63.1829V10.8976C63.1829 9.96835 62.7605 9.54596 62.0003 9.54596C61.5779 9.54596 61.071 9.71492 60.6486 10.0528C60.4797 10.2218 60.1418 10.4752 59.7194 10.8131L59.5504 10.9821V17.8247H57.9454V11.2355C57.9454 10.6442 57.8609 10.2218 57.6919 10.0528C57.4385 9.79939 57.1851 9.71492 56.7627 9.71492C56.0869 9.71492 55.3266 10.1373 54.3973 10.9821V17.9092H52.9612V10.9821Z" fill="#222222" fill-opacity="0.5"></path><path fill-rule="evenodd" clip-rule="evenodd" d="M68.8431 4.22375L67.3225 4.56166C67.5759 4.98405 67.6604 5.74434 67.7449 6.75807V15.6282C67.7449 16.8108 67.6604 17.5711 67.4915 17.9935H68.9276C69.0121 17.7401 69.0965 17.4022 69.181 16.9798C69.4344 17.3177 69.7723 17.5711 70.2792 17.8246C70.7861 18.078 71.2085 18.1625 71.7153 18.1625C72.8135 18.1625 73.7428 17.7401 74.4186 16.8108C75.0944 15.8816 75.4323 14.6989 75.4323 13.1783C75.4323 11.7422 75.0944 10.5595 74.4186 9.71477C73.8272 8.87 72.898 8.44761 71.7998 8.44761C70.8705 8.44761 69.9413 8.87 69.0965 9.71477V8.70104V6.58911C69.0965 5.65987 69.0121 4.89957 68.8431 4.22375ZM69.0968 10.982C69.2658 10.7286 69.5192 10.4752 69.7726 10.3062C70.2795 9.88385 70.8708 9.71489 71.3777 9.79937C72.2225 9.79937 72.8138 10.0528 73.1517 10.5597C73.5741 11.0665 73.7431 11.9113 73.7431 13.094C73.7431 14.4456 73.4896 15.3749 73.0672 16.0507C72.7293 16.642 72.138 16.8954 71.3777 16.8954C70.4485 16.8954 69.6882 16.5575 69.0968 15.7972V10.982Z" fill="#222222" fill-opacity="0.5"></path><path fill-rule="evenodd" clip-rule="evenodd" d="M77.9658 4.89955C77.7124 5.15299 77.6279 5.40642 77.6279 5.74433C77.6279 6.08223 77.7124 6.33567 77.9658 6.5891C78.2193 6.84253 78.4727 6.92701 78.8106 6.92701C79.1485 6.92701 79.4019 6.84253 79.6554 6.5891C79.9088 6.33567 79.9933 6.08223 79.9933 5.74433C79.9933 5.40642 79.9088 5.15299 79.6554 4.89955C79.4019 4.64612 79.1485 4.56165 78.8106 4.56165C78.4727 4.56165 78.2193 4.64612 77.9658 4.89955ZM77.9656 8.61656V17.909H79.4862V8.36313L77.9656 8.61656Z" fill="#222222" fill-opacity="0.5"></path><path d="M82.7818 10.9821C82.7818 10.3063 82.7818 9.88387 82.6973 9.71492C82.6973 9.46148 82.5283 9.20805 82.3594 8.78567L83.7955 8.36328C84.0489 8.87014 84.1334 9.29253 84.1334 9.79939C85.0626 8.87014 86.0764 8.36328 87.0901 8.36328C87.597 8.36328 88.0193 8.44776 88.4417 8.70119C88.8641 8.95462 89.202 9.29253 89.371 9.71492C89.5399 10.0528 89.6244 10.3907 89.6244 10.8131V17.9092H88.1883V11.5734C88.1883 10.8131 88.1038 10.3063 87.8504 10.0528C87.597 9.79939 87.259 9.63044 86.8367 9.63044C86.4988 9.63044 85.9919 9.79939 85.485 10.0528C84.9782 10.3063 84.5558 10.6442 84.2179 10.9821V17.9092H82.7818V10.9821Z" fill="#222222" fill-opacity="0.5"></path><path fill-rule="evenodd" clip-rule="evenodd" d="M92.2422 9.63044L93.0025 10.6442C93.297 10.4675 93.5504 10.2908 93.7628 10.1427C93.855 10.0784 93.9395 10.0195 94.0162 9.96835C94.692 9.71492 95.2834 9.54596 95.7902 9.54596C96.3816 9.54596 96.7195 9.71492 97.0574 10.0528C97.3108 10.2218 97.3953 10.7286 97.3953 11.4889V12.1648H96.7195C95.1989 12.1648 93.9318 12.4182 93.087 13.0095C92.2422 13.6009 91.8198 14.3612 91.8198 15.4594C91.8198 16.3041 92.0733 16.9799 92.5801 17.4023C93.1715 17.9092 93.9318 18.1626 94.861 18.1626C95.7902 18.1626 96.7195 17.7402 97.5643 16.8955C97.7332 17.5713 98.1556 17.9937 98.8314 18.2471L99.5917 17.2334C99.2538 17.0644 99.0004 16.811 98.9159 16.4731C98.8314 16.2197 98.8314 15.8818 98.8314 15.3749V15.3749V14.9525L98.9159 11.9113V11.4045C98.9159 10.6442 98.9159 10.1373 98.7469 9.79939C98.3246 8.87014 97.4798 8.36328 96.1282 8.36328C94.7765 8.36328 93.5094 8.78567 92.2422 9.63044ZM97.5638 13.1785L97.4793 15.6283C96.9724 16.5576 96.2121 17.0644 95.1984 17.1489C94.1002 17.1489 93.5933 16.5576 93.5933 15.4594C93.5933 14.7836 93.7623 14.2767 94.1002 13.9388C94.6071 13.4319 95.4518 13.1785 96.8035 13.1785H97.5638Z" fill="#222222" fill-opacity="0.5"></path><path d="M103.733 8.6166H106.098L105.676 9.79928H103.733V15.7972C103.733 16.304 103.817 16.6419 103.986 16.8954C104.155 17.0643 104.493 17.2333 104.915 17.2333C105.253 17.2333 105.591 17.1488 105.844 17.0643L106.013 17.9936C105.507 18.247 105 18.3315 104.408 18.3315C102.972 18.3315 102.296 17.6557 102.296 16.2195V9.79928H101.029V8.6166H102.212V8.44764C102.212 8.27869 102.296 7.60287 102.381 6.50467V6.25124L103.902 5.91333C103.733 6.92706 103.733 7.8563 103.733 8.6166Z" fill="#222222" fill-opacity="0.5"></path><path fill-rule="evenodd" clip-rule="evenodd" d="M108.716 9.71492C107.956 10.5597 107.618 11.7424 107.618 13.263C107.618 14.7835 108.04 16.0507 108.716 16.8955C109.476 17.8247 110.405 18.2471 111.673 18.2471C112.686 18.2471 113.531 17.9092 114.207 17.3179C115.136 16.4731 115.643 15.1215 115.643 13.4319C115.643 11.9958 115.39 10.8131 114.798 9.96835C114.038 8.87014 112.94 8.36328 111.588 8.36328C110.405 8.36328 109.392 8.87014 108.716 9.71492ZM111.673 9.63052C112.602 9.63052 113.193 10.0529 113.616 10.8132C113.869 11.4045 114.038 12.3338 114.038 13.6009C114.038 14.4457 113.954 15.1215 113.785 15.6284C113.447 16.5576 112.771 17.0645 111.757 17.0645C110.912 17.0645 110.321 16.7266 109.899 16.1353C109.476 15.5439 109.307 14.5302 109.307 13.0941C109.307 11.9959 109.392 11.1511 109.73 10.6442C110.152 9.96843 110.743 9.63052 111.673 9.63052Z" fill="#222222" fill-opacity="0.5"></path><path d="M118.431 10.8131C118.431 9.96835 118.346 9.29253 118.093 8.78567L119.529 8.36328C119.782 8.87014 119.867 9.29253 119.867 9.79939V9.96835C120.627 8.95462 121.472 8.44776 122.486 8.44776C122.655 8.44776 122.823 8.44776 122.992 8.53224L122.401 10.1373C122.232 10.0528 122.063 10.0528 121.979 10.0528C121.641 10.0528 121.218 10.1373 120.881 10.3907C120.543 10.6442 120.205 10.8976 120.036 11.2355C119.951 11.4889 119.867 11.8268 119.867 12.2492V18.0782H118.431V10.8131Z" fill="#222222" fill-opacity="0.5"></path></svg>