<svg viewBox="0 0 34 35" fill="none" xmlns="http://www.w3.org/2000/svg"><path d="M8.21484 29.3405H19.5511" stroke="#FFDD00" stroke-width="1.5" stroke-linecap="round" stroke-linejoin="round"></path><path d="M8.21484 24.1881H14.7868" stroke="#222222" stroke-width="1.5" stroke-linecap="round" stroke-linejoin="round"></path><path fill-rule="evenodd" clip-rule="evenodd" d="M27.6451 14.0944C28.4046 13.1267 29.632 13.1772 30.6008 13.9367L32.0332 15.06C33.002 15.8195 33.3452 16.9975 32.5856 17.9672L24.0433 28.8655C23.7578 29.2303 23.3219 29.4457 22.8581 29.4509L19.5634 29.4931L18.8172 26.2829C18.7121 25.8325 18.8172 25.3585 19.1027 24.9926L27.6451 14.0944Z" stroke="#FFDD00" stroke-width="1.5" stroke-linecap="round" stroke-linejoin="round"></path><path d="M26.0449 16.1348L30.9855 20.0076" stroke="#FFDD00" stroke-width="1.5" stroke-linecap="round" stroke-linejoin="round"></path><path d="M29.8559 9.24454V5C29.8559 2.79086 28.065 1 25.8559 1H5C2.79086 1 1 2.79086 1 5V29.9782C1 32.1873 2.79086 33.9782 5 33.9782H25.8559C28.065 33.9782 29.8559 32.1873 29.8559 29.9782V25.7336" stroke="#222222" stroke-width="1.5" stroke-linecap="round"></path><circle cx="14.9156" cy="9.07773" r="2.92538" stroke="#222222" stroke-width="1.5" stroke-linecap="round" stroke-linejoin="round"></circle><path fill-rule="evenodd" clip-rule="evenodd" d="M10.2754 16.7919C10.2746 16.5862 10.3206 16.3831 10.4099 16.1978C10.6901 15.6374 11.4803 15.3404 12.136 15.2059C12.6089 15.105 13.0883 15.0376 13.5707 15.0041C14.4637 14.9257 15.362 14.9257 16.2551 15.0041C16.7374 15.038 17.2168 15.1054 17.6897 15.2059C18.3454 15.3404 19.1356 15.6094 19.4158 16.1978C19.5954 16.5755 19.5954 17.0139 19.4158 17.3915C19.1356 17.98 18.3454 18.249 17.6897 18.3779C17.2174 18.483 16.7378 18.5523 16.2551 18.5852C15.5282 18.6468 14.7979 18.6581 14.0694 18.6188C13.9013 18.6188 13.7388 18.6188 13.5707 18.5852C13.0897 18.5527 12.612 18.4834 12.1416 18.3779C11.4803 18.249 10.6957 17.98 10.4099 17.3915C10.3211 17.2041 10.2751 16.9993 10.2754 16.7919Z" stroke="#222222" stroke-width="1.5" stroke-linecap="round" stroke-linejoin="round"></path></svg>