<svg xmlns="http://www.w3.org/2000/svg" viewBox="0 0 250 250" width="250" height="250" style="width: 100%; height: 100%; transform: translate3d(0px, 0px, 0px);" preserveAspectRatio="xMidYMid meet"><defs><clipPath id="__lottie_element_44"><rect width="250" height="250" x="0" y="0"></rect></clipPath><clipPath id="__lottie_element_55"><path d="M0,0 L250,0 L250,250 L0,250z"></path></clipPath><clipPath id="__lottie_element_62"><path d="M0,0 L250,0 L250,250 L0,250z"></path></clipPath></defs><g clip-path="url(#__lottie_element_44)"><g style="display: block;" transform="matrix(1.0000001192092896,0,0,1.0000001192092896,-0.0000152587890625,-70.00001525878906)" opacity="5.301100304677675e-7"><g opacity="1" transform="matrix(1,0,0,1,105.86499786376953,87.64399719238281)"><path fill="rgb(255,221,0)" fill-opacity="1" d=" M-0.07599999755620956,13.87399959564209 C-0.22699999809265137,13.87399959564209 -0.6809999942779541,13.717000007629395 -0.6809999942779541,13.717000007629395 C-4.013000011444092,11.993000030517578 -11.885000228881836,7.133999824523926 -14.609999656677246,-0.5479999780654907 C-15.064000129699707,-1.9589999914169312 -16.124000549316406,-7.760000228881836 -12.793000221252441,-11.364999771118164 C-10.826000213623047,-13.5600004196167 -9.008999824523926,-13.87399959564209 -7.796999931335449,-13.87399959564209 C-4.921000003814697,-13.87399959564209 -1.8930000066757202,-12.14900016784668 -0.07599999755620956,-9.640999794006348 C1.7400000095367432,-12.305999755859375 4.466000080108643,-13.87399959564209 7.644999980926514,-13.87399959564209 C8.857000350952148,-13.87399959564209 10.67300033569336,-13.5600004196167 12.793000221252441,-11.364999771118164 C16.124000549316406,-7.760000228881836 15.064000129699707,-1.8020000457763672 14.609999656677246,-0.5479999780654907 C11.883999824523926,7.290999889373779 3.859999895095825,11.993000030517578 0.6809999942779541,13.717000007629395 C0.3779999911785126,13.87399959564209 0.07500000298023224,13.87399959564209 -0.07599999755620956,13.87399959564209z"></path></g></g><g clip-path="url(#__lottie_element_62)" style="display: block;" transform="matrix(0.800000011920929,0,0,0.800000011920929,-11,21)" opacity="1"><g style="display: block;" transform="matrix(1.0000001192092896,0,0,1.0000001192092896,-0.0000152587890625,-70.00001525878906)" opacity="4.808319012283846e-7"><g opacity="1" transform="matrix(1,0,0,1,105.86499786376953,87.64399719238281)"><path fill="rgb(255,221,0)" fill-opacity="1" d=" M-0.07599999755620956,13.87399959564209 C-0.22699999809265137,13.87399959564209 -0.6809999942779541,13.717000007629395 -0.6809999942779541,13.717000007629395 C-4.013000011444092,11.993000030517578 -11.885000228881836,7.133999824523926 -14.609999656677246,-0.5479999780654907 C-15.064000129699707,-1.9589999914169312 -16.124000549316406,-7.760000228881836 -12.793000221252441,-11.364999771118164 C-10.826000213623047,-13.5600004196167 -9.008999824523926,-13.87399959564209 -7.796999931335449,-13.87399959564209 C-4.921000003814697,-13.87399959564209 -1.8930000066757202,-12.14900016784668 -0.07599999755620956,-9.640999794006348 C1.7400000095367432,-12.305999755859375 4.466000080108643,-13.87399959564209 7.644999980926514,-13.87399959564209 C8.857000350952148,-13.87399959564209 10.67300033569336,-13.5600004196167 12.793000221252441,-11.364999771118164 C16.124000549316406,-7.760000228881836 15.064000129699707,-1.8020000457763672 14.609999656677246,-0.5479999780654907 C11.883999824523926,7.290999889373779 3.859999895095825,11.993000030517578 0.6809999942779541,13.717000007629395 C0.3779999911785126,13.87399959564209 0.07500000298023224,13.87399959564209 -0.07599999755620956,13.87399959564209z"></path></g></g></g><g clip-path="url(#__lottie_element_55)" style="display: block;" transform="matrix(1,0,0,1,27,0)" opacity="1"><g style="display: block;" transform="matrix(1.0000001192092896,0,0,1.0000001192092896,-0.0000152587890625,-70.00001525878906)" opacity="8.762335100698238e-7"><g opacity="1" transform="matrix(1,0,0,1,105.86499786376953,87.64399719238281)"><path fill="rgb(255,221,0)" fill-opacity="1" d=" M-0.07599999755620956,13.87399959564209 C-0.22699999809265137,13.87399959564209 -0.6809999942779541,13.717000007629395 -0.6809999942779541,13.717000007629395 C-4.013000011444092,11.993000030517578 -11.885000228881836,7.133999824523926 -14.609999656677246,-0.5479999780654907 C-15.064000129699707,-1.9589999914169312 -16.124000549316406,-7.760000228881836 -12.793000221252441,-11.364999771118164 C-10.826000213623047,-13.5600004196167 -9.008999824523926,-13.87399959564209 -7.796999931335449,-13.87399959564209 C-4.921000003814697,-13.87399959564209 -1.8930000066757202,-12.14900016784668 -0.07599999755620956,-9.640999794006348 C1.7400000095367432,-12.305999755859375 4.466000080108643,-13.87399959564209 7.644999980926514,-13.87399959564209 C8.857000350952148,-13.87399959564209 10.67300033569336,-13.5600004196167 12.793000221252441,-11.364999771118164 C16.124000549316406,-7.760000228881836 15.064000129699707,-1.8020000457763672 14.609999656677246,-0.5479999780654907 C11.883999824523926,7.290999889373779 3.859999895095825,11.993000030517578 0.6809999942779541,13.717000007629395 C0.3779999911785126,13.87399959564209 0.07500000298023224,13.87399959564209 -0.07599999755620956,13.87399959564209z"></path></g></g></g><g style="display: block;" transform="matrix(1.000000238418579,0,0,1.000000238418579,-0.000030517578125,-70.0000228881836)" opacity="0.0000010108265119868066"><g opacity="1" transform="matrix(1,0,0,1,105.86499786376953,87.64399719238281)"><path fill="rgb(255,221,0)" fill-opacity="1" d=" M-0.07599999755620956,13.87399959564209 C-0.22699999809265137,13.87399959564209 -0.6809999942779541,13.717000007629395 -0.6809999942779541,13.717000007629395 C-4.013000011444092,11.993000030517578 -11.885000228881836,7.133999824523926 -14.609999656677246,-0.5479999780654907 C-15.064000129699707,-1.9589999914169312 -16.124000549316406,-7.760000228881836 -12.793000221252441,-11.364999771118164 C-10.826000213623047,-13.5600004196167 -9.008999824523926,-13.87399959564209 -7.796999931335449,-13.87399959564209 C-4.921000003814697,-13.87399959564209 -1.8930000066757202,-12.14900016784668 -0.07599999755620956,-9.640999794006348 C1.7400000095367432,-12.305999755859375 4.466000080108643,-13.87399959564209 7.644999980926514,-13.87399959564209 C8.857000350952148,-13.87399959564209 10.67300033569336,-13.5600004196167 12.793000221252441,-11.364999771118164 C16.124000549316406,-7.760000228881836 15.064000129699707,-1.8020000457763672 14.609999656677246,-0.5479999780654907 C11.883999824523926,7.290999889373779 3.859999895095825,11.993000030517578 0.6809999942779541,13.717000007629395 C0.3779999911785126,13.87399959564209 0.07500000298023224,13.87399959564209 -0.07599999755620956,13.87399959564209z"></path></g></g><g style="display: block;" transform="matrix(1.000000238418579,0,0,1.000000238418579,-0.000030517578125,-69.62469482421875)" opacity="0.06081830902000235"><g opacity="1" transform="matrix(1,0,0,1,105.86499786376953,87.64399719238281)"><path fill="rgb(255,221,0)" fill-opacity="1" d=" M-0.07599999755620956,13.87399959564209 C-0.22699999809265137,13.87399959564209 -0.6809999942779541,13.717000007629395 -0.6809999942779541,13.717000007629395 C-4.013000011444092,11.993000030517578 -11.885000228881836,7.133999824523926 -14.609999656677246,-0.5479999780654907 C-15.064000129699707,-1.9589999914169312 -16.124000549316406,-7.760000228881836 -12.793000221252441,-11.364999771118164 C-10.826000213623047,-13.5600004196167 -9.008999824523926,-13.87399959564209 -7.796999931335449,-13.87399959564209 C-4.921000003814697,-13.87399959564209 -1.8930000066757202,-12.14900016784668 -0.07599999755620956,-9.640999794006348 C1.7400000095367432,-12.305999755859375 4.466000080108643,-13.87399959564209 7.644999980926514,-13.87399959564209 C8.857000350952148,-13.87399959564209 10.67300033569336,-13.5600004196167 12.793000221252441,-11.364999771118164 C16.124000549316406,-7.760000228881836 15.064000129699707,-1.8020000457763672 14.609999656677246,-0.5479999780654907 C11.883999824523926,7.290999889373779 3.859999895095825,11.993000030517578 0.6809999942779541,13.717000007629395 C0.3779999911785126,13.87399959564209 0.07500000298023224,13.87399959564209 -0.07599999755620956,13.87399959564209z"></path></g></g><g style="display: block;" transform="matrix(1,0,0,1,0,0)" opacity="1"><g opacity="1" transform="matrix(1,0,0,1,161,128.72999572753906)"><path fill="rgb(255,255,255)" fill-opacity="1" d=" M0,19.5 C0,19.5 -19.5,19.5 -19.5,19.5 C-19.5,19.5 -19.5,-19.5 -19.5,-19.5 C-19.5,-19.5 0,-19.5 0,-19.5 C10.770000457763672,-19.5 19.5,-10.769000053405762 19.5,0 C19.5,10.770000457763672 10.770000457763672,19.5 0,19.5z"></path><path stroke-linecap="round" stroke-linejoin="round" fill-opacity="0" stroke="rgb(0,0,0)" stroke-opacity="1" stroke-width="3" d=" M0,19.5 C0,19.5 -19.5,19.5 -19.5,19.5 C-19.5,19.5 -19.5,-19.5 -19.5,-19.5 C-19.5,-19.5 0,-19.5 0,-19.5 C10.770000457763672,-19.5 19.5,-10.769000053405762 19.5,0 C19.5,10.770000457763672 10.770000457763672,19.5 0,19.5z"></path></g><g opacity="1" transform="matrix(1,0,0,1,108.5,137.22999572753906)"><path fill="rgb(255,255,255)" fill-opacity="1" d=" M0,39 C0,39 0,39 0,39 C-21.538999557495117,39 -39,21.538999557495117 -39,0 C-39,0 -39,-39 -39,-39 C-39,-39 39,-39 39,-39 C39,-39 39,0 39,0 C39,21.538999557495117 21.538999557495117,39 0,39z"></path><path stroke-linecap="round" stroke-linejoin="round" fill-opacity="0" stroke="rgb(0,0,0)" stroke-opacity="1" stroke-width="3" d=" M0,39 C0,39 0,39 0,39 C-21.538999557495117,39 -39,21.538999557495117 -39,0 C-39,0 -39,-39 -39,-39 C-39,-39 39,-39 39,-39 C39,-39 39,0 39,0 C39,21.538999557495117 21.538999557495117,39 0,39z"></path></g></g></g></svg>