<svg width="68" height="68" viewBox="0 0 68 68" fill="none" xmlns="http://www.w3.org/2000/svg"><path d="M0 8C0 3.58172 3.58172 0 8 0H60C64.4183 0 68 3.58172 68 8V60C68 64.4183 64.4183 68 60 68H8C3.58172 68 0 64.4183 0 60V8Z" fill="#7289DA"></path><rect x="13.416" y="11.4604" width="41.4375" height="39.3125" fill="white"></rect><path d="M29.183 29.2103C27.568 29.2103 26.293 30.627 26.293 32.3553C26.293 34.0837 27.5963 35.5003 29.183 35.5003C30.798 35.5003 32.073 34.0837 32.073 32.3553C32.1013 30.627 30.798 29.2103 29.183 29.2103ZM39.5246 29.2103C37.9096 29.2103 36.6346 30.627 36.6346 32.3553C36.6346 34.0837 37.938 35.5003 39.5246 35.5003C41.1396 35.5003 42.4146 34.0837 42.4146 32.3553C42.4146 30.627 41.1396 29.2103 39.5246 29.2103Z" fill="#7289DA"></path><path d="M53.2945 5.43994H15.3279C12.1262 5.43994 9.51953 8.04661 9.51953 11.2766V49.5833C9.51953 52.8133 12.1262 55.4199 15.3279 55.4199H47.4579L45.9562 50.1783L49.5829 53.5499L53.0112 56.7233L59.1029 62.1066V11.2766C59.1029 8.04661 56.4962 5.43994 53.2945 5.43994ZM42.3579 42.4433C42.3579 42.4433 41.3379 41.2249 40.4879 40.1483C44.1995 39.0999 45.6162 36.7766 45.6162 36.7766C44.4545 37.5416 43.3495 38.0799 42.3579 38.4483C40.9412 39.0433 39.5812 39.4399 38.2495 39.6666C35.5295 40.1766 33.0362 40.0349 30.9112 39.6383C29.2962 39.3266 27.9079 38.8733 26.7462 38.4199C26.0945 38.1649 25.3862 37.8533 24.6779 37.4566C24.5929 37.3999 24.5079 37.3716 24.4229 37.3149C24.3662 37.2866 24.3379 37.2583 24.3095 37.2299C23.7995 36.9466 23.5162 36.7483 23.5162 36.7483C23.5162 36.7483 24.8762 39.0149 28.4745 40.0916C27.6245 41.1683 26.5762 42.4433 26.5762 42.4433C20.3145 42.2449 17.9345 38.1366 17.9345 38.1366C17.9345 29.0133 22.0145 21.6183 22.0145 21.6183C26.0945 18.5583 29.9762 18.6433 29.9762 18.6433L30.2595 18.9833C25.1595 20.4566 22.8079 22.6949 22.8079 22.6949C22.8079 22.6949 23.4312 22.3549 24.4795 21.8733C27.5112 20.5416 29.9195 20.1733 30.9112 20.0883C31.0812 20.0599 31.2229 20.0316 31.3929 20.0316C33.1212 19.8049 35.0762 19.7483 37.1162 19.9749C39.8079 20.2866 42.6979 21.0799 45.6445 22.6949C45.6445 22.6949 43.4062 20.5699 38.5895 19.0966L38.9862 18.6433C38.9862 18.6433 42.8679 18.5583 46.9479 21.6183C46.9479 21.6183 51.0279 29.0133 51.0279 38.1366C51.0279 38.1366 48.6195 42.2449 42.3579 42.4433Z" fill="#7289DA"></path></svg>