<svg width="48" height="48" viewBox="0 0 48 48" fill="none" xmlns="http://www.w3.org/2000/svg">
<rect width="48" height="48" rx="24" fill="#222222" fill-opacity="0.03"></rect>
<path fill-rule="evenodd" clip-rule="evenodd" d="M29.857 32.417C31.732 32.417 33.25 30.898 33.25 29.024V26.324C32.01 26.324 31.01 25.324 31.01 24.085C31.01 22.845 32.01 21.846 33.25 21.846L33.248 19.143C33.248 17.269 31.73 15.75 29.856 15.75H18.144C16.27 15.75 14.751 17.269 14.751 19.143L14.75 21.933C15.989 21.933 16.989 22.845 16.989 24.085C16.989 25.324 15.989 26.324 14.75 26.324V29.024C14.75 30.898 16.268 32.417 18.142 32.417H29.857Z" stroke="#222222" stroke-width="1.5" stroke-linecap="round" stroke-linejoin="round"></path>
<path d="M23.9984 28.1002C23.5318 28.1002 23.1118 28.0436 22.7384 27.9302C22.3651 27.8102 22.0084 27.6036 21.6684 27.3102C21.5818 27.2369 21.5151 27.1536 21.4684 27.0602C21.4218 26.9669 21.3984 26.8736 21.3984 26.7802C21.3984 26.6269 21.4518 26.4936 21.5584 26.3802C21.6718 26.2602 21.8118 26.2002 21.9784 26.2002C22.1051 26.2002 22.2184 26.2402 22.3184 26.3202C22.5718 26.5269 22.8218 26.6836 23.0684 26.7902C23.3218 26.8969 23.6318 26.9502 23.9984 26.9502C24.2451 26.9502 24.4718 26.9136 24.6784 26.8402C24.8851 26.7602 25.0518 26.6569 25.1784 26.5302C25.3051 26.3969 25.3684 26.2469 25.3684 26.0802C25.3684 25.8802 25.3084 25.7102 25.1884 25.5702C25.0684 25.4302 24.8851 25.3136 24.6384 25.2202C24.3918 25.1202 24.0784 25.0436 23.6984 24.9902C23.3384 24.9369 23.0218 24.8569 22.7484 24.7502C22.4751 24.6369 22.2451 24.4969 22.0584 24.3302C21.8784 24.1569 21.7418 23.9569 21.6484 23.7302C21.5551 23.4969 21.5084 23.2369 21.5084 22.9502C21.5084 22.5169 21.6184 22.1469 21.8384 21.8402C22.0651 21.5336 22.3684 21.3002 22.7484 21.1402C23.1284 20.9802 23.5484 20.9002 24.0084 20.9002C24.4418 20.9002 24.8418 20.9669 25.2084 21.1002C25.5818 21.2269 25.8851 21.3902 26.1184 21.5902C26.3118 21.7436 26.4084 21.9202 26.4084 22.1202C26.4084 22.2669 26.3518 22.4002 26.2384 22.5202C26.1251 22.6402 25.9918 22.7002 25.8384 22.7002C25.7384 22.7002 25.6484 22.6702 25.5684 22.6102C25.4618 22.5169 25.3184 22.4302 25.1384 22.3502C24.9584 22.2636 24.7684 22.1936 24.5684 22.1402C24.3684 22.0802 24.1818 22.0502 24.0084 22.0502C23.7218 22.0502 23.4784 22.0869 23.2784 22.1602C23.0851 22.2336 22.9384 22.3336 22.8384 22.4602C22.7384 22.5869 22.6884 22.7336 22.6884 22.9002C22.6884 23.1002 22.7451 23.2669 22.8584 23.4002C22.9784 23.5269 23.1484 23.6302 23.3684 23.7102C23.5884 23.7836 23.8518 23.8502 24.1584 23.9102C24.5584 23.9836 24.9084 24.0702 25.2084 24.1702C25.5151 24.2702 25.7684 24.4002 25.9684 24.5602C26.1684 24.7136 26.3184 24.9102 26.4184 25.1502C26.5184 25.3836 26.5684 25.6702 26.5684 26.0102C26.5684 26.4436 26.4484 26.8169 26.2084 27.1302C25.9684 27.4436 25.6518 27.6836 25.2584 27.8502C24.8718 28.0169 24.4518 28.1002 23.9984 28.1002ZM24.7184 28.6402C24.7184 28.8136 24.6584 28.9569 24.5384 29.0702C24.4251 29.1902 24.2818 29.2502 24.1084 29.2502C23.9418 29.2502 23.8018 29.1902 23.6884 29.0702C23.5751 28.9569 23.5184 28.8136 23.5184 28.6402V20.6002C23.5184 20.4269 23.5751 20.2836 23.6884 20.1702C23.8084 20.0502 23.9551 19.9902 24.1284 19.9902C24.3018 19.9902 24.4418 20.0502 24.5484 20.1702C24.6618 20.2836 24.7184 20.4269 24.7184 20.6002V28.6402Z" fill="#222222"></path>
</svg>