<svg viewBox="0 0 34 41" fill="none" xmlns="http://www.w3.org/2000/svg"> <path d="M26.5885 15.078V10.5654C26.5885 5.28357 22.3051 1.00009 17.0232 1.00009C11.7414 0.976974 7.44109 5.23944 7.41797 10.5234V10.5654V15.078" stroke="#222222" stroke-width="1.5" stroke-linecap="round" stroke-linejoin="round"></path> <path fill-rule="evenodd" clip-rule="evenodd" d="M25.0299 39.9547H8.97005C4.56887 39.9547 1 36.388 1 31.9847V22.97C1 18.5668 4.56887 15 8.97005 15H25.0299C29.4311 15 33 18.5668 33 22.97V31.9847C33 36.388 29.4311 39.9547 25.0299 39.9547Z" stroke="#222222" stroke-width="1.5" stroke-linecap="round" stroke-linejoin="round"></path> <path d="M18.7731 23C19.1332 23 19.6734 23.0904 20.3035 23.7232C21.2938 24.7627 20.9787 26.4802 20.8437 26.8418C20.0334 29.1017 17.6478 30.4576 16.7025 30.9548C16.6125 31 16.5225 31 16.4775 31C16.4475 31 16.3875 30.9849 16.2975 30.9548C15.3072 30.4576 12.9666 29.0565 12.1563 26.8418L12.1067 26.6619C11.9674 26.0712 11.8163 24.6472 12.6965 23.7232C13.2816 23.0904 13.8218 23 14.1819 23C15.0371 23 15.9373 23.4972 16.4775 24.2203C17.0176 23.452 17.8279 23 18.7731 23Z" fill="#FFDD00"></path> </svg>