<svg viewBox="0 0 26 26" version="1.1" xmlns="http://www.w3.org/2000/svg" xmlns:xlink="http://www.w3.org/1999/xlink"><g id="Page-1" stroke="none" stroke-width="1" fill="none" fill-rule="evenodd"><g id="Group-31" fill-rule="nonzero"> <path d="M24,7.5 C25.0543618,7.5 25.9181651,8.31587779 25.9945143,9.35073766 L26,9.5 L26,14.6428497 L24.5,14.642 L24.5,24 C24.5,25.0543618 23.6841222,25.9181651 22.6492623,25.9945143 L22.5,26 L3.5,26 C2.4456382,26 1.58183488,25.1841222 1.50548574,24.1492623 L1.5,24 L1.5,14.642 L0,14.6428497 L0,9.5 C0,8.4456382 0.815877791,7.58183488 1.85073766,7.50548574 L2,7.5 L24,7.5 Z" id="Path" fill="#6E6D7A" class="paint-fill-22"></path> <polygon id="Path" fill="#f9f9f9" points="24 9.5 2 9.5 2 14 3.5 14 3.5 24 22.5 24 22.5 14 24 14" class="paint-fill-ffd"></polygon> <path d="M16.75,0 C14.1298096,0 12,2.12983949 12,4.75 L12,9.5 L16.75,9.5 C19.3701373,9.5 21.5,7.37013731 21.5,4.75 C21.5,2.12986269 19.3701373,0 16.75,0 Z M16.75,2 C18.2655678,2 19.5,3.23443219 19.5,4.75 L19.4949685,4.91719105 C19.4081749,6.35531391 18.2094357,7.5 16.75,7.5 L14,7.5 L14,4.75 C14,3.2344027 15.2343854,2 16.75,2 Z" id="Path" fill="#6E6D7A" class="paint-fill-22"></path> <path d="M9.25,0 C6.62986269,0 4.5,2.12986269 4.5,4.75 C4.5,7.37013731 6.62986269,9.5 9.25,9.5 L14,9.5 L14,4.75 C14,2.12986269 11.8701373,0 9.25,0 Z M9.41719105,2.00503154 C10.8553139,2.09182507 12,3.29056433 12,4.75 L12,7.5 L9.25,7.5 C7.73443219,7.5 6.5,6.26556781 6.5,4.75 C6.5,3.23443219 7.73443219,2 9.25,2 L9.41719105,2.00503154 Z" id="Path" fill="#6E6D7A" class="paint-fill-22"></path> <polygon id="Path-9" fill="#6E6D7A" points="26 13 26 15 0 15 0 13" class="paint-fill-22"></polygon></g> </g> </svg>