<svg viewBox="0 0 24 24" fill="none" xmlns="http://www.w3.org/2000/svg"><path d="M23.4783 0H14.087C13.2345 0 12.4764 0.411175 12 1.04501C11.5236 0.411175 10.7655 0 9.91304 0H0.521739C0.233866 0 0 0.233866 0 0.521739V21.3913C0 21.6792 0.233866 21.913 0.521739 21.913H9.91304C10.7759 21.913 11.4783 22.6154 11.4783 23.4783C11.4783 23.7661 11.7121 24 12 24C12.2879 24 12.5217 23.7661 12.5217 23.4783C12.5217 22.6154 13.2241 21.913 14.087 21.913H23.4783C23.7669 21.913 24 21.6792 24 21.3913V0.521739C24 0.233866 23.7669 0 23.4783 0ZM11.4783 21.3977C11.0416 21.0683 10.501 20.8696 9.91304 20.8696H1.04348V1.04348H9.91304C10.7759 1.04348 11.4783 1.74584 11.4783 2.6087V21.3977ZM22.9565 20.8696H14.087C13.499 20.8696 12.9584 21.0683 12.5217 21.3977V2.6087C12.5217 1.74584 13.2241 1.04348 14.087 1.04348H22.9565V20.8696Z" fill="#222222"></path><path d="M15.1311 12.5222H20.3485C20.6371 12.5222 20.8702 12.2883 20.8702 12.0004V3.6526C20.8702 3.36472 20.6371 3.13086 20.3485 3.13086H15.1311C14.8425 3.13086 14.6094 3.36472 14.6094 3.6526V12.0004C14.6094 12.2883 14.8425 12.5222 15.1311 12.5222ZM15.6529 4.17434H19.8268V11.4787H15.6529V4.17434Z" fill="#222222"></path><path d="M8.86999 3.13086H3.6526C3.36472 3.13086 3.13086 3.36472 3.13086 3.6526V12.0004C3.13086 12.2883 3.36472 12.5222 3.6526 12.5222H8.86999C9.15786 12.5222 9.39173 12.2883 9.39173 12.0004V3.6526C9.39173 3.36472 9.15786 3.13086 8.86999 3.13086ZM8.34825 11.4787H4.17434V4.17434H8.34825V11.4787Z" fill="#222222"></path><path d="M8.86999 14.6084H3.6526C3.36472 14.6084 3.13086 14.8423 3.13086 15.1301C3.13086 15.418 3.36472 15.6518 3.6526 15.6518H8.86999C9.15786 15.6518 9.39173 15.418 9.39173 15.1301C9.39173 14.8423 9.15786 14.6084 8.86999 14.6084Z" fill="#222222"></path><path d="M8.86999 17.7393H3.6526C3.36472 17.7393 3.13086 17.9731 3.13086 18.261C3.13086 18.5489 3.36472 18.7827 3.6526 18.7827H8.86999C9.15786 18.7827 9.39173 18.5489 9.39173 18.261C9.39173 17.9731 9.15786 17.7393 8.86999 17.7393Z" fill="#222222"></path><path d="M15.1311 15.6518H20.3485C20.6371 15.6518 20.8702 15.418 20.8702 15.1301C20.8702 14.8423 20.6371 14.6084 20.3485 14.6084H15.1311C14.8425 14.6084 14.6094 14.8423 14.6094 15.1301C14.6094 15.418 14.8425 15.6518 15.1311 15.6518Z" fill="#222222"></path><path d="M15.1311 18.7827H20.3485C20.6371 18.7827 20.8702 18.5489 20.8702 18.261C20.8702 17.9731 20.6371 17.7393 20.3485 17.7393H15.1311C14.8425 17.7393 14.6094 17.9731 14.6094 18.261C14.6094 18.5489 14.8425 18.7827 15.1311 18.7827Z" fill="#222222"></path></svg>