<svg viewBox="0 0 16 16" fill="none" xmlns="http://www.w3.org/2000/svg">
<path d="M11.7305 7.28825C12.7987 7.28825 13.6652 6.42231 13.6652 5.35409C13.6652 4.28587 12.7987 3.41992 11.7305 3.41992" stroke="#222222" stroke-linecap="round" stroke-linejoin="round"></path>
<path d="M12.6191 9.39062C12.9381 9.41263 13.2553 9.45785 13.5676 9.52813C14.0015 9.61307 14.5234 9.7909 14.7091 10.1802C14.8277 10.4295 14.8277 10.7198 14.7091 10.9697C14.524 11.359 14.0015 11.5362 13.5676 11.6255" stroke="#222222" stroke-linecap="round" stroke-linejoin="round"></path>
<path d="M4.19259 7.28825C3.12437 7.28825 2.25781 6.42231 2.25781 5.35409C2.25781 4.28587 3.12437 3.41992 4.19259 3.41992" stroke="#222222" stroke-linecap="round" stroke-linejoin="round"></path>
<path d="M3.30376 9.39062C2.98476 9.41263 2.6676 9.45785 2.35532 9.52813C1.92143 9.61307 1.39954 9.7909 1.21438 10.1802C1.09521 10.4295 1.09521 10.7198 1.21438 10.9697C1.39893 11.359 1.92143 11.5362 2.35532 11.6255" stroke="#222222" stroke-linecap="round" stroke-linejoin="round"></path>
<path fill-rule="evenodd" clip-rule="evenodd" d="M7.95909 9.80664C10.1236 9.80664 11.9729 10.1342 11.9729 11.445C11.9729 12.7553 10.1359 13.095 7.95909 13.095C5.79392 13.095 3.94531 12.7675 3.94531 11.4566C3.94531 10.1458 5.78231 9.80664 7.95909 9.80664Z" stroke="#222222" stroke-linecap="round" stroke-linejoin="round"></path>
<path fill-rule="evenodd" clip-rule="evenodd" d="M7.95889 7.93694C6.53133 7.93694 5.38672 6.79233 5.38672 5.36416C5.38672 3.9366 6.53133 2.79199 7.95889 2.79199C9.38644 2.79199 10.5311 3.9366 10.5311 5.36416C10.5311 6.79233 9.38644 7.93694 7.95889 7.93694Z" stroke="#222222" stroke-linecap="round" stroke-linejoin="round"></path>
</svg>