<svg class="xs-wid-forbes" width="71" height="19" viewBox="0 0 71 19" fill="none" xmlns="http://www.w3.org/2000/svg"><path d="M34.0536 5.04767C33.4661 5.04767 33.149 5.11286 32.6733 5.33088C31.8071 5.72775 31.1559 6.37799 30.575 7.42549L30.3935 7.75261L30.4167 7.17117C30.4294 6.85166 30.4511 6.25407 30.4648 5.84389L30.4891 5.09823H30.3642C30.2046 5.09823 25.1956 6.09935 25.0443 6.1615C24.9456 6.20199 24.9304 6.24532 24.9304 6.48653C24.9304 6.73419 24.9432 6.76707 25.0443 6.78836C25.107 6.80148 25.337 6.84652 25.5554 6.88853C25.9983 6.97349 26.1304 7.0423 26.3128 7.28388C26.6496 7.7298 26.7188 8.51651 26.7152 11.8479C26.7122 14.5715 26.6555 15.9281 26.5267 16.3523C26.3679 16.8725 26.0868 17.1384 25.5974 17.2301C25.4391 17.2593 25.2298 17.3008 25.1327 17.3215L24.9557 17.3589L24.9405 17.7083C24.9298 17.9535 24.9451 18.0704 24.9911 18.0996C25.027 18.1224 26.7405 18.1359 28.7982 18.1295L32.5396 18.1173L32.5543 17.7256C32.5624 17.5102 32.5512 17.3338 32.529 17.3338C32.2382 17.3333 31.3479 17.2114 31.2074 17.1529C30.7853 16.9765 30.5809 16.5977 30.4929 15.8292C30.3893 14.9267 30.3281 12.6829 30.3564 10.843C30.3853 8.98542 30.3857 8.97782 30.502 8.85351C30.7731 8.5627 31.4596 8.33632 32.0745 8.33518C32.5685 8.33366 33.0766 8.46101 33.6191 8.72103C33.8789 8.84591 34.1186 8.93733 34.1515 8.92479C34.2191 8.89894 35.4468 5.65552 35.4468 5.50232C35.447 5.27519 34.7502 5.04767 34.0536 5.04767Z" fill="#222222" fill-opacity="0.5"></path><path fill-rule="evenodd" clip-rule="evenodd" d="M22.149 5.87573C23.7194 6.80006 24.6705 8.4423 24.9349 10.6861C25.0159 11.3711 24.9632 12.8182 24.8363 13.4152C24.3157 15.8597 22.7983 17.5677 20.5762 18.2113C20.3365 18.2807 19.9654 18.362 19.7505 18.3919C19.297 18.455 17.9121 18.4535 17.4732 18.3898C16.247 18.2107 15.1748 17.692 14.3562 16.881C13.6733 16.2045 13.2302 15.4604 12.9036 14.441C12.3939 12.8495 12.3939 10.8034 12.9031 9.24403C13.3971 7.73313 14.5084 6.41763 15.869 5.73508C17.7528 4.78927 20.4041 4.84896 22.149 5.87573ZM16.5523 13.7441C16.9357 16.502 17.925 17.8181 19.3069 17.4081C19.6648 17.3013 20.1067 16.8873 20.3418 16.437C20.8282 15.5074 21.0455 14.1326 21.0506 11.9494C21.0576 9.21291 20.6285 7.47221 19.7233 6.56062C19.3432 6.17781 19.0731 6.05864 18.5873 6.05959C17.5084 6.06111 16.8238 7.18748 16.5533 9.40507C16.429 10.4242 16.4284 12.8526 16.5523 13.7441Z" fill="#222222" fill-opacity="0.5"></path><path d="M6.68508 1.76127H8.27618C10.1045 1.76127 10.4037 1.79967 11.0514 2.11728C11.9898 2.57783 12.676 3.48999 13.2742 5.07292C13.5178 5.71765 13.5148 5.71556 14.0563 5.55077L14.4158 5.44148L14.3829 3.1087C14.3646 1.82552 14.3353 0.684316 14.3171 0.573123L14.2842 0.370885L7.30852 0.356819C3.47207 0.348836 0.25793 0.355869 0.166314 0.372025L0 0.401676L0.0146357 0.815657L0.0292713 1.23021L0.560147 1.29388C1.24935 1.37637 1.66086 1.56987 1.90511 1.92588C2.45575 2.72875 2.55535 3.82129 2.55421 9.01638C2.55326 14.5481 2.43788 15.8915 1.90606 16.5893C1.63159 16.9487 1.40902 17.0671 0.787665 17.1823C-0.0228088 17.3325 0.00399155 17.3139 0.00399155 17.733C0.00399155 17.966 0.0252798 18.092 0.067096 18.1091C0.158141 18.146 9.08096 18.1487 9.17656 18.1116C9.2984 18.065 9.29137 17.4058 9.16801 17.3422C9.11954 17.3169 8.8177 17.2572 8.498 17.2091C8.17792 17.161 7.82514 17.0822 7.71376 17.0337C7.12928 16.7794 6.80425 16.0761 6.68185 14.803C6.59441 13.8899 6.52618 12.2077 6.52618 10.9639V9.82267L7.0696 9.8394C8.22695 9.87437 8.8255 9.93539 9.06727 10.0422C9.59111 10.2737 10.0148 10.92 10.2347 11.8224L10.352 12.3028L10.7646 12.3174L11.1777 12.332V6.2567L10.765 6.27134L10.352 6.28597L10.2317 6.76572C9.99806 7.69556 9.61677 8.26692 9.05625 8.52618C8.82816 8.63186 8.6664 8.66075 8.12089 8.69345C7.75842 8.71473 7.25131 8.73393 6.99395 8.73545L6.52637 8.73792L6.5258 7.23387C6.52523 5.72621 6.6062 2.52423 6.65771 2.02624L6.68508 1.76127Z" fill="#222222" fill-opacity="0.5"></path><path d="M69.9965 12.476C69.5713 11.6256 68.7886 11.0436 67.149 10.3586C65.8101 9.79937 65.1382 9.41162 64.7276 8.96266C64.395 8.59867 64.2973 8.30444 64.3296 7.75931C64.3595 7.25675 64.4828 6.95739 64.7978 6.6202C65.2022 6.18797 65.7584 6.03667 66.4242 6.17732C67.5168 6.40845 68.2176 7.16533 68.8212 8.76404C69.0366 9.33445 69.0619 9.3525 69.4487 9.209L69.6933 9.11795L69.6853 8.46068C69.6802 8.09916 69.6621 7.34019 69.6439 6.77397L69.6116 5.74453L69.4291 5.66717C68.4301 5.24406 66.5234 4.98062 65.2811 5.09391C63.8704 5.22277 62.8345 5.67078 62.0371 6.49703C61.2443 7.31815 60.8864 8.28182 60.9501 9.42492C61.0028 10.3703 61.2824 11.0499 61.8653 11.6465C62.4057 12.199 62.8594 12.461 64.1603 12.9692C66.26 13.7894 66.8162 14.2752 66.8112 15.2864C66.8076 16.1404 66.3547 16.7652 65.5296 17.0566C65.2348 17.1607 64.4885 17.1598 64.0901 17.055C63.047 16.78 62.2477 15.876 61.5667 14.1994L61.3922 13.7696L61.1869 13.7793C61.0748 13.7844 60.9195 13.8187 60.8427 13.8557L60.7026 13.9224L60.7158 14.655C60.7228 15.0579 60.7431 15.9074 60.7608 16.543L60.7927 17.6979L61.0258 17.798C61.503 18.0033 62.9364 18.3173 63.8373 18.4139C63.9485 18.4255 64.5628 18.4295 65.2024 18.4224C66.3123 18.4103 66.3921 18.4032 66.9504 18.2571C68.5981 17.8267 69.6644 16.9087 70.1371 15.5141C70.2822 15.0865 70.3025 14.9555 70.3232 14.3184C70.3508 13.4689 70.2725 13.0281 69.9965 12.476Z" fill="#222222" fill-opacity="0.5"></path><path fill-rule="evenodd" clip-rule="evenodd" d="M52.1502 5.67859C53.7193 4.91411 55.8644 4.86355 57.2533 5.55979C58.8167 6.34289 59.7362 7.9072 59.9698 10.1799C60.0012 10.4857 60.0194 10.8497 60.0103 10.9889L59.9936 11.2417L56.2522 11.2548L52.5108 11.2673L52.5248 11.7096C52.5577 12.7335 52.7782 13.6394 53.1852 14.4267C53.3709 14.7846 53.518 14.9798 53.8759 15.3414C54.6843 16.1573 55.4887 16.4738 56.7578 16.4738C57.6779 16.4738 58.3392 16.2898 59.0314 15.8428C59.2251 15.7173 59.4218 15.6147 59.4678 15.6147C59.5735 15.6147 59.8168 15.9275 59.8168 16.0636C59.8168 16.2866 59.0911 17.0051 58.3839 17.4829C57.8043 17.8743 56.8851 18.2288 56.0883 18.3683C55.5303 18.466 54.2764 18.4639 53.7242 18.3643C51.216 17.9117 49.4221 16.133 48.8361 13.517C48.7602 13.1802 48.7274 12.8041 48.7082 12.0755C48.6783 10.9231 48.7718 10.2077 49.0697 9.31888C49.6405 7.61259 50.6638 6.40353 52.1502 5.67859ZM52.5352 10.1841L53.4832 10.1689C54.0046 10.1604 54.8273 10.1396 55.311 10.1229L56.1906 10.0921L56.1587 9.46715C56.047 7.26363 55.5081 6.05989 54.6334 6.06085C53.6828 6.06199 52.9235 7.28397 52.6074 9.32004C52.5684 9.57036 52.5367 9.86726 52.5361 9.9794L52.5352 10.1841Z" fill="#222222" fill-opacity="0.5"></path><path fill-rule="evenodd" clip-rule="evenodd" d="M42.5498 5.26354C43.1301 5.24339 43.3992 5.25593 43.6975 5.31771C45.645 5.72047 47.0865 7.31481 47.59 9.62325C47.7213 10.2254 47.77 11.722 47.6829 12.4719C47.6086 13.1109 47.3963 13.9716 47.1758 14.5302C46.3427 16.6385 44.5555 18.0137 42.1841 18.3712C41.638 18.4531 39.923 18.4638 39.1874 18.3889C38.6858 18.3383 37.1528 18.083 36.6174 17.9612L36.2473 17.8772L36.2762 15.8987C36.3456 11.1366 36.3547 8.53679 36.3097 6.00824C36.2652 3.5314 36.2527 3.26947 36.1571 2.90339C36.0362 2.43885 35.8613 2.11516 35.6515 1.96557C35.5695 1.90741 35.3481 1.82491 35.1584 1.78253C34.7621 1.69335 34.6288 1.66938 34.5802 1.59213C34.5516 1.54671 34.5524 1.48287 34.5462 1.37653C34.5367 1.21117 34.5547 1.10207 34.5967 1.06861C34.6534 1.02356 39.8171 0.0387935 39.9819 0.0412644C40.0288 0.0422148 40.0355 0.70196 40.0112 2.97467C39.9941 4.58744 39.992 5.90712 40.0066 5.90712C40.0207 5.90712 40.2094 5.8252 40.4257 5.7256C41.0769 5.42472 41.6775 5.29395 42.5498 5.26354ZM39.984 8.78641C39.9526 11.1536 40.0296 17.0797 40.0942 17.2496C40.1356 17.3584 40.1807 17.3815 40.3856 17.3975C40.8674 17.4353 40.9472 17.4338 41.2137 17.3838C41.5808 17.3139 41.8664 17.1679 42.1728 16.8923C42.9404 16.2018 43.5178 14.777 43.7447 13.0108C43.8373 12.2917 43.8246 10.6527 43.7225 10.0525C43.4448 8.42888 42.8493 7.36162 41.9801 6.93186C41.6195 6.75377 41.5638 6.74122 41.1362 6.74122C40.8303 6.74122 40.5675 6.7741 40.3439 6.83987L40.0087 6.93852L39.984 8.78641Z" fill="#222222" fill-opacity="0.5"></path></svg>