<svg viewBox="0 0 104 95" fill="none" xmlns="http://www.w3.org/2000/svg">
<path d="M27.0844 75.5882C20.1463 75.5882 13.9747 71.1665 11.7336 64.5837L11.5821 64.0876C11.0536 62.3444 10.8322 60.8784 10.8322 59.4116V30L0.318182 64.9328C-1.03406 70.0709 2.04737 75.3978 7.21746 76.8172L74.2334 94.6809C75.0698 94.8965 75.9063 95 76.73 95C81.0462 95 84.9902 92.1486 86.0956 87.9465L90 75.5882H27.0844Z" fill="#FF813F" fill-opacity="0.25"></path>
<path d="M104 9.70305V59.2969C104 64.6444 99.657 69 94.325 69H27.675C27.2451 69 26.8152 68.9566 26.4278 68.9131C21.9131 68.3533 18.3874 64.6444 18.0433 60.0732C18 59.8142 18 59.5552 18 59.2969V9.70305C18 4.35563 22.343 0 27.675 0H94.325C99.657 0 104 4.35563 104 9.70305Z" fill="#FF813F" fill-opacity="0.25"></path>
<path d="M47 21.5C47 26.1939 43.1946 30 38.5004 30C33.8054 30 30 26.1939 30 21.5C30 16.8061 33.8054 13 38.5004 13C43.1946 13 47 16.8061 47 21.5Z" fill="#FFF2EB"></path>
<path fill-rule="evenodd" clip-rule="evenodd" d="M104 59.2355V47.0402L81.3704 24.2135C78.4447 21.2622 73.6268 21.2622 70.7011 24.2135L52.374 42.7006L49.1042 39.4022C46.1785 36.4517 41.3607 36.4517 38.435 39.4022L18 60.0166C18.3442 64.6168 21.8718 68.3492 26.3887 68.9126C26.7763 68.9563 27.2064 69 27.6365 69H78.4447H94.3202C99.6548 69 104 64.6168 104 59.2355Z" fill="#FF813F" fill-opacity="0.25"></path>
</svg>