<svg viewBox="0 0 49 49" fill="none" xmlns="http://www.w3.org/2000/svg"><path fill-rule="evenodd" clip-rule="evenodd" d="M24.5 49C38.031 49 49 38.031 49 24.5C49 10.969 38.031 0 24.5 0C10.969 0 0 10.969 0 24.5C0 38.031 10.969 49 24.5 49Z" fill="#0D0C22" fill-opacity="0.03"></path><path d="M26.25 14.6593C24.6043 13.7839 22.7418 14.0241 20.9379 14.0475C20.6556 14.0513 20.4345 14.1474 20.2687 14.2928C20.0357 14.4624 19.8729 14.7324 19.875 15.1103C19.9031 19.8561 20.4387 24.5829 20.0323 29.3202C19.8835 31.0535 19.8627 32.8735 21.1381 34.1918C22.32 35.4132 24.6268 34.9256 26.0999 34.8873C26.5518 34.8758 27.0263 34.5744 27.1249 34.1072C28.1716 29.1402 27.559 24.0182 27.3264 18.999C27.2665 17.6999 27.6997 15.4301 26.25 14.6593ZM25.2143 32.8179C23.7629 32.9322 22.2426 33.0287 22.1011 31.1062C21.9918 29.6178 22.317 28.109 22.3608 26.6219C22.4645 23.1234 22.1006 19.6096 22.019 16.1069C23.2752 16.0337 25.0897 16.007 25.1531 16.7025C25.3028 18.3385 25.2471 20.025 25.3407 21.6698C25.5515 25.3626 25.8542 29.1519 25.2143 32.8179Z" fill="#6E6D7A"></path><path d="M13.0858 34.7292C14.5734 35.1366 16.4241 35.0829 17.9332 34.861C20.0674 34.5469 18.8987 30.4884 18.8804 29.2028C18.8486 26.9151 19.1419 24.5011 18.6394 22.2505C18.0884 19.7821 14.9518 20.8156 13.1882 20.8768C12.7308 20.8925 12.4298 21.143 12.278 21.4648C12.198 21.5991 12.1419 21.756 12.1253 21.9396C11.7703 25.8467 12.2796 29.7907 12.3052 33.7045C12.3087 34.177 12.6275 34.6034 13.0858 34.7292ZM14.1865 22.938C14.5309 22.9091 14.8752 22.8777 15.2205 22.8534C16.3416 22.7748 16.6205 22.5303 16.7366 23.7569C16.8832 25.3078 16.7459 26.9106 16.7502 28.467C16.7527 29.5154 16.6541 30.673 16.8458 31.7061C16.8887 31.9339 16.93 32.1622 16.9704 32.3906C17.0087 32.604 17.0504 32.7464 17.0895 32.842C17.0729 32.8408 17.0563 32.8395 17.0368 32.8412C16.2397 32.9045 15.2772 32.9381 14.4137 32.8263C14.3375 29.5349 14.0037 26.2256 14.1865 22.938Z" fill="#6E6D7A"></path><path d="M29.1903 17.1791C28.6737 17.2799 28.442 17.6447 28.4259 18.0405C28.4187 18.0936 28.4097 18.1459 28.4102 18.2038C28.417 20.9693 28.4858 23.7336 28.5742 26.4974C28.655 29.0227 28.5083 31.5889 28.868 34.0925C28.9394 34.5908 29.4641 34.8213 29.893 34.8727C31.5782 35.0754 33.2453 34.8234 34.9352 34.8727C35.4768 34.8884 36.0478 34.3761 35.998 33.8098C35.5703 28.9317 36.2281 23.967 35.7582 19.125C35.4755 16.2158 31.0991 16.8063 29.1903 17.1791ZM33.6181 23.2064C33.5913 26.3937 33.57 29.5737 33.7912 32.7529C32.8036 32.7813 31.8206 32.8498 30.8343 32.8149C30.5932 30.492 30.7497 28.0665 30.6753 25.744C30.6043 23.5298 30.5601 21.3144 30.5452 19.099C31.3734 18.9885 32.222 18.9621 33.043 19.0828C34.1678 19.2487 33.6244 22.4564 33.6181 23.2064Z" fill="#6E6D7A"></path></svg>