<svg viewBox="0 0 16 14" fill="none" xmlns="http://www.w3.org/2000/svg"><path fill-rule="evenodd" clip-rule="evenodd" d="M6.24258 9.40169C6.74216 9.74036 7.35102 9.94514 7.99891 9.94514C9.71621 9.94514 11.1135 8.53532 11.1135 6.80258C11.1135 6.14887 10.9105 5.53454 10.5749 5.03047L9.72401 5.88896C9.86452 6.15675 9.94258 6.47179 9.94258 6.80258C9.94258 7.88161 9.06832 8.76373 7.99891 8.76373C7.67106 8.76373 7.35882 8.68496 7.09342 8.54319L6.24258 9.40169ZM13.1425 2.43961C14.2744 3.47925 15.2345 4.88119 15.9526 6.56667C16.0151 6.71632 16.0151 6.88959 15.9526 7.03136C14.2822 10.9536 11.3081 13.3007 7.99841 13.3007H7.99061C6.48407 13.3007 5.03998 12.8045 3.76761 11.8988L2.25327 13.4267C2.13618 13.5449 1.98787 13.6 1.83955 13.6C1.69124 13.6 1.53512 13.5449 1.42584 13.4267C1.23069 13.2298 1.19947 12.9148 1.35559 12.6864L1.37901 12.6549L12.9239 1.00617C12.9396 0.990416 12.9552 0.974663 12.963 0.958911C12.9786 0.943159 12.9942 0.927407 13.002 0.911655L13.7358 0.171304C13.9699 -0.0571015 14.3368 -0.0571015 14.5632 0.171304C14.7974 0.39971 14.7974 0.777762 14.5632 1.00617L13.1425 2.43961ZM4.87869 6.80635C4.87869 7.01113 4.90211 7.21591 4.93333 7.40493L2.04515 10.3191C1.26456 9.40545 0.585443 8.3028 0.0468354 7.03476C-0.0156118 6.89299 -0.0156118 6.71971 0.0468354 6.57007C1.7173 2.64779 4.69135 0.308594 7.99325 0.308594H8.00105C9.1173 0.308594 10.2023 0.57638 11.2015 1.08045L8.5943 3.71106C8.40696 3.67955 8.20401 3.65592 8.00105 3.65592C6.27595 3.65592 4.87869 5.06574 4.87869 6.80635Z" fill="#717171"></path></svg>