<svg viewBox="0 0 17 19" fill="none" xmlns="http://www.w3.org/2000/svg"><path class="paint-stroke-22 paint-fill-ffd" d="M6.30782 16.4161V13.97C6.30782 13.3455 6.81774 12.8393 7.44675 12.8393H9.74609C10.0482 12.8393 10.3378 12.9584 10.5514 13.1705C10.765 13.3825 10.885 13.6701 10.885 13.97V16.4161C10.8831 16.6757 10.9857 16.9254 11.1699 17.1096C11.3541 17.2938 11.6048 17.3975 11.8664 17.3975H13.4351C14.1677 17.3993 14.871 17.1117 15.3897 16.5981C15.9085 16.0845 16.2 15.387 16.2 14.6597V7.69095C16.2 7.10343 15.9377 6.54613 15.4837 6.1692L10.1472 1.93816C9.21893 1.19631 7.88889 1.22026 6.98831 1.99504L1.77361 6.1692C1.29819 6.53502 1.01404 7.09397 1 7.69095V14.6526C1 16.1685 2.23791 17.3975 3.76494 17.3975H5.29783C5.84098 17.3975 6.2824 16.9624 6.28633 16.4232L6.30782 16.4161Z" stroke="#717171" stroke-width="1.5"></path> </svg>