<svg viewBox="0 0 30 29" fill="none" xmlns="http://www.w3.org/2000/svg"><path d="M29.5599 23.7818H28.8314V8.27015C28.8314 6.68456 27.5414 5.39453 25.9557 5.39453H22.6805C22.4374 5.39453 22.2404 5.59152 22.2404 5.83463C22.2404 6.07774 22.4374 6.27473 22.6805 6.27473H25.9557C27.056 6.27473 27.9512 7.1699 27.9512 8.27015V23.7818H18.1133C17.813 23.7818 17.5328 23.93 17.3639 24.1783L17.2319 24.3722C17.1093 24.5524 16.9059 24.66 16.6879 24.66H13.2533C13.0353 24.66 12.832 24.5524 12.7094 24.3722L12.5774 24.1783C12.4086 23.9301 12.1284 23.7818 11.828 23.7818H2.04882V8.27015C2.04882 7.1699 2.94398 6.27473 4.0443 6.27473H6.87878C7.12189 6.27473 7.31888 6.07774 7.31888 5.83463C7.31888 5.59152 7.12189 5.39453 6.87878 5.39453H4.0443C2.4587 5.39453 1.16862 6.6845 1.16862 8.27015V23.7818H0.440101C0.196989 23.7818 0 23.9788 0 24.2219V25.1382C0 26.7948 1.34777 28.1426 3.00437 28.1426H26.9956C28.6522 28.1426 30 26.7948 30 25.1382V24.2219C30 23.9788 29.803 23.7818 29.5599 23.7818ZM29.1198 25.1382C29.1198 26.3095 28.1669 27.2624 26.9956 27.2624H3.00437C1.83311 27.2624 0.880202 26.3095 0.880202 25.1382V24.662H11.828C11.8367 24.662 11.8448 24.6663 11.8498 24.6735L11.9817 24.8674C12.2684 25.2887 12.7437 25.5402 13.2533 25.5402H16.6879C17.1975 25.5402 17.6728 25.2887 17.9595 24.8674L18.0915 24.6735L18.0916 24.6734C18.0964 24.6663 18.1045 24.662 18.1132 24.662H29.1197V25.1382H29.1198Z" fill="#222222"></path><path d="M3.04492 22.3434C3.04492 22.5865 3.24191 22.7835 3.48502 22.7835H26.5121C26.7552 22.7835 26.9522 22.5865 26.9522 22.3434V8.2694C26.9522 7.71916 26.5045 7.27148 25.9542 7.27148H22.6791C22.436 7.27148 22.239 7.46847 22.239 7.71159C22.239 7.9547 22.436 8.15169 22.6791 8.15169H25.9542C26.0191 8.15169 26.072 8.20444 26.072 8.2694V21.9033H19.6878V20.1064C19.6878 19.1508 19.3156 18.2524 18.6399 17.5767L18.0669 17.0036C18.2702 16.6884 18.4276 16.3385 18.5272 15.9613C18.5892 15.7262 18.449 15.4855 18.214 15.4234C17.9788 15.3615 17.7383 15.5016 17.6761 15.7366C17.5741 16.123 17.3927 16.472 17.1525 16.7686C17.1508 16.7707 17.149 16.7727 17.1473 16.7748C16.6333 17.4058 15.8519 17.7971 14.9985 17.7971C13.4714 17.7971 12.229 16.5546 12.229 15.0275C12.229 13.5004 13.4714 12.258 14.9985 12.258C16.177 12.258 17.2283 13.0059 17.6149 14.119C17.6945 14.3486 17.945 14.4702 18.175 14.3904C18.4046 14.3108 18.526 14.06 18.4464 13.8303C17.937 12.3634 16.5515 11.3778 14.9985 11.3778C12.986 11.3778 11.3488 13.015 11.3488 15.0275C11.3488 15.7548 11.5635 16.4325 11.9316 17.0022L11.3571 17.5767C10.6814 18.2525 10.3093 19.1508 10.3093 20.1064V21.9033H3.92512V20.291C3.92512 20.0479 3.72814 19.8509 3.48502 19.8509C3.24191 19.8509 3.04492 20.0479 3.04492 20.291V22.3434ZM11.1895 20.1064C11.1895 19.3859 11.4701 18.7085 11.9796 18.199L12.4971 17.6815C13.1509 18.2981 14.0311 18.6772 14.9985 18.6772C15.9539 18.6772 16.8406 18.3048 17.5013 17.6828L18.0175 18.199C18.527 18.7085 18.8076 19.3858 18.8076 20.1063V21.9032H11.1895V20.1064Z" fill="#222222"></path><path d="M3.48502 20.8539C3.72814 20.8539 3.92512 20.6569 3.92512 20.4138V8.2694C3.92512 8.2045 3.97788 8.15169 4.04278 8.15169H6.87732C7.12044 8.15169 7.31742 7.9547 7.31742 7.71159C7.31742 7.46847 7.12044 7.27148 6.87732 7.27148H4.04278C3.49253 7.27148 3.04492 7.71916 3.04492 8.2694V20.4138C3.04492 20.6569 3.24191 20.8539 3.48502 20.8539Z" fill="#222222"></path><path d="M10.1124 10.4479H19.4471C20.5021 10.4479 21.3603 9.58969 21.3603 8.53474V1.91327C21.3603 0.858256 20.5021 0 19.4471 0H10.1124C9.05742 0 8.19922 0.858315 8.19922 1.91327V2.83496C8.19922 3.07807 8.39621 3.27506 8.63932 3.27506C8.88243 3.27506 9.07942 3.07807 9.07942 2.83496V1.91327C9.07942 1.3436 9.54282 0.880202 10.1124 0.880202H19.4471C20.0167 0.880202 20.4801 1.3436 20.4801 1.91327V8.53474C20.4801 9.10435 20.0167 9.56774 19.4471 9.56774H10.1124C9.54282 9.56774 9.07942 9.10435 9.07942 8.53474V2.71208C9.07942 2.46896 8.88243 2.27197 8.63932 2.27197C8.39621 2.27197 8.19922 2.46896 8.19922 2.71208V8.53474C8.19922 9.58969 9.05747 10.4479 10.1124 10.4479Z" fill="#222222"></path><path d="M13.6064 7.95194C13.8041 7.95194 14.0017 7.89913 14.1815 7.79357L16.8884 6.2031C17.2393 5.9969 17.4487 5.63091 17.4487 5.22396C17.4487 4.81702 17.2392 4.45103 16.8884 4.24494L14.1814 2.65447C13.826 2.44563 13.4 2.44317 13.0422 2.64802C12.6843 2.85281 12.4707 3.22127 12.4707 3.63355V6.81449C12.4707 7.22678 12.6844 7.59529 13.0422 7.80008C13.2192 7.9013 13.4128 7.95194 13.6064 7.95194ZM13.3508 3.63349C13.3508 3.49988 13.4407 3.43404 13.4793 3.41192C13.5026 3.3986 13.549 3.37724 13.6076 3.37724C13.646 3.37724 13.6897 3.38651 13.7355 3.41339L16.4425 5.00385C16.5563 5.07063 16.5685 5.18001 16.5685 5.2239C16.5685 5.26785 16.5562 5.37723 16.4425 5.44407L13.7356 7.03454C13.6202 7.10226 13.518 7.05807 13.4794 7.03601C13.4407 7.01388 13.3509 6.94799 13.3509 6.81437V3.63349H13.3508Z" fill="#222222"></path></svg>