<svg viewBox="0 0 18 13" fill="none" xmlns="http://www.w3.org/2000/svg"><path d="M10 5H14.5734" stroke="#717171" stroke-width="1.5" stroke-linecap="round" stroke-linejoin="round"></path><path d="M10 8H13" stroke="#717171" stroke-width="1.5" stroke-linecap="round" stroke-linejoin="round"></path><rect x="1" y="1" width="16" height="11" rx="2" stroke="#717171" stroke-width="1.5"></rect><path fill-rule="evenodd" clip-rule="evenodd" d="M5.67091 8.5C5.64909 8.5 5.58362 8.4774 5.58362 8.4774C5.10348 8.22882 3.96864 7.52824 3.5758 6.4209C3.51033 6.21752 3.35756 5.38136 3.83769 4.86158C4.1214 4.5452 4.38329 4.5 4.55788 4.5C4.97254 4.5 5.40901 4.74859 5.67091 5.11017C5.93279 4.72599 6.32564 4.5 6.78394 4.5C6.95852 4.5 7.22042 4.5452 7.52595 4.86158C8.00607 5.38136 7.85331 6.24012 7.78783 6.4209C7.395 7.55084 6.23832 8.22882 5.78002 8.4774C5.73639 8.5 5.69273 8.5 5.67091 8.5Z" fill="#717171"></path></svg>