<svg viewBox="0 0 32 36" fill="none" xmlns="http://www.w3.org/2000/svg"><path d="M16.0276 7.75977C10.9323 7.75977 6.76953 11.9226 6.76953 17.0179C6.76953 19.6821 7.93512 22.2464 9.89997 23.9781C11.3653 25.4434 11.2321 28.5738 11.1988 28.6071C11.1988 28.7736 11.2321 28.9069 11.3653 29.0401C11.4652 29.14 11.6317 29.2066 11.7649 29.2066H20.257C20.4236 29.2066 20.5568 29.14 20.6567 29.0401C20.7566 28.9402 20.8232 28.7736 20.8232 28.6071C20.8232 28.5738 20.6567 25.4434 22.122 23.9781C22.1553 23.9448 22.1886 23.9115 22.2219 23.8782C24.1534 22.1131 25.2857 19.6155 25.2857 17.0179C25.2857 11.9226 21.1229 7.75977 16.0276 7.75977ZM21.356 23.1122C21.3227 23.1455 21.2561 23.2121 21.2561 23.2454C19.9573 24.6441 19.7242 26.942 19.6909 28.041H12.331C12.2977 26.942 12.0646 24.5442 10.6659 23.1122C8.90089 21.5803 7.86851 19.349 7.86851 16.9846C7.86851 12.4887 11.4985 8.85875 15.9943 8.85875C20.4902 8.85875 24.1201 12.4887 24.1201 16.9846C24.1201 19.349 23.1211 21.5803 21.356 23.1122Z" fill="#222222"></path><path d="M15.9958 10.125C15.6961 10.125 15.4297 10.3914 15.4297 10.6911C15.4297 10.9909 15.6961 11.2573 15.9958 11.2573C19.3594 11.2573 22.0569 13.9881 22.0569 17.3183C22.0569 17.6181 22.3233 17.8845 22.623 17.8845C22.9228 17.8845 23.1892 17.6181 23.1892 17.3183C23.2225 13.3553 19.9921 10.125 15.9958 10.125Z" fill="#222222"></path><path d="M19.6923 29.8389H12.2991C11.5331 29.8389 10.9004 30.4716 10.9004 31.2376C10.9004 32.0035 11.5331 32.6363 12.2991 32.6363H19.659C20.4582 32.603 21.091 32.0035 21.091 31.2376C21.091 30.4716 20.4582 29.8389 19.6923 29.8389ZM19.6923 31.4707H12.2991C12.1659 31.4707 12.0327 31.3708 12.0327 31.2043C12.0327 31.0378 12.1326 30.9379 12.2991 30.9379H19.659C19.7922 30.9379 19.9254 31.0378 19.9254 31.2043C19.9254 31.3708 19.8255 31.4707 19.6923 31.4707Z" fill="#222222"></path><path d="M18.5919 33.2031H13.3968C12.6308 33.2031 11.998 33.8359 11.998 34.6018C11.998 35.3678 12.6308 36.0005 13.3968 36.0005H18.5919C19.3579 36.0005 19.9906 35.3678 19.9906 34.6018C19.9906 33.8026 19.3579 33.2031 18.5919 33.2031ZM18.5919 34.8349H13.3968C13.2635 34.8349 13.1303 34.735 13.1303 34.5685C13.1303 34.402 13.2302 34.3021 13.3968 34.3021H18.5919C18.7252 34.3021 18.8584 34.402 18.8584 34.5685C18.8584 34.735 18.7252 34.8349 18.5919 34.8349Z" fill="#222222"></path><path d="M15.9958 4.99538C16.3289 4.99538 16.562 4.72896 16.562 4.42924V0.566143C16.562 0.26642 16.2956 0 15.9958 0C15.6961 0 15.4297 0.26642 15.4297 0.566143V4.42924C15.4297 4.72896 15.6961 4.99538 15.9958 4.99538Z" fill="#222222"></path><path d="M25.4198 2.86397C25.1533 2.66416 24.8203 2.76406 24.6538 2.99718L22.5224 6.19422C22.3226 6.46064 22.3892 6.82697 22.6556 6.99348C22.7556 7.06009 22.8555 7.09339 22.9554 7.09339C23.1552 7.09339 23.3217 6.99348 23.4216 6.82697L25.553 3.62993C25.7528 3.39681 25.6862 3.03048 25.4198 2.86397Z" fill="#222222"></path><path d="M9.23515 6.96102C9.33506 6.96102 9.43497 6.92772 9.53487 6.86111C9.80129 6.6946 9.8679 6.32827 9.70139 6.06185L7.63663 2.83151C7.47012 2.56509 7.10379 2.49849 6.83737 2.665C6.57095 2.83151 6.50435 3.19784 6.67086 3.46426L8.73561 6.6946C8.86882 6.89442 9.03534 6.96102 9.23515 6.96102Z" fill="#222222"></path><path d="M5.20387 10.491L1.84031 8.65933C1.57389 8.52612 1.20757 8.62603 1.07436 8.89245C0.907843 9.15887 1.00775 9.5252 1.30747 9.65841L4.67103 11.4901C4.77094 11.5234 4.83754 11.5567 4.93745 11.5567C5.13727 11.5567 5.33708 11.4568 5.43699 11.2569C5.5702 10.9905 5.47029 10.6242 5.20387 10.491Z" fill="#222222"></path><path d="M30.9469 8.89245C30.8137 8.62603 30.4473 8.52612 30.1809 8.65933L26.7841 10.491C26.5176 10.6242 26.4177 10.9905 26.5509 11.2569C26.6508 11.4568 26.8507 11.5567 27.0505 11.5567C27.1504 11.5567 27.2503 11.5234 27.3169 11.4901L30.7138 9.65841C30.9802 9.5252 31.0801 9.15887 30.9469 8.89245Z" fill="#222222"></path></svg>