<svg xmlns="http://www.w3.org/2000/svg" viewBox="0 0 250 250" preserveAspectRatio="xMidYMid meet"><defs><clipPath id="__lottie_element_28"><rect width="250" height="250" x="0" y="0"></rect></clipPath></defs><g clip-path="url(#__lottie_element_28)"><g style="display: block;" transform="matrix(1,0,0,1,0,0)" opacity="1"><g opacity="1" transform="matrix(1,0,0,1,125.47899627685547,150.3090057373047)"><path fill="rgb(255,255,255)" fill-opacity="1" d=" M67.5,38.8650016784668 C67.5,38.8650016784668 -67.5,38.8650016784668 -67.5,38.8650016784668 C-67.5,38.8650016784668 -67.5,-38.8650016784668 -67.5,-38.8650016784668 C-67.5,-38.8650016784668 67.5,-38.8650016784668 67.5,-38.8650016784668 C67.5,-38.8650016784668 67.5,38.8650016784668 67.5,38.8650016784668z"></path><path stroke-linecap="round" stroke-linejoin="round" fill-opacity="0" stroke="rgb(0,0,0)" stroke-opacity="1" stroke-width="3" d=" M67.5,38.8650016784668 C67.5,38.8650016784668 -67.5,38.8650016784668 -67.5,38.8650016784668 C-67.5,38.8650016784668 -67.5,-38.8650016784668 -67.5,-38.8650016784668 C-67.5,-38.8650016784668 67.5,-38.8650016784668 67.5,-38.8650016784668 C67.5,-38.8650016784668 67.5,38.8650016784668 67.5,38.8650016784668z"></path></g><g opacity="1" transform="matrix(1,0,0,1,125.2300033569336,87.96299743652344)"><path fill="rgb(255,255,255)" fill-opacity="1" d=" M0,-23.88599967956543 C0,-23.88599967956543 -67.5,23.88599967956543 -67.5,23.88599967956543 C-67.5,23.88599967956543 67.5,23.88599967956543 67.5,23.88599967956543 C67.5,23.88599967956543 0,-23.88599967956543 0,-23.88599967956543z"></path><path stroke-linecap="round" stroke-linejoin="round" fill-opacity="0" stroke="rgb(0,0,0)" stroke-opacity="1" stroke-width="3" d=" M0,-23.88599967956543 C0,-23.88599967956543 -67.5,23.88599967956543 -67.5,23.88599967956543 C-67.5,23.88599967956543 67.5,23.88599967956543 67.5,23.88599967956543 C67.5,23.88599967956543 0,-23.88599967956543 0,-23.88599967956543z"></path></g><g opacity="1" transform="matrix(1,0,0,1,125.2300033569336,135.73399353027344)"><path fill="rgb(255,255,255)" fill-opacity="1" d=" M0,23.885000228881836 C0,23.885000228881836 -67.5,-23.885000228881836 -67.5,-23.885000228881836 C-67.5,-23.885000228881836 67.5,-23.885000228881836 67.5,-23.885000228881836 C67.5,-23.885000228881836 0,23.885000228881836 0,23.885000228881836z"></path><path stroke-linecap="round" stroke-linejoin="round" fill-opacity="0" stroke="rgb(0,0,0)" stroke-opacity="1" stroke-width="3" d=" M0,23.885000228881836 C0,23.885000228881836 -67.5,-23.885000228881836 -67.5,-23.885000228881836 C-67.5,-23.885000228881836 67.5,-23.885000228881836 67.5,-23.885000228881836 C67.5,-23.885000228881836 0,23.885000228881836 0,23.885000228881836z"></path></g></g><g style="display: block;" transform="matrix(0,0,0,0,125,169.74000549316406)" opacity="1"><g opacity="1" transform="matrix(1,0,0,1,125,75.73999786376953)"><path fill="rgb(255,221,0)" fill-opacity="1" d=" M-0.09000000357627869,16.624000549316406 C-0.2709999978542328,16.624000549316406 -0.8159999847412109,16.437999725341797 -0.8159999847412109,16.437999725341797 C-4.806000232696533,14.371000289916992 -14.23900032043457,8.54699993133545 -17.5049991607666,-0.6579999923706055 C-18.048999786376953,-2.3480000495910645 -19.31999969482422,-9.29800033569336 -15.329000473022461,-13.618000030517578 C-12.970999717712402,-16.24799919128418 -10.793999671936035,-16.624000549316406 -9.342000007629395,-16.624000549316406 C-5.895999908447266,-16.624000549316406 -2.2669999599456787,-14.557999610900879 -0.09000000357627869,-11.552000045776367 C2.0869998931884766,-14.744999885559082 5.35099983215332,-16.624000549316406 9.16100025177002,-16.624000549316406 C10.612000465393066,-16.624000549316406 12.788999557495117,-16.24799919128418 15.329000473022461,-13.618000030517578 C19.319000244140625,-9.29800033569336 18.051000595092773,-2.1610000133514404 17.506999969482422,-0.6579999923706055 C14.241000175476074,8.734000205993652 4.625999927520752,14.371000289916992 0.8159999847412109,16.437999725341797 C0.453000009059906,16.625 0.09200000017881393,16.624000549316406 -0.09000000357627869,16.624000549316406z"></path></g></g><g style="display: block;" transform="matrix(0,0,0,0,125,169.74000549316406)" opacity="1"><g opacity="1" transform="matrix(1,0,0,1,125,75.73999786376953)"><path fill="rgb(255,221,0)" fill-opacity="1" d=" M-0.09000000357627869,16.624000549316406 C-0.2709999978542328,16.624000549316406 -0.8159999847412109,16.437999725341797 -0.8159999847412109,16.437999725341797 C-4.806000232696533,14.371000289916992 -14.23900032043457,8.54699993133545 -17.5049991607666,-0.6579999923706055 C-18.048999786376953,-2.3480000495910645 -19.31999969482422,-9.29800033569336 -15.329000473022461,-13.618000030517578 C-12.970999717712402,-16.24799919128418 -10.793999671936035,-16.624000549316406 -9.342000007629395,-16.624000549316406 C-5.895999908447266,-16.624000549316406 -2.2669999599456787,-14.557999610900879 -0.09000000357627869,-11.552000045776367 C2.0869998931884766,-14.744999885559082 5.35099983215332,-16.624000549316406 9.16100025177002,-16.624000549316406 C10.612000465393066,-16.624000549316406 12.788999557495117,-16.24799919128418 15.329000473022461,-13.618000030517578 C19.319000244140625,-9.29800033569336 18.051000595092773,-2.1610000133514404 17.506999969482422,-0.6579999923706055 C14.241000175476074,8.734000205993652 4.625999927520752,14.371000289916992 0.8159999847412109,16.437999725341797 C0.453000009059906,16.625 0.09200000017881393,16.624000549316406 -0.09000000357627869,16.624000549316406z"></path></g></g><g style="display: block;" transform="matrix(0,0,0,0,125,169.74000549316406)" opacity="1"><g opacity="1" transform="matrix(1,0,0,1,125,75.73999786376953)"><path fill="rgb(255,221,0)" fill-opacity="1" d=" M-0.09000000357627869,16.624000549316406 C-0.2709999978542328,16.624000549316406 -0.8159999847412109,16.437999725341797 -0.8159999847412109,16.437999725341797 C-4.806000232696533,14.371000289916992 -14.23900032043457,8.54699993133545 -17.5049991607666,-0.6579999923706055 C-18.048999786376953,-2.3480000495910645 -19.31999969482422,-9.29800033569336 -15.329000473022461,-13.618000030517578 C-12.970999717712402,-16.24799919128418 -10.793999671936035,-16.624000549316406 -9.342000007629395,-16.624000549316406 C-5.895999908447266,-16.624000549316406 -2.2669999599456787,-14.557999610900879 -0.09000000357627869,-11.552000045776367 C2.0869998931884766,-14.744999885559082 5.35099983215332,-16.624000549316406 9.16100025177002,-16.624000549316406 C10.612000465393066,-16.624000549316406 12.788999557495117,-16.24799919128418 15.329000473022461,-13.618000030517578 C19.319000244140625,-9.29800033569336 18.051000595092773,-2.1610000133514404 17.506999969482422,-0.6579999923706055 C14.241000175476074,8.734000205993652 4.625999927520752,14.371000289916992 0.8159999847412109,16.437999725341797 C0.453000009059906,16.625 0.09200000017881393,16.624000549316406 -0.09000000357627869,16.624000549316406z"></path></g></g><g style="display: block;" transform="matrix(1,0,0,1,0,0)" opacity="1"><g opacity="1" transform="matrix(1,0,0,1,125.2300033569336,165.69200134277344)"><path fill="rgb(255,255,255)" fill-opacity="1" d=" M0,-23.885000228881836 C0,-23.885000228881836 -67.5,23.885000228881836 -67.5,23.885000228881836 C-67.5,23.885000228881836 67.5,23.885000228881836 67.5,23.885000228881836 C67.5,23.885000228881836 0,-23.885000228881836 0,-23.885000228881836z"></path><path stroke-linecap="round" stroke-linejoin="round" fill-opacity="0" stroke="rgb(0,0,0)" stroke-opacity="1" stroke-width="3" d=" M0,-23.885000228881836 C0,-23.885000228881836 -67.5,23.885000228881836 -67.5,23.885000228881836 C-67.5,23.885000228881836 67.5,23.885000228881836 67.5,23.885000228881836 C67.5,23.885000228881836 0,-23.885000228881836 0,-23.885000228881836z"></path></g></g></g></svg>