<svg viewBox="0 0 32 33" fill="none" xmlns="http://www.w3.org/2000/svg"><path d="M13.0728 10.4911L18.0172 5.65243C19.5428 4.05983 21.8109 3.41758 23.945 3.97385C26.0791 4.53012 27.745 6.19779 28.2991 8.33248C28.8532 10.4672 28.2086 12.7346 26.6145 14.2585L21.8196 19.1974" stroke="#222222" stroke-width="1.5" stroke-linecap="round"></path><path d="M18.0139 23.036L13.0696 27.8779C11.537 29.44 9.2835 30.0587 7.16812 29.4981C5.05274 28.9374 3.40147 27.2838 2.84379 25.1677C2.28611 23.0515 2.90796 20.7989 4.47229 19.2685L9.26717 14.3296" stroke="#222222" stroke-width="1.5" stroke-linecap="round"></path><path d="M11.2031 21.0986L19.7839 12.5179" stroke="#222222" stroke-width="1.5" stroke-linecap="round"></path><path d="M20.5488 25.7881L20.8288 31.8794" stroke="#FFDD00" stroke-linecap="round"></path><path d="M22.8105 24.3721L27.194 28.6109" stroke="#FFDD00" stroke-linecap="round"></path><path d="M25.2383 22.1035L30.9998 24.1003" stroke="#FFDD00" stroke-linecap="round"></path><path d="M7.0293 11.0264L1.06877 9.74004" stroke="#FFDD00" stroke-linecap="round"></path><path d="M8.79883 9.03027L5.34569 4.00449" stroke="#FFDD00" stroke-linecap="round"></path><path d="M11.4395 7.0127L10.4258 0.999778" stroke="#FFDD00" stroke-linecap="round"></path></svg>