<svg viewBox="0 0 16 17" fill="none" xmlns="http://www.w3.org/2000/svg"><path class="paint-fill-22" d="M8.18 0.397461C10.6027 0.397461 12.5762 2.32052 12.6574 4.72344L12.66 4.87746L12.6605 5.89064C14.4764 6.19554 15.86 7.77492 15.86 9.67746V12.5575C15.86 14.6782 14.1408 16.3975 12.02 16.3975H4.34C2.21923 16.3975 0.5 14.6782 0.5 12.5575V9.67746C0.5 7.7747 1.88393 6.19517 3.70012 5.89053L3.7 4.87746C3.7 2.40323 5.70576 0.397461 8.18 0.397461Z" fill="#6E6D7A"></path><path class="paint-fill-ffd" d="M12.0212 7.11719H4.34125C2.97024 7.11719 1.85096 8.19493 1.78438 9.54942L1.78125 9.67719V12.5572C1.78125 13.9282 2.85899 15.0475 4.21348 15.1141L4.34125 15.1172H12.0212C13.3923 15.1172 14.5115 14.0394 14.5781 12.685L14.5812 12.5572V9.67719C14.5812 8.30618 13.5035 7.1869 12.149 7.12032L12.0212 7.11719Z" fill="#f9f9f9"></path><path class="paint-fill-22" d="M9.43862 9.19727C9.60761 9.19727 9.86113 9.24066 10.1569 9.54438C10.6216 10.0434 10.4738 10.8678 10.4104 11.0413C10.0301 12.1261 8.91046 12.7769 8.46683 13.0156C8.42459 13.0373 8.38233 13.0373 8.36121 13.0373C8.34713 13.0373 8.31896 13.03 8.27671 13.0156C7.81194 12.7769 6.7134 12.1044 6.33314 11.0413L6.30984 10.955C6.24447 10.6715 6.17353 9.98792 6.58665 9.54438C6.86128 9.24066 7.11479 9.19727 7.2838 9.19727C7.68518 9.19727 8.10769 9.43591 8.36121 9.78303C8.61471 9.41421 8.99498 9.19727 9.43862 9.19727Z" fill="#6E6D7A"></path><path d="M8.18047 1.67773C6.45967 1.67773 5.05611 3.03601 4.98343 4.73892L4.98047 4.87773V5.83773H11.3805V4.87773C11.3805 3.20473 10.0966 1.83159 8.46037 1.68981L8.31928 1.68069L8.18047 1.67773Z" fill="#f9f9f9"></path></svg>