<svg viewBox="0 0 24 24" version="1.1" xmlns="http://www.w3.org/2000/svg" xmlns:xlink="http://www.w3.org/1999/xlink"><g id="Page-1" stroke="none" stroke-width="1" fill="none" fill-rule="evenodd"><g id="posts" fill-rule="nonzero"><path class="paint-fill-22" d="M16,0 C20.418278,0 24,3.581722 24,8 L24,16 C24,20.418278 20.418278,24 16,24 L8,24 C3.581722,24 0,20.418278 0,16 L0,8 C0,3.581722 3.581722,0 8,0 L16,0 Z" id="Path" fill="#6E6D7A"></path><path class="paint-fill-ffd" d="M16,2 L8,2 C4.76160306,2 2.12242824,4.56557489 2.00413847,7.77506174 L2,8 L2,16 C2,19.2383969 4.56557489,21.8775718 7.77506174,21.9958615 L8,22 L16,22 C19.2383969,22 21.8775718,19.4344251 21.9958615,16.2249383 L22,16 L22,8 C22,4.76160306 19.4344251,2.12242824 16.2249383,2.00413847 L16,2 Z" id="Path" fill="#f9f9f9"></path><rect class="paint-fill-22" id="Rectangle" fill="#6E6D7A" x="5.5" y="6" width="6.5" height="2.5" rx="1.25"></rect><rect class="paint-fill-22" id="Rectangle-Copy" fill="#6E6D7A" x="5.5" y="11" width="13" height="2.5" rx="1.25"></rect><rect class="paint-fill-22" id="Rectangle-Copy-2" fill="#6E6D7A" x="5.5" y="16" width="13" height="2.5" rx="1.25"></rect></g></g></svg>