<svg width="20" height="20" viewBox="0 0 19 25" fill="none" xmlns="http://www.w3.org/2000/svg"><path fill-rule="evenodd" clip-rule="evenodd" d="M1.33542 24.4722C5.36445 25.2382 9.41186 24.959 13.4651 24.6794L13.4653 24.6794C14.3274 24.6199 15.1897 24.5604 16.0522 24.5109C16.6957 24.474 17.0709 24.0396 17.1401 23.4231C17.3693 21.3777 17.3915 19.3142 17.4137 17.2517V17.2517V17.2517C17.4399 14.8094 17.4661 12.3686 17.8362 9.96117C18.2626 7.18813 18.3001 4.56085 16.1231 2.51749C13.525 0.0784369 9.72363 0.129546 6.10596 0.178186C4.46765 0.200213 2.86702 0.221733 1.43286 0.0112463C1.30494 -0.00747366 1.18654 -0.000913664 1.07302 0.0169263C0.563503 0.0582063 0.0748627 0.403726 0.0561427 1.05989C-0.108186 6.81004 0.118587 12.5537 0.345371 18.2977C0.412816 20.0059 0.480263 21.7142 0.537423 23.4227C0.551743 23.8787 0.853743 24.3808 1.33542 24.4722ZM12.4611 2.98535C13.0363 3.17815 13.5963 3.41919 14.1332 3.73247C15.4229 4.48479 15.8507 5.66183 15.9185 6.95895L15.8894 6.96272C15.8474 6.96805 15.8052 6.9734 15.761 6.98503C14.4217 7.34839 13.0945 7.52023 11.7422 7.37319C11.849 6.67804 11.9668 5.98459 12.0847 5.29109C12.2151 4.52335 12.3456 3.75555 12.4611 2.98535ZM5.54988 2.29938C4.42063 2.30813 3.29733 2.31684 2.20793 2.24512C2.10206 7.65195 2.31295 13.0535 2.52385 18.4551C2.57654 19.8044 2.62922 21.1538 2.67697 22.5033C6.17361 23.045 9.72003 22.7847 13.2461 22.5258C13.849 22.4815 14.4514 22.4373 15.0528 22.3971C15.1872 20.7139 15.2024 19.0246 15.2176 17.336C15.2354 15.3504 15.2533 13.3659 15.4649 11.3937C15.5105 10.9694 15.5803 10.5168 15.6522 10.05C15.6942 9.77765 15.7369 9.50042 15.776 9.22112C13.9376 9.65016 12.1001 9.73712 10.2303 9.32248C9.80649 9.228 9.37177 8.72808 9.43185 8.27336C9.56512 7.26601 9.73832 6.26507 9.91151 5.26418C10.0708 4.3437 10.23 3.42326 10.3582 2.49792C8.79808 2.27421 7.16788 2.28684 5.54988 2.29938Z" fill="#717171"></path></svg>