<svg viewBox="0 0 34 38" fill="none" xmlns="http://www.w3.org/2000/svg"><ellipse cx="17" cy="28" rx="16" ry="9" fill="white" stroke="#222222" stroke-width="1.5"></ellipse><rect x="1" y="12" width="32" height="16" fill="white"></rect><ellipse cx="17" cy="10" rx="16" ry="9" fill="#FFDD00" stroke="#222222" stroke-width="1.5"></ellipse><path d="M18.5132 11.4914C18.5698 11.2198 18.4482 10.983 18.1484 10.7809C17.8486 10.5788 17.3396 10.4019 16.6213 10.2503C15.9086 10.0956 15.3401 9.92192 14.9159 9.72929C14.0788 9.34719 13.6999 8.84666 13.779 8.22771C13.8413 7.70982 14.175 7.28192 14.7802 6.94403C15.391 6.60298 16.197 6.39613 17.1982 6.3235L17.5291 5.28613H18.7678L18.4284 6.33771C19.2655 6.42929 19.8877 6.66613 20.2949 7.04824C20.7078 7.42719 20.8718 7.91982 20.787 8.52613H19.2683C19.3136 8.06192 19.1891 7.70666 18.895 7.46034C18.6066 7.21087 18.1795 7.0814 17.6139 7.07192C16.9748 7.06561 16.4459 7.16666 16.0274 7.37508C15.6145 7.58034 15.3741 7.85824 15.3062 8.20876C15.2553 8.48034 15.3599 8.71403 15.6201 8.90982C15.886 9.10561 16.4063 9.29034 17.1812 9.46403C17.9561 9.63455 18.5443 9.81455 18.9459 10.004C19.3475 10.1903 19.6388 10.4051 19.8198 10.6482C20.0064 10.8914 20.08 11.1693 20.0404 11.4819C19.9669 12.0219 19.6049 12.4577 18.9544 12.7893C18.3096 13.1209 17.4527 13.3182 16.3837 13.3814L16.0952 14.2861H14.865L15.162 13.3719C14.2344 13.2961 13.533 13.0735 13.0579 12.704C12.5828 12.3346 12.3763 11.8561 12.4385 11.2688H13.9742C13.912 11.6824 14.0449 12.0124 14.3729 12.2588C14.7067 12.5051 15.2072 12.6314 15.8746 12.6377C16.593 12.644 17.1925 12.543 17.6733 12.3346C18.1597 12.123 18.4397 11.8419 18.5132 11.4914Z" fill="#222222"></path><path d="M1 28V10" stroke="#222222" stroke-width="1.5"></path><path d="M33 28V10" stroke="#222222" stroke-width="1.5"></path><path d="M33 16C33 20.9706 25.8366 25 17 25C8.16344 25 1 20.9706 1 16" stroke="#222222" stroke-width="1.5"></path><path d="M33 22C33 26.9706 25.8366 31 17 31C8.16344 31 1 26.9706 1 22" stroke="#222222" stroke-width="1.5"></path></svg>