<svg class="paypal-svg" viewBox="0 0 168 44" fill="none" xmlns="http://www.w3.org/2000/svg"> <path d="M129.867 11.7334H120.8C120.267 11.7334 119.733 12.2667 119.467 12.8001L115.733 36.2667C115.733 36.8001 116 37.0667 116.533 37.0667H121.333C121.867 37.0667 122.133 36.8001 122.133 36.2667L123.2 29.6001C123.2 29.0667 123.733 28.5334 124.533 28.5334H127.467C133.6 28.5334 137.067 25.6001 137.867 19.7334C138.4 17.3334 137.867 15.2001 136.8 13.8667C135.2 12.5334 132.8 11.7334 129.867 11.7334ZM130.933 20.5334C130.4 23.7334 128 23.7334 125.6 23.7334H124L125.067 17.6001C125.067 17.3334 125.333 17.0667 125.867 17.0667H126.4C128 17.0667 129.6 17.0667 130.4 18.1334C130.933 18.4001 130.933 19.2001 130.933 20.5334Z" fill="#139AD6"></path> <path d="M64.5332 11.7334H55.4666C54.9332 11.7334 54.3999 12.2667 54.1332 12.8001L50.3999 36.2667C50.3999 36.8001 50.6666 37.0667 51.1999 37.0667H55.4666C55.9999 37.0667 56.5332 36.5334 56.7999 36.0001L57.8666 29.6001C57.8666 29.0667 58.3999 28.5334 59.1999 28.5334H62.1332C68.2666 28.5334 71.7332 25.6001 72.5332 19.7334C73.0666 17.3334 72.5332 15.2001 71.4666 13.8667C69.8666 12.5334 67.7332 11.7334 64.5332 11.7334ZM65.5999 20.5334C65.0666 23.7334 62.6666 23.7334 60.2666 23.7334H58.9332L59.9999 17.6001C59.9999 17.3334 60.2666 17.0667 60.7999 17.0667H61.3332C62.9332 17.0667 64.5332 17.0667 65.3332 18.1334C65.5999 18.4001 65.8666 19.2001 65.5999 20.5334Z" fill="#263B80"></path> <path d="M91.9998 20.2667H87.7332C87.4665 20.2667 86.9332 20.5334 86.9332 20.8001L86.6665 22.1334L86.3998 21.6001C85.3332 20.2667 83.4665 19.7334 81.3332 19.7334C76.5332 19.7334 72.2665 23.4667 71.4665 28.5334C70.9332 31.2001 71.7332 33.6001 73.0665 35.2001C74.3998 36.8001 76.2665 37.3334 78.6665 37.3334C82.6665 37.3334 84.7998 34.9334 84.7998 34.9334L84.5332 36.2667C84.5332 36.8001 84.7998 37.0667 85.3332 37.0667H89.3332C89.8665 37.0667 90.3998 36.5334 90.6665 36.0001L93.0665 21.0667C92.7998 20.8001 92.2665 20.2667 91.9998 20.2667ZM85.8665 28.8001C85.3332 31.2001 83.4665 33.0667 80.7998 33.0667C79.4665 33.0667 78.3998 32.5334 77.8665 32.0001C77.3332 31.2001 77.0665 30.1334 77.0665 28.8001C77.3332 26.4001 79.4665 24.5334 81.8665 24.5334C83.1998 24.5334 83.9998 25.0667 84.7998 25.6001C85.5998 26.4001 85.8665 27.7334 85.8665 28.8001Z" fill="#263B80"></path> <path d="M157.067 20.2667H152.8C152.533 20.2667 152 20.5334 152 20.8001L151.733 22.1334L151.467 21.6001C150.4 20.2667 148.533 19.7334 146.4 19.7334C141.6 19.7334 137.333 23.4667 136.533 28.5334C136 31.2001 136.8 33.6001 138.133 35.2001C139.467 36.8001 141.333 37.3334 143.733 37.3334C147.733 37.3334 149.867 34.9334 149.867 34.9334L149.6 36.2667C149.6 36.8001 149.867 37.0667 150.4 37.0667H154.4C154.933 37.0667 155.467 36.5334 155.733 36.0001L158.133 21.0667C157.867 20.8001 157.6 20.2667 157.067 20.2667ZM150.933 28.8001C150.4 31.2001 148.533 33.0667 145.867 33.0667C144.533 33.0667 143.467 32.5334 142.933 32.0001C142.4 31.2001 142.133 30.1334 142.133 28.8001C142.4 26.4001 144.533 24.5334 146.933 24.5334C148.267 24.5334 149.067 25.0667 149.867 25.6001C150.933 26.4001 151.2 27.7334 150.933 28.8001Z" fill="#139AD6"></path> <path d="M115.2 20.2666H110.667C110.133 20.2666 109.867 20.5333 109.6 20.7999L103.733 29.8666L101.067 21.3333C100.8 20.7999 100.533 20.5333 99.7334 20.5333H95.4667C94.9334 20.5333 94.6667 21.0666 94.6667 21.5999L99.4667 35.7333L94.9334 42.1333C94.6667 42.6666 94.9334 43.4666 95.4667 43.4666H99.7334C100.267 43.4666 100.533 43.1999 100.8 42.9333L115.467 21.8666C116.267 21.0666 115.733 20.2666 115.2 20.2666Z" fill="#263B80"></path> <path d="M162.133 12.5332L158.4 36.5332C158.4 37.0665 158.667 37.3332 159.2 37.3332H162.933C163.467 37.3332 164 36.7999 164.267 36.2665L168 12.7999C168 12.2665 167.733 11.9999 167.2 11.9999H162.933C162.667 11.7332 162.4 11.9999 162.133 12.5332Z" fill="#139AD6"></path> <path d="M30.6667 3.73344C28.8 1.60011 25.3333 0.533447 20.5333 0.533447H7.2C6.4 0.533447 5.6 1.33344 5.33333 2.13344L0 37.0668C0 37.8668 0.533333 38.4001 1.06667 38.4001H9.33333L11.4667 25.3334V25.8668C11.7333 25.0668 12.5333 24.2668 13.3333 24.2668H17.3333C25.0667 24.2668 30.9333 21.0668 32.8 12.2668C32.8 12.0001 32.8 11.7334 32.8 11.4668C32.5333 11.4668 32.5333 11.4668 32.8 11.4668C33.0667 8.00011 32.5333 5.86678 30.6667 3.73344Z" fill="#263B80"></path> <path d="M32.5333 11.4666C32.5333 11.7332 32.5333 11.9999 32.5333 12.2666C30.6667 21.3332 24.8 24.2666 17.0667 24.2666H13.0667C12.2667 24.2666 11.4667 25.0666 11.2 25.8666L8.53333 42.1332C8.53333 42.6666 8.79999 43.1999 9.59999 43.1999H16.5333C17.3333 43.1999 18.1333 42.6666 18.1333 41.8666V41.5999L19.4667 33.3332V32.7999C19.4667 31.9999 20.2667 31.4666 21.0667 31.4666H22.1333C28.8 31.4666 34.1333 28.7999 35.4667 20.7999C36 17.5999 35.7333 14.6666 34.1333 12.7999C33.8667 12.2666 33.3333 11.7332 32.5333 11.4666Z" fill="#139AD6"></path> <path d="M30.6667 10.6667C30.4 10.6667 30.1333 10.4 29.8667 10.4C29.6 10.4 29.3333 10.4 29.0667 10.1334C28 9.8667 26.9333 9.8667 25.6 9.8667H15.2C14.9333 9.8667 14.6667 9.8667 14.4 10.1334C13.8667 10.4 13.6 10.9334 13.6 11.4667L11.4667 25.3334V25.8667C11.7333 25.0667 12.5333 24.2667 13.3333 24.2667H17.3333C25.0667 24.2667 30.9333 21.0667 32.8 12.2667C32.8 12 32.8 11.7334 33.0667 11.4667C32.5333 11.2 32.2667 10.9334 31.7333 10.9334C30.9333 10.6667 30.9333 10.6667 30.6667 10.6667Z" fill="#232C65"></path> </svg>