<svg width="20" height="20" viewBox="0 0 40 59" fill="none" xmlns="http://www.w3.org/2000/svg"><rect x="1.07227" y="56.8213" width="38.9279" height="2.1442" fill="#717171"></rect><path d="M27.4717 14.7551L38.0006 18.5383L38.3314 17.617C40.2201 12.3647 37.4814 6.55645 32.2309 4.66957L20.9025 0.599416C19.7971 0.201652 18.646 0 17.4807 0C13.2231 0 9.39564 2.69257 7.95545 6.70049L7.62454 7.62177L18.8982 11.6724C19.1813 11.7747 19.3279 12.0869 19.2271 12.3689C19.1276 12.6437 18.8131 12.7986 18.5309 12.6978L7.2565 8.64591L5.46084 13.6434L16.7345 17.6944C17.0176 17.7961 17.1644 18.1084 17.0634 18.3906C16.9635 18.6655 16.6475 18.8205 16.3672 18.7196L5.09355 14.6678L3.29789 19.6653L14.5716 23.7162C14.8546 23.8182 15.0014 24.1303 14.9004 24.4133C14.8015 24.6881 14.4864 24.8442 14.2043 24.7413L2.92912 20.6894L1.13438 25.6875L12.4075 29.7381C12.5447 29.787 12.6542 29.8873 12.7168 30.0192C12.7785 30.1501 12.7857 30.2984 12.7364 30.435C12.6374 30.7094 12.3205 30.8645 12.0402 30.763L0.740862 26.7026L0.441523 27.687C-0.999031 32.4174 1.19125 37.4022 5.47118 39.608V47.7453L5.49741 47.7549L5.47118 58.9654H12.4719L12.5886 50.4056L12.6202 50.4179L20.6787 44.7859C20.9302 44.8042 21.1817 44.8175 21.4342 44.8175C25.5296 44.8175 29.1946 42.3714 30.7715 38.5858L31.1674 37.6363L20.6137 33.842C20.4771 33.7942 20.3681 33.6947 20.305 33.5628C20.2437 33.4308 20.237 33.2825 20.2848 33.1459C20.3823 32.8715 20.7009 32.7156 20.9812 32.817L31.5099 36.6005L33.3058 31.6034L22.7769 27.8196C22.6402 27.7709 22.5313 27.671 22.469 27.5395C22.4079 27.4086 22.4001 27.2597 22.4491 27.1225C22.5475 26.8481 22.8649 26.6928 23.1453 26.7946L33.6742 30.5774L35.4698 25.58L24.9411 21.7969C24.6591 21.6951 24.5118 21.3823 24.6131 21.0998C24.7116 20.8253 25.0281 20.671 25.3093 20.7712L35.8373 24.555L37.633 19.5575L27.1052 15.7743C26.9685 15.725 26.8594 15.6262 26.7962 15.4941C26.7351 15.3615 26.7285 15.2138 26.7763 15.0777C26.8731 14.8087 27.1905 14.6543 27.4717 14.7551ZM34.6557 22.0558L25.9704 18.9337C24.7027 18.4796 23.2223 19.1804 22.7691 20.4435C22.3015 21.7429 22.9796 23.1783 24.278 23.6453L32.9642 26.7669L32.4927 28.0784L23.8065 24.9568C22.5386 24.4985 21.0593 25.2026 20.6061 26.4657C20.3794 27.0948 20.4121 27.7748 20.697 28.3801C20.9829 28.9849 21.4857 29.4425 22.115 29.6672L30.8012 32.7891L30.3298 34.1002L21.6436 30.9792C20.3757 30.5201 18.8954 31.2259 18.4423 32.4881C18.2161 33.1172 18.2482 33.7961 18.5331 34.4005C18.8179 35.0056 19.3226 35.4638 19.9512 35.6885L28.5062 38.7635C27.0653 41.2832 24.3879 42.8628 21.4333 42.8628C20.4961 42.8628 19.57 42.7001 18.6803 42.3799L7.35216 38.3094C3.58763 36.9564 1.41359 33.1143 2.07487 29.2661L11.3769 32.6085C12.6477 33.0674 14.125 32.3618 14.5788 31.0996C14.805 30.4705 14.7723 29.7915 14.4873 29.1858C14.2024 28.5804 13.6988 28.1234 13.0697 27.8972L3.63822 24.5084L4.10911 23.197L13.5406 26.5863C14.8124 27.0452 16.2897 26.3381 16.7424 25.0774C17.2089 23.7788 16.5316 22.3427 15.2336 21.8755L5.8021 18.4862L6.27299 17.1751L15.7045 20.5641C16.9753 21.0235 18.4526 20.3173 18.9063 19.0552C19.3733 17.7572 18.6964 16.3203 17.3974 15.8533L7.96598 12.4646L8.43687 11.1536L17.8674 14.5424C19.1392 15 20.6156 14.2977 21.0698 13.0335C21.5374 11.7355 20.8593 10.2986 19.5613 9.83163L10.1858 6.46246C11.5566 3.73351 14.3778 1.95909 17.4817 1.95909C18.4197 1.95909 19.3486 2.12178 20.2407 2.4429L31.5681 6.51343C33.621 7.25079 35.2619 8.74286 36.1922 10.716C36.9811 12.3894 37.1761 14.2397 36.7669 16.0149L28.1352 12.9138C26.8664 12.4568 25.388 13.1596 24.9339 14.4227C24.7071 15.0524 24.7396 15.7309 25.0246 16.3362C25.3095 16.9415 25.8135 17.3986 26.4428 17.6237L35.128 20.7452L34.6557 22.0558ZM12.5573 48.0742L7.42769 46.288V41.1215L18.0358 44.2434L12.5573 48.0742ZM10.6381 49.6806L10.5381 57.0108H7.43249L7.45206 48.4891V48.3715L10.6401 49.4808L10.6381 49.6806Z" fill="#717171"></path></svg>