<svg class="xs-wid" width="106" height="26" viewBox="0 0 106 26" fill="none" xmlns="http://www.w3.org/2000/svg"><circle cx="13.6642" cy="12.6716" r="12.6716" fill="#222222" fill-opacity="0.5"></circle><path fill-rule="evenodd" clip-rule="evenodd" d="M9.22925 6.33582H15.3538C17.8033 6.33582 19.7889 8.32145 19.7889 10.7709C19.7889 13.2203 17.8033 15.2059 15.3538 15.2059H11.7636V19.0074H9.22925V6.33582ZM11.7637 12.6717H15.354C16.4037 12.6717 17.2547 11.8207 17.2547 10.771C17.2547 9.72127 16.4037 8.87027 15.354 8.87027H11.7637V12.6717Z" fill="white"></path><path fill-rule="evenodd" clip-rule="evenodd" d="M30.5596 8.44812V16.8958H32.3263V13.7854H34.4406C36.2326 13.7854 37.2275 12.5662 37.2275 11.1231C37.2275 9.66734 36.2448 8.44812 34.4406 8.44812H30.5596ZM34.1947 10.003C34.8907 10.003 35.4266 10.426 35.4266 11.1229C35.4266 11.8072 34.8907 12.2301 34.1947 12.2301H32.3287V10.003H34.1947Z" fill="#222222" fill-opacity="0.5"></path><path d="M38.303 16.8957V10.7369H39.8823V11.5458C40.3179 11.0231 41.0523 10.5879 41.799 10.5879V12.1302C41.6865 12.1054 41.5498 12.0933 41.3634 12.0933C40.8407 12.0933 40.1436 12.3916 39.8823 12.7775V16.8957H38.303Z" fill="#222222" fill-opacity="0.5"></path><path fill-rule="evenodd" clip-rule="evenodd" d="M45.571 10.5881C43.5926 10.5881 42.3982 12.0312 42.3982 13.7356C42.3982 15.4401 43.5925 16.8958 45.571 16.8958C47.5616 16.8958 48.756 15.4401 48.756 13.7356C48.756 12.0312 47.5616 10.5881 45.571 10.5881ZM45.5709 11.9939C46.5657 11.9939 47.1137 12.8027 47.1137 13.7358C47.1137 14.6815 46.5657 15.4898 45.5709 15.4898C44.5871 15.4898 44.0401 14.6815 44.0401 13.7358C44.0401 12.8027 44.5872 11.9939 45.5709 11.9939Z" fill="#222222" fill-opacity="0.5"></path><path fill-rule="evenodd" clip-rule="evenodd" d="M54.073 15.9749V16.8957H55.6655V8.448H54.073V11.5084C53.6 10.8863 52.9283 10.588 52.2192 10.588C50.6895 10.588 49.5569 11.7824 49.5569 13.7355C49.5569 15.7509 50.7138 16.8957 52.2192 16.8957C52.9536 16.8957 53.6 16.5721 54.073 15.9749ZM54.074 12.6781V14.8055C53.8126 15.2036 53.2403 15.4897 52.7175 15.4898C51.8098 15.4898 51.1878 14.7808 51.1878 13.7358C51.1878 12.7029 51.8098 11.9939 52.7175 11.9939C53.2403 11.9939 53.8126 12.28 54.074 12.6781Z" fill="#222222" fill-opacity="0.5"></path><path d="M61.293 16.8957V15.9874C60.8828 16.4352 60.1614 16.8957 59.1788 16.8957C57.8598 16.8957 57.2378 16.1739 57.2378 15.0043V10.7369H58.8171V14.3823C58.8171 15.216 59.2527 15.4896 59.9244 15.4896C60.5342 15.4896 61.0195 15.1538 61.293 14.8053V10.737H62.8734V16.8957H61.293Z" fill="#222222" fill-opacity="0.5"></path><path d="M64.0588 13.7356C64.0588 11.8945 65.4021 10.5881 67.2438 10.5881C68.4757 10.5881 69.2223 11.123 69.6204 11.6706L68.5871 12.6406C68.3015 12.2177 67.8658 11.9938 67.3188 11.9938C66.3605 11.9938 65.6888 12.6908 65.6888 13.7358C65.6888 14.7807 66.3604 15.4898 67.3188 15.4898C67.8658 15.4898 68.3015 15.2411 68.5871 14.8304L69.6204 15.8009C69.2223 16.3484 68.4756 16.896 67.2438 16.896C65.4021 16.8958 64.0588 15.5895 64.0588 13.7356Z" fill="#222222" fill-opacity="0.5"></path><path d="M70.9794 15.2409V12.1182H69.9846V10.7369H70.9794V9.09479H72.5598V10.7369H73.7785V12.1182H72.5598V14.818C72.5598 15.2034 72.7583 15.4896 73.1068 15.4896C73.3428 15.4896 73.5677 15.4025 73.6538 15.3032L73.9901 16.5098C73.7541 16.7215 73.3307 16.8957 72.6711 16.8957C71.564 16.8957 70.9794 16.3234 70.9794 15.2409Z" fill="#222222" fill-opacity="0.5"></path><path d="M83.8997 16.8957V13.2503H79.9803V16.8957H78.2146V8.448H79.9803V11.7074H83.8997V8.448H85.6786V16.8957H83.8997Z" fill="#222222" fill-opacity="0.5"></path><path d="M91.3316 16.8957V15.9874C90.9213 16.4352 90.2 16.8957 89.2173 16.8957C87.8983 16.8957 87.2764 16.1739 87.2764 15.0043V10.7369H88.8557V14.3823C88.8557 15.216 89.2913 15.4896 89.963 15.4896C90.5728 15.4896 91.0581 15.1538 91.3316 14.8053V10.737H92.9119V16.8957H91.3316Z" fill="#222222" fill-opacity="0.5"></path><path d="M98.5389 16.8957V13.1135C98.5389 12.2799 98.1042 11.9936 97.4316 11.9936C96.8096 11.9936 96.3375 12.3421 96.0629 12.6905V16.8957H94.4836V10.7369H96.0629V11.5083C96.4489 11.0605 97.1955 10.5879 98.166 10.5879C99.4971 10.5879 100.131 11.334 100.131 12.5035V16.8957H98.5389Z" fill="#222222" fill-opacity="0.5"></path><path d="M102.013 15.2409V12.1182H101.018V10.7369H102.013V9.09479H103.593V10.7369H104.812V12.1182H103.593V14.818C103.593 15.2034 103.792 15.4896 104.14 15.4896C104.376 15.4896 104.601 15.4025 104.689 15.3032L105.024 16.5098C104.788 16.7215 104.364 16.8957 103.705 16.8957C102.598 16.8957 102.013 16.3234 102.013 15.2409Z" fill="#222222" fill-opacity="0.5"></path></svg>