<svg xmlns="http://www.w3.org/2000/svg" viewBox="0 0 250 250" width="250" height="250" style="width: 100%; height: 100%; transform: translate3d(0px, 0px, 0px);" preserveAspectRatio="xMidYMid meet"><defs><clipPath id="__lottie_element_4"><rect width="250" height="250" x="0" y="0"></rect></clipPath><clipPath id="__lottie_element_9"><path d="M0,0 L250,0 L250,250 L0,250z"></path></clipPath><clipPath id="__lottie_element_16"><path d="M0,0 L250,0 L250,250 L0,250z"></path></clipPath></defs><g clip-path="url(#__lottie_element_4)"><g style="display: block;" transform="matrix(0,0,0,0,137.51699829101562,131)" opacity="3.4741508756042097e-7"><g opacity="1" transform="matrix(1,0,0,1,168.51699829101562,125)"><path fill="rgb(255,221,0)" fill-opacity="1" d=" M-0.04699999839067459,8.763999938964844 C-0.14300000667572021,8.763999938964844 -0.4300000071525574,8.664999961853027 -0.4300000071525574,8.664999961853027 C-2.5329999923706055,7.577000141143799 -7.506999969482422,4.505000114440918 -9.229000091552734,-0.34700000286102295 C-9.515000343322754,-1.2380000352859497 -10.1850004196167,-4.9029998779296875 -8.079999923706055,-7.179999828338623 C-6.836999893188477,-8.567000389099121 -5.690000057220459,-8.763999938964844 -4.925000190734863,-8.763999938964844 C-3.1080000400543213,-8.763999938964844 -1.194000005722046,-7.673999786376953 -0.04699999839067459,-6.090000152587891 C1.100000023841858,-7.77400016784668 2.822000026702881,-8.763999938964844 4.829999923706055,-8.763999938964844 C5.5960001945495605,-8.763999938964844 6.743000030517578,-8.567000389099121 8.081999778747559,-7.179999828338623 C10.185999870300293,-4.9029998779296875 9.515999794006348,-1.1390000581741333 9.229000091552734,-0.34700000286102295 C7.507999897003174,4.604000091552734 2.438999891281128,7.577000141143799 0.4309999942779541,8.664999961853027 C0.23999999463558197,8.765000343322754 0.04899999871850014,8.763999938964844 -0.04699999839067459,8.763999938964844z"></path></g></g><g style="display: block;" transform="matrix(0,0,0,0,137.51699829101562,131)" opacity="6.358744920476056e-7"><g opacity="1" transform="matrix(1,0,0,1,168.51699829101562,125)"><path fill="rgb(255,221,0)" fill-opacity="1" d=" M-0.04699999839067459,8.763999938964844 C-0.14300000667572021,8.763999938964844 -0.4300000071525574,8.664999961853027 -0.4300000071525574,8.664999961853027 C-2.5329999923706055,7.577000141143799 -7.506999969482422,4.505000114440918 -9.229000091552734,-0.34700000286102295 C-9.515000343322754,-1.2380000352859497 -10.1850004196167,-4.9029998779296875 -8.079999923706055,-7.179999828338623 C-6.836999893188477,-8.567000389099121 -5.690000057220459,-8.763999938964844 -4.925000190734863,-8.763999938964844 C-3.1080000400543213,-8.763999938964844 -1.194000005722046,-7.673999786376953 -0.04699999839067459,-6.090000152587891 C1.100000023841858,-7.77400016784668 2.822000026702881,-8.763999938964844 4.829999923706055,-8.763999938964844 C5.5960001945495605,-8.763999938964844 6.743000030517578,-8.567000389099121 8.081999778747559,-7.179999828338623 C10.185999870300293,-4.9029998779296875 9.515999794006348,-1.1390000581741333 9.229000091552734,-0.34700000286102295 C7.507999897003174,4.604000091552734 2.438999891281128,7.577000141143799 0.4309999942779541,8.664999961853027 C0.23999999463558197,8.765000343322754 0.04899999871850014,8.763999938964844 -0.04699999839067459,8.763999938964844z"></path></g></g><g clip-path="url(#__lottie_element_16)" style="display: block;" transform="matrix(1,0,0,1,-22,-14)" opacity="1"><g style="display: block;" transform="matrix(0,0,0,0,137.51699829101562,131)" opacity="0.0000010108265119868066"><g opacity="1" transform="matrix(1,0,0,1,168.51699829101562,125)"><path fill="rgb(255,221,0)" fill-opacity="1" d=" M-0.04699999839067459,8.763999938964844 C-0.14300000667572021,8.763999938964844 -0.4300000071525574,8.664999961853027 -0.4300000071525574,8.664999961853027 C-2.5329999923706055,7.577000141143799 -7.506999969482422,4.505000114440918 -9.229000091552734,-0.34700000286102295 C-9.515000343322754,-1.2380000352859497 -10.1850004196167,-4.9029998779296875 -8.079999923706055,-7.179999828338623 C-6.836999893188477,-8.567000389099121 -5.690000057220459,-8.763999938964844 -4.925000190734863,-8.763999938964844 C-3.1080000400543213,-8.763999938964844 -1.194000005722046,-7.673999786376953 -0.04699999839067459,-6.090000152587891 C1.100000023841858,-7.77400016784668 2.822000026702881,-8.763999938964844 4.829999923706055,-8.763999938964844 C5.5960001945495605,-8.763999938964844 6.743000030517578,-8.567000389099121 8.081999778747559,-7.179999828338623 C10.185999870300293,-4.9029998779296875 9.515999794006348,-1.1390000581741333 9.229000091552734,-0.34700000286102295 C7.507999897003174,4.604000091552734 2.438999891281128,7.577000141143799 0.4309999942779541,8.664999961853027 C0.23999999463558197,8.765000343322754 0.04899999871850014,8.763999938964844 -0.04699999839067459,8.763999938964844z"></path></g></g></g><g clip-path="url(#__lottie_element_9)" style="display: block;" transform="matrix(0.8299999833106995,0,0,0.8299999833106995,-0.75,26.25)" opacity="1"><g style="display: block;" transform="matrix(0,0,0,0,137.51699829101562,131)" opacity="0.0000010108265119868066"><g opacity="1" transform="matrix(1,0,0,1,168.51699829101562,125)"><path fill="rgb(255,221,0)" fill-opacity="1" d=" M-0.04699999839067459,8.763999938964844 C-0.14300000667572021,8.763999938964844 -0.4300000071525574,8.664999961853027 -0.4300000071525574,8.664999961853027 C-2.5329999923706055,7.577000141143799 -7.506999969482422,4.505000114440918 -9.229000091552734,-0.34700000286102295 C-9.515000343322754,-1.2380000352859497 -10.1850004196167,-4.9029998779296875 -8.079999923706055,-7.179999828338623 C-6.836999893188477,-8.567000389099121 -5.690000057220459,-8.763999938964844 -4.925000190734863,-8.763999938964844 C-3.1080000400543213,-8.763999938964844 -1.194000005722046,-7.673999786376953 -0.04699999839067459,-6.090000152587891 C1.100000023841858,-7.77400016784668 2.822000026702881,-8.763999938964844 4.829999923706055,-8.763999938964844 C5.5960001945495605,-8.763999938964844 6.743000030517578,-8.567000389099121 8.081999778747559,-7.179999828338623 C10.185999870300293,-4.9029998779296875 9.515999794006348,-1.1390000581741333 9.229000091552734,-0.34700000286102295 C7.507999897003174,4.604000091552734 2.438999891281128,7.577000141143799 0.4309999942779541,8.664999961853027 C0.23999999463558197,8.765000343322754 0.04899999871850014,8.763999938964844 -0.04699999839067459,8.763999938964844z"></path></g></g></g><g style="display: block;" transform="matrix(1,0,0,1,0,0)" opacity="1"><g opacity="1" transform="matrix(1,0,0,1,94.21600341796875,160.51800537109375)"><path fill="rgb(255,255,255)" fill-opacity="1" d=" M1.465000033378601,14.439000129699707 C1.465000033378601,14.439000129699707 -9.187999725341797,14.439000129699707 -9.187999725341797,14.439000129699707 C-9.187999725341797,14.439000129699707 -9.187999725341797,-14.437999725341797 -9.187999725341797,-14.437999725341797 C-9.187999725341797,-14.437999725341797 9.187999725341797,-14.437999725341797 9.187999725341797,-14.437999725341797 C9.187999725341797,-14.437999725341797 6.729000091552734,10.038000106811523 6.729000091552734,10.038000106811523 C6.479000091552734,12.531000137329102 4.196000099182129,14.439000129699707 1.465000033378601,14.439000129699707z"></path><path stroke-linecap="round" stroke-linejoin="round" fill-opacity="0" stroke="rgb(0,0,0)" stroke-opacity="1" stroke-width="2" d=" M1.465000033378601,14.439000129699707 C1.465000033378601,14.439000129699707 -9.187999725341797,14.439000129699707 -9.187999725341797,14.439000129699707 C-9.187999725341797,14.439000129699707 -9.187999725341797,-14.437999725341797 -9.187999725341797,-14.437999725341797 C-9.187999725341797,-14.437999725341797 9.187999725341797,-14.437999725341797 9.187999725341797,-14.437999725341797 C9.187999725341797,-14.437999725341797 6.729000091552734,10.038000106811523 6.729000091552734,10.038000106811523 C6.479000091552734,12.531000137329102 4.196000099182129,14.439000129699707 1.465000033378601,14.439000129699707z"></path></g><g opacity="1" transform="matrix(1,0,0,1,81.5999984741211,138.29299926757812)"><path fill="rgb(255,255,255)" fill-opacity="1" d=" M16.108999252319336,13.925999641418457 C16.108999252319336,13.925999641418457 -5.668000221252441,16.812999725341797 -5.668000221252441,16.812999725341797 C-9.369000434875488,17.30299949645996 -12.765999794006348,14.699999809265137 -13.256999969482422,10.99899959564209 C-13.256999969482422,10.99899959564209 -15.619000434875488,-6.828000068664551 -15.619000434875488,-6.828000068664551 C-16.110000610351562,-10.527999877929688 -13.506999969482422,-13.925999641418457 -9.807000160217285,-14.416000366210938 C-9.807000160217285,-14.416000366210938 11.970999717712402,-17.30299949645996 11.970999717712402,-17.30299949645996 C11.970999717712402,-17.30299949645996 16.108999252319336,13.925999641418457 16.108999252319336,13.925999641418457z"></path><path stroke-linecap="butt" stroke-linejoin="miter" fill-opacity="0" stroke-miterlimit="10" stroke="rgb(0,0,0)" stroke-opacity="1" stroke-width="2" d=" M16.108999252319336,13.925999641418457 C16.108999252319336,13.925999641418457 -5.668000221252441,16.812999725341797 -5.668000221252441,16.812999725341797 C-9.369000434875488,17.30299949645996 -12.765999794006348,14.699999809265137 -13.256999969482422,10.99899959564209 C-13.256999969482422,10.99899959564209 -15.619000434875488,-6.828000068664551 -15.619000434875488,-6.828000068664551 C-16.110000610351562,-10.527999877929688 -13.506999969482422,-13.925999641418457 -9.807000160217285,-14.416000366210938 C-9.807000160217285,-14.416000366210938 11.970999717712402,-17.30299949645996 11.970999717712402,-17.30299949645996 C11.970999717712402,-17.30299949645996 16.108999252319336,13.925999641418457 16.108999252319336,13.925999641418457z"></path></g><g opacity="1" transform="matrix(1,0,0,1,125.31999969482422,129.19000244140625)"><path fill="rgb(255,255,255)" fill-opacity="1" d=" M-26.959999084472656,22.94300079345703 C-26.959999084472656,22.94300079345703 31.100000381469727,36.43299865722656 31.100000381469727,36.43299865722656 C31.100000381469727,36.43299865722656 21.44300079345703,-36.43299865722656 21.44300079345703,-36.43299865722656 C21.44300079345703,-36.43299865722656 -31.100000381469727,-8.28600025177002 -31.100000381469727,-8.28600025177002 C-31.100000381469727,-8.28600025177002 -26.959999084472656,22.94300079345703 -26.959999084472656,22.94300079345703z"></path><path stroke-linecap="round" stroke-linejoin="round" fill-opacity="0" stroke="rgb(0,0,0)" stroke-opacity="1" stroke-width="2" d=" M-26.959999084472656,22.94300079345703 C-26.959999084472656,22.94300079345703 31.100000381469727,36.43299865722656 31.100000381469727,36.43299865722656 C31.100000381469727,36.43299865722656 21.44300079345703,-36.43299865722656 21.44300079345703,-36.43299865722656 C21.44300079345703,-36.43299865722656 -31.100000381469727,-8.28600025177002 -31.100000381469727,-8.28600025177002 C-31.100000381469727,-8.28600025177002 -26.959999084472656,22.94300079345703 -26.959999084472656,22.94300079345703z"></path></g></g></g></svg>