<svg width="48" height="48" viewBox="0 0 48 48" fill="none" xmlns="http://www.w3.org/2000/svg">
<rect width="48" height="48" rx="24" fill="#222222" fill-opacity="0.03"></rect>
<g clip-path="url(#clip0)">
<path d="M32.2946 13.9515C32.1315 13.8652 31.9373 13.8608 31.7706 13.9395L17.6565 20.5993L14.0199 21.1752C13.7003 21.2259 13.4822 21.526 13.5328 21.8456L14.5146 28.0444C14.5652 28.364 14.8654 28.5821 15.185 28.5315L18.5206 28.0031C18.4575 28.4366 18.4596 28.8801 18.5284 29.315C18.9038 31.6849 21.1372 33.3075 23.5071 32.9322C24.5934 32.7601 25.566 32.1896 26.2458 31.3257C26.7737 30.6546 27.0887 29.8541 27.1619 29.018L34.3029 29.9277C34.3586 29.9348 34.4143 29.9338 34.4685 29.9252C34.5923 29.9056 34.7082 29.8465 34.7975 29.7545C34.9259 29.6221 34.9845 29.437 34.9556 29.2548L32.5993 14.3777C32.5705 14.1956 32.4576 14.0377 32.2946 13.9515ZM23.3238 31.7747C21.5921 32.049 19.9602 30.8633 19.6859 29.1316C19.629 28.7724 19.6327 28.4159 19.6964 28.0669L25.9974 28.8697C25.8887 30.311 24.7894 31.5426 23.3238 31.7747ZM33.676 28.6665L26.6589 27.7726C26.657 27.7723 26.6552 27.7721 26.6533 27.7719L19.3384 26.84C19.3357 26.8396 19.333 26.8392 19.3303 26.8389L18.8866 26.7824C18.8316 26.7754 18.7758 26.7762 18.7209 26.7849L15.5804 27.2823L14.7819 22.241L17.9225 21.7436C17.9773 21.7349 18.0307 21.7185 18.0809 21.6948L31.5641 15.3327L33.676 28.6665Z" fill="black"></path>
</g>
<defs>
<clipPath id="clip0">
<rect width="20" height="20" fill="white" transform="translate(12.5586 15.6875) rotate(-9)"></rect>
</clipPath>
</defs>
</svg>