<svg width="68" height="68" viewBox="0 0 68 68" fill="none" xmlns="http://www.w3.org/2000/svg"><path d="M0 8C0 3.58172 3.58172 0 8 0H60C64.4183 0 68 3.58172 68 8V60C68 64.4183 64.4183 68 60 68H8C3.58172 68 0 64.4183 0 60V8Z" fill="#FFDD00"></path><path d="M6.80078 28.9679H61.2008L60.3445 31.286C59.9913 32.2425 59.133 32.9211 58.1209 33.0444L34.0008 35.9812L9.88068 33.0444C8.86858 32.9211 8.01029 32.2425 7.65702 31.286L6.80078 28.9679Z" fill="black"></path><path d="M9.39062 29.0253H58.6102L57.5692 37.185C57.4259 38.3087 56.5712 39.2101 55.4567 39.4129L35.0166 43.1331C34.4012 43.2451 33.7706 43.2451 33.1552 43.1331L12.6824 39.407C11.5837 39.207 10.7356 38.3274 10.5758 37.2221L9.39062 29.0253Z" fill="white"></path><path opacity="0.05" d="M8.23242 28.9569H33.643V42.2788C33.643 43.1304 32.8695 43.7726 32.0324 43.6162L11.6672 39.8093C10.5228 39.5953 9.64122 38.677 9.47422 37.5248L8.23242 28.9569Z" fill="black"></path><path d="M19.1758 23.8H49.06L48.6126 28.8755L35.1584 31.6848C34.4134 31.8404 33.644 31.8379 32.9 31.6776L19.8916 28.8755L19.1758 23.8Z" fill="black"></path><g filter="url(#filter0_d)"><path d="M25.538 26.2429V27.7358H25.1243L24.5569 27.0576V27.7358H24.0664V26.2429H24.4802L25.0475 26.9211V26.2429H25.538Z" fill="#FFDD00"></path><path d="M27.0218 27.3562V27.7358H25.7805V26.2429H26.9941V26.6225H26.2753V26.7974H26.9066V27.16H26.2753V27.3562H27.0218Z" fill="#FFDD00"></path><path d="M29.6239 26.2429L29.1462 27.7358H28.6066L28.3656 26.9381L28.1118 27.7358H27.5722L27.0945 26.2429H27.6128L27.873 27.0917L28.1481 26.2429H28.6109L28.8711 27.1024L29.1462 26.2429H29.6239Z" fill="#FFDD00"></path><path d="M30.963 27.7699C30.8393 27.7699 30.7185 27.7564 30.6005 27.7294C30.4839 27.701 30.3879 27.6633 30.3125 27.6164L30.4746 27.2495C30.5457 27.2908 30.6253 27.3242 30.7135 27.3498C30.8016 27.3739 30.8862 27.386 30.9673 27.386C31.037 27.386 31.0867 27.3796 31.1166 27.3668C31.1464 27.3526 31.1614 27.332 31.1614 27.305C31.1614 27.2737 31.1415 27.2502 31.1016 27.2346C31.0633 27.219 30.9993 27.2019 30.9097 27.1834C30.7945 27.1592 30.6986 27.1336 30.6218 27.1066C30.545 27.0782 30.4782 27.0327 30.4213 26.9701C30.3644 26.9062 30.336 26.8201 30.336 26.7121C30.336 26.6182 30.3623 26.5329 30.4149 26.4561C30.4675 26.3794 30.5457 26.3189 30.6495 26.2749C30.7547 26.2308 30.882 26.2087 31.0313 26.2087C31.1336 26.2087 31.2339 26.2201 31.332 26.2429C31.4315 26.2642 31.519 26.2962 31.5943 26.3388L31.4429 26.7035C31.2964 26.6296 31.1578 26.5926 31.027 26.5926C30.8976 26.5926 30.8329 26.6239 30.8329 26.6865C30.8329 26.7163 30.8521 26.7391 30.8905 26.7547C30.9289 26.7689 30.9922 26.7846 31.0803 26.8016C31.1941 26.823 31.29 26.8479 31.3682 26.8763C31.4464 26.9033 31.514 26.9481 31.5709 27.0107C31.6292 27.0732 31.6583 27.1585 31.6583 27.2666C31.6583 27.3604 31.632 27.4457 31.5794 27.5225C31.5268 27.5979 31.4479 27.6583 31.3427 27.7038C31.2389 27.7479 31.1123 27.7699 30.963 27.7699Z" fill="#FFDD00"></path>
<path d="M32.5226 27.7699C32.2936 27.7699 32.1152 27.7081 31.9872 27.5844C31.8593 27.4607 31.7953 27.2872 31.7953 27.064V26.2429H32.2986V27.049C32.2986 27.1585 32.3178 27.2382 32.3562 27.2879C32.396 27.3377 32.4529 27.3626 32.5268 27.3626C32.6008 27.3626 32.6569 27.3377 32.6953 27.2879C32.7351 27.2382 32.755 27.1585 32.755 27.049V26.2429H33.2498V27.064C33.2498 27.2872 33.1858 27.4607 33.0579 27.5844C32.9299 27.7081 32.7515 27.7699 32.5226 27.7699Z" fill="#FFDD00"></path><path d="M34.1993 26.2429C34.3372 26.2429 34.4573 26.2656 34.5597 26.3111C34.6621 26.3566 34.741 26.422 34.7965 26.5073C34.8519 26.5926 34.8796 26.6922 34.8796 26.8059C34.8796 26.9197 34.8519 27.0192 34.7965 27.1045C34.741 27.1898 34.6621 27.2552 34.5597 27.3007C34.4573 27.3462 34.3372 27.369 34.1993 27.369H33.9839V27.7358H33.4805V26.2429H34.1993ZM34.1673 26.9808C34.2355 26.9808 34.2867 26.9659 34.3209 26.936C34.355 26.9047 34.372 26.8614 34.372 26.8059C34.372 26.7505 34.355 26.7078 34.3209 26.6779C34.2867 26.6467 34.2355 26.631 34.1673 26.631H33.9839V26.9808H34.1673Z" fill="#FFDD00"></path><path d="M35.7634 26.2429C35.9014 26.2429 36.0215 26.2656 36.1239 26.3111C36.2263 26.3566 36.3052 26.422 36.3606 26.5073C36.4161 26.5926 36.4438 26.6922 36.4438 26.8059C36.4438 26.9197 36.4161 27.0192 36.3606 27.1045C36.3052 27.1898 36.2263 27.2552 36.1239 27.3007C36.0215 27.3462 35.9014 27.369 35.7634 27.369H35.548V27.7358H35.0447V26.2429H35.7634ZM35.7315 26.9808C35.7997 26.9808 35.8509 26.9659 35.885 26.936C35.9191 26.9047 35.9362 26.8614 35.9362 26.8059C35.9362 26.7505 35.9191 26.7078 35.885 26.6779C35.8509 26.6467 35.7997 26.631 35.7315 26.631H35.548V26.9808H35.7315Z" fill="#FFDD00"></path><path d="M37.4124 27.7699C37.2518 27.7699 37.1074 27.7365 36.9795 27.6697C36.8515 27.6029 36.7513 27.5104 36.6788 27.3924C36.6062 27.273 36.57 27.1386 36.57 26.9893C36.57 26.84 36.6062 26.7064 36.6788 26.5884C36.7513 26.4689 36.8515 26.3758 36.9795 26.309C37.1074 26.2422 37.2518 26.2087 37.4124 26.2087C37.5731 26.2087 37.7174 26.2422 37.8454 26.309C37.9733 26.3758 38.0736 26.4689 38.1461 26.5884C38.2186 26.7064 38.2549 26.84 38.2549 26.9893C38.2549 27.1386 38.2186 27.273 38.1461 27.3924C38.0736 27.5104 37.9733 27.6029 37.8454 27.6697C37.7174 27.7365 37.5731 27.7699 37.4124 27.7699ZM37.4124 27.3626C37.475 27.3626 37.5311 27.3476 37.5809 27.3178C37.6321 27.2865 37.6726 27.2431 37.7025 27.1877C37.7323 27.1308 37.7473 27.0647 37.7473 26.9893C37.7473 26.914 37.7323 26.8486 37.7025 26.7931C37.6726 26.7362 37.6321 26.6929 37.5809 26.663C37.5311 26.6317 37.475 26.6161 37.4124 26.6161C37.3499 26.6161 37.293 26.6317 37.2418 26.663C37.192 26.6929 37.1522 26.7362 37.1224 26.7931C37.0925 26.8486 37.0776 26.914 37.0776 26.9893C37.0776 27.0647 37.0925 27.1308 37.1224 27.1877C37.1522 27.2431 37.192 27.2865 37.2418 27.3178C37.293 27.3476 37.3499 27.3626 37.4124 27.3626Z" fill="#FFDD00"></path><path d="M39.0774 27.3604H38.9409V27.7358H38.4375V26.2429H39.1563C39.2942 26.2429 39.4144 26.2656 39.5167 26.3111C39.6191 26.3566 39.698 26.422 39.7535 26.5073C39.8089 26.5926 39.8366 26.6922 39.8366 26.8059C39.8366 26.9126 39.8125 27.0057 39.7641 27.0853C39.7158 27.1649 39.6461 27.2282 39.5551 27.2751L39.8686 27.7358H39.3312L39.0774 27.3604ZM39.329 26.8059C39.329 26.7505 39.312 26.7078 39.2779 26.6779C39.2437 26.6467 39.1925 26.631 39.1243 26.631H38.9409V26.9808H39.1243C39.1925 26.9808 39.2437 26.9659 39.2779 26.936C39.312 26.9047 39.329 26.8614 39.329 26.8059Z" fill="#FFDD00"></path><path d="M40.3301 26.6332H39.8928V26.2429H41.2706V26.6332H40.8334V27.7358H40.3301V26.6332Z" fill="#FFDD00"></path><path d="M42.6426 27.3562V27.7358H41.4013V26.2429H42.6149V26.6225H41.8961V26.7974H42.5274V27.16H41.8961V27.3562H42.6426Z" fill="#FFDD00"></path><path d="M43.4762 27.3604H43.3397V27.7358H42.8364V26.2429H43.5551C43.693 26.2429 43.8132 26.2656 43.9155 26.3111C44.0179 26.3566 44.0968 26.422 44.1523 26.5073C44.2077 26.5926 44.2355 26.6922 44.2355 26.8059C44.2355 26.9126 44.2113 27.0057 44.1629 27.0853C44.1146 27.1649 44.0449 27.2282 43.9539 27.2751L44.2674 27.7358H43.73L43.4762 27.3604ZM43.7279 26.8059C43.7279 26.7505 43.7108 26.7078 43.6767 26.6779C43.6425 26.6467 43.5914 26.631 43.5231 26.631H43.3397V26.9808H43.5231C43.5914 26.9808 43.6425 26.9659 43.6767 26.936C43.7108 26.9047 43.7279 26.8614 43.7279 26.8059Z" fill="#FFDD00"></path></g><path d="M16.995 36.3705C16.8773 36.3705 16.7686 36.3489 16.6691 36.3058C16.5712 36.261 16.4908 36.198 16.4277 36.1167L16.6517 35.848C16.7462 35.9757 16.854 36.0396 16.9751 36.0396C17.1394 36.0396 17.2215 35.9434 17.2215 35.7509V34.9224H16.6094V34.5989H17.6221V35.7286C17.6221 35.9425 17.569 36.1034 17.4628 36.2113C17.3567 36.3174 17.2007 36.3705 16.995 36.3705Z" fill="black"></path><path d="M18.6298 36.3606C18.4888 36.3606 18.362 36.3315 18.2492 36.2735C18.138 36.2138 18.0509 36.1316 17.9879 36.0271C17.9249 35.9226 17.8933 35.804 17.8933 35.6713C17.8933 35.5386 17.9249 35.42 17.9879 35.3155C18.0509 35.211 18.138 35.1297 18.2492 35.0717C18.362 35.0119 18.4888 34.9821 18.6298 34.9821C18.7708 34.9821 18.8969 35.0119 19.0081 35.0717C19.1192 35.1297 19.2063 35.211 19.2693 35.3155C19.3324 35.42 19.3639 35.5386 19.3639 35.6713C19.3639 35.804 19.3324 35.9226 19.2693 36.0271C19.2063 36.1316 19.1192 36.2138 19.0081 36.2735C18.8969 36.3315 18.7708 36.3606 18.6298 36.3606ZM18.6298 36.0421C18.7294 36.0421 18.8107 36.0089 18.8737 35.9425C18.9384 35.8745 18.9707 35.7841 18.9707 35.6713C18.9707 35.5585 18.9384 35.4689 18.8737 35.4026C18.8107 35.3346 18.7294 35.3006 18.6298 35.3006C18.5303 35.3006 18.4482 35.3346 18.3835 35.4026C18.3188 35.4689 18.2865 35.5585 18.2865 35.6713C18.2865 35.7841 18.3188 35.8745 18.3835 35.9425C18.4482 36.0089 18.5303 36.0421 18.6298 36.0421Z" fill="black"></path><path d="M20.437 34.9821C20.6029 34.9821 20.7364 35.0318 20.8376 35.1314C20.9404 35.2309 20.9919 35.3785 20.9919 35.5743V36.3407H20.6037V35.634C20.6037 35.5278 20.5805 35.449 20.534 35.3976C20.4876 35.3445 20.4204 35.318 20.3325 35.318C20.2346 35.318 20.1566 35.3487 20.0986 35.4101C20.0405 35.4698 20.0115 35.5594 20.0115 35.6788V36.3407H19.6233V34.4944H20.0115V35.1413C20.0629 35.0899 20.1251 35.0509 20.1981 35.0244C20.2711 34.9962 20.3507 34.9821 20.437 34.9821Z" fill="black"></path><path d="M22.1573 34.9821C22.3232 34.9821 22.4568 35.0318 22.558 35.1314C22.6608 35.2309 22.7122 35.3785 22.7122 35.5743V36.3407H22.3241V35.634C22.3241 35.5278 22.3008 35.449 22.2544 35.3976C22.2079 35.3445 22.1408 35.318 22.0528 35.318C21.955 35.318 21.877 35.3487 21.819 35.4101C21.7609 35.4698 21.7319 35.5594 21.7319 35.6788V36.3407H21.3437V35.002H21.7144V35.1587C21.7659 35.1023 21.8297 35.0592 21.906 35.0294C21.9823 34.9978 22.0661 34.9821 22.1573 34.9821Z" fill="black"></path><path d="M24.56 34.9821C24.6844 34.9821 24.7972 35.0111 24.8984 35.0692C25.0012 35.1256 25.0817 35.206 25.1398 35.3105C25.1978 35.4134 25.2268 35.5336 25.2268 35.6713C25.2268 35.809 25.1978 35.9301 25.1398 36.0346C25.0817 36.1374 25.0012 36.2179 24.8984 36.276C24.7972 36.3324 24.6844 36.3606 24.56 36.3606C24.3759 36.3606 24.2357 36.3025 24.1395 36.1864V36.3407H23.7687V34.4944H24.1569V35.1438C24.2548 35.036 24.3891 34.9821 24.56 34.9821ZM24.4928 36.0421C24.5923 36.0421 24.6736 36.0089 24.7367 35.9425C24.8014 35.8745 24.8337 35.7841 24.8337 35.6713C24.8337 35.5585 24.8014 35.4689 24.7367 35.4026C24.6736 35.3346 24.5923 35.3006 24.4928 35.3006C24.3933 35.3006 24.3112 35.3346 24.2465 35.4026C24.1834 35.4689 24.1519 35.5585 24.1519 35.6713C24.1519 35.7841 24.1834 35.8745 24.2465 35.9425C24.3112 36.0089 24.3933 36.0421 24.4928 36.0421Z" fill="black"></path><path d="M26.1237 36.3606C25.9827 36.3606 25.8558 36.3315 25.743 36.2735C25.6318 36.2138 25.5447 36.1316 25.4817 36.0271C25.4187 35.9226 25.3872 35.804 25.3872 35.6713C25.3872 35.5386 25.4187 35.42 25.4817 35.3155C25.5447 35.211 25.6318 35.1297 25.743 35.0717C25.8558 35.0119 25.9827 34.9821 26.1237 34.9821C26.2647 34.9821 26.3907 35.0119 26.5019 35.0717C26.613 35.1297 26.7001 35.211 26.7631 35.3155C26.8262 35.42 26.8577 35.5386 26.8577 35.6713C26.8577 35.804 26.8262 35.9226 26.7631 36.0271C26.7001 36.1316 26.613 36.2138 26.5019 36.2735C26.3907 36.3315 26.2647 36.3606 26.1237 36.3606ZM26.1237 36.0421C26.2232 36.0421 26.3045 36.0089 26.3675 35.9425C26.4322 35.8745 26.4646 35.7841 26.4646 35.6713C26.4646 35.5585 26.4322 35.4689 26.3675 35.4026C26.3045 35.3346 26.2232 35.3006 26.1237 35.3006C26.0241 35.3006 25.942 35.3346 25.8773 35.4026C25.8126 35.4689 25.7803 35.5585 25.7803 35.6713C25.7803 35.7841 25.8126 35.8745 25.8773 35.9425C25.942 36.0089 26.0241 36.0421 26.1237 36.0421Z" fill="black"></path><path d="M28.4658 35.002V36.3407H28.0975V36.1814C28.0461 36.2395 27.9847 36.2843 27.9134 36.3158C27.8421 36.3456 27.7649 36.3606 27.682 36.3606C27.5061 36.3606 27.3668 36.31 27.264 36.2088C27.1611 36.1076 27.1097 35.9575 27.1097 35.7584V35.002H27.4978V35.7012C27.4978 35.9168 27.5883 36.0246 27.7691 36.0246C27.862 36.0246 27.9366 35.9948 27.993 35.9351C28.0494 35.8737 28.0776 35.7833 28.0776 35.6639V35.002H28.4658Z" fill="black"></path><path d="M30.2063 35.002V36.1167C30.2063 36.3622 30.1425 36.5447 30.0147 36.6641C29.887 36.7836 29.7004 36.8433 29.4549 36.8433C29.3255 36.8433 29.2028 36.8275 29.0866 36.796C28.9705 36.7645 28.8743 36.7189 28.798 36.6591L28.9523 36.3805C29.0087 36.4269 29.08 36.4634 29.1663 36.4899C29.2525 36.5181 29.3388 36.5322 29.425 36.5322C29.5594 36.5322 29.6581 36.5016 29.7211 36.4402C29.7858 36.3805 29.8182 36.2892 29.8182 36.1665V36.1092C29.717 36.2204 29.576 36.276 29.3952 36.276C29.2724 36.276 29.1596 36.2494 29.0568 36.1963C28.9556 36.1416 28.8751 36.0653 28.8154 35.9674C28.7557 35.8695 28.7258 35.7568 28.7258 35.629C28.7258 35.5013 28.7557 35.3885 28.8154 35.2906C28.8751 35.1928 28.9556 35.1173 29.0568 35.0642C29.1596 35.0095 29.2724 34.9821 29.3952 34.9821C29.5893 34.9821 29.7369 35.0459 29.8381 35.1737V35.002H30.2063ZM29.4723 35.9575C29.5752 35.9575 29.6589 35.9276 29.7236 35.8679C29.79 35.8065 29.8231 35.7269 29.8231 35.629C29.8231 35.5312 29.79 35.4524 29.7236 35.3926C29.6589 35.3313 29.5752 35.3006 29.4723 35.3006C29.3695 35.3006 29.2849 35.3313 29.2185 35.3926C29.1522 35.4524 29.119 35.5312 29.119 35.629C29.119 35.7269 29.1522 35.8065 29.2185 35.8679C29.2849 35.9276 29.3695 35.9575 29.4723 35.9575Z" fill="black"></path><path d="M31.3813 34.9821C31.5471 34.9821 31.6807 35.0318 31.7819 35.1314C31.8847 35.2309 31.9361 35.3785 31.9361 35.5743V36.3407H31.548V35.634C31.548 35.5278 31.5247 35.449 31.4783 35.3976C31.4319 35.3445 31.3647 35.318 31.2768 35.318C31.1789 35.318 31.1009 35.3487 31.0429 35.4101C30.9848 35.4698 30.9558 35.5594 30.9558 35.6788V36.3407H30.5676V34.4944H30.9558V35.1413C31.0072 35.0899 31.0694 35.0509 31.1424 35.0244C31.2154 34.9962 31.295 34.9821 31.3813 34.9821Z" fill="black"></path><path d="M33.1514 36.276C33.1132 36.3042 33.066 36.3257 33.0096 36.3407C32.9548 36.3539 32.8968 36.3606 32.8354 36.3606C32.6761 36.3606 32.5526 36.3199 32.4646 36.2386C32.3784 36.1574 32.3353 36.0379 32.3353 35.8803V35.3304H32.1287V35.0318H32.3353V34.7059H32.7234V35.0318H33.0568V35.3304H32.7234V35.8754C32.7234 35.9318 32.7375 35.9757 32.7657 36.0072C32.7956 36.0371 32.8371 36.052 32.8901 36.052C32.9515 36.052 33.0038 36.0354 33.0469 36.0023L33.1514 36.276Z" fill="black"></path><path d="M35.4027 35.002L34.798 36.4228C34.7367 36.577 34.6604 36.6857 34.5691 36.7487C34.4795 36.8118 34.3709 36.8433 34.2432 36.8433C34.1735 36.8433 34.1047 36.8325 34.0366 36.8109C33.9686 36.7894 33.9131 36.7595 33.8699 36.7214L34.0118 36.4452C34.0416 36.4717 34.0756 36.4924 34.1138 36.5074C34.1536 36.5223 34.1926 36.5298 34.2307 36.5298C34.2838 36.5298 34.3269 36.5165 34.3601 36.4899C34.3933 36.4651 34.4231 36.4228 34.4497 36.363L34.4547 36.3506L33.8749 35.002H34.2755L34.6512 35.9102L35.0294 35.002H35.4027Z" fill="black"></path><path d="M36.1616 36.3606C36.0206 36.3606 35.8937 36.3315 35.7809 36.2735C35.6698 36.2138 35.5827 36.1316 35.5196 36.0271C35.4566 35.9226 35.4251 35.804 35.4251 35.6713C35.4251 35.5386 35.4566 35.42 35.5196 35.3155C35.5827 35.211 35.6698 35.1297 35.7809 35.0717C35.8937 35.0119 36.0206 34.9821 36.1616 34.9821C36.3026 34.9821 36.4287 35.0119 36.5398 35.0717C36.6509 35.1297 36.738 35.211 36.8011 35.3155C36.8641 35.42 36.8956 35.5386 36.8956 35.6713C36.8956 35.804 36.8641 35.9226 36.8011 36.0271C36.738 36.1316 36.6509 36.2138 36.5398 36.2735C36.4287 36.3315 36.3026 36.3606 36.1616 36.3606ZM36.1616 36.0421C36.2611 36.0421 36.3424 36.0089 36.4054 35.9425C36.4701 35.8745 36.5025 35.7841 36.5025 35.6713C36.5025 35.5585 36.4701 35.4689 36.4054 35.4026C36.3424 35.3346 36.2611 35.3006 36.1616 35.3006C36.0621 35.3006 35.98 35.3346 35.9153 35.4026C35.8506 35.4689 35.8182 35.5585 35.8182 35.6713C35.8182 35.7841 35.8506 35.8745 35.9153 35.9425C35.98 36.0089 36.0621 36.0421 36.1616 36.0421Z" fill="black"></path><path d="M38.5037 35.002V36.3407H38.1354V36.1814C38.084 36.2395 38.0226 36.2843 37.9513 36.3158C37.88 36.3456 37.8028 36.3606 37.7199 36.3606C37.5441 36.3606 37.4047 36.31 37.3019 36.2088C37.199 36.1076 37.1476 35.9575 37.1476 35.7584V35.002H37.5358V35.7012C37.5358 35.9168 37.6262 36.0246 37.807 36.0246C37.8999 36.0246 37.9745 35.9948 38.0309 35.9351C38.0873 35.8737 38.1155 35.7833 38.1155 35.6639V35.002H38.5037Z" fill="black"></path><path d="M41.0808 35.9749H40.7972V36.3407H40.404V35.9749H39.466V35.7037L40.2871 34.5989H40.7101L39.9487 35.6464H40.4165V35.3205H40.7972V35.6464H41.0808V35.9749Z" fill="black"></path><path d="M42.6351 36.3606C42.4924 36.3606 42.3639 36.3315 42.2494 36.2735C42.1366 36.2138 42.0479 36.1316 41.9832 36.0271C41.9201 35.9226 41.8886 35.804 41.8886 35.6713C41.8886 35.5386 41.9201 35.42 41.9832 35.3155C42.0479 35.211 42.1366 35.1297 42.2494 35.0717C42.3639 35.0119 42.4924 34.9821 42.6351 34.9821C42.7761 34.9821 42.8988 35.0119 43.0033 35.0717C43.1095 35.1297 43.1866 35.2135 43.2348 35.323L42.9337 35.4847C42.864 35.362 42.7637 35.3006 42.6326 35.3006C42.5314 35.3006 42.4476 35.3338 42.3813 35.4001C42.3149 35.4665 42.2818 35.5569 42.2818 35.6713C42.2818 35.7858 42.3149 35.8762 42.3813 35.9425C42.4476 36.0089 42.5314 36.0421 42.6326 36.0421C42.7653 36.0421 42.8657 35.9807 42.9337 35.8579L43.2348 36.0222C43.1866 36.1283 43.1095 36.2113 43.0033 36.271C42.8988 36.3307 42.7761 36.3606 42.6351 36.3606Z" fill="black"></path><path d="M44.0782 36.3606C43.9372 36.3606 43.8103 36.3315 43.6975 36.2735C43.5864 36.2138 43.4993 36.1316 43.4363 36.0271C43.3732 35.9226 43.3417 35.804 43.3417 35.6713C43.3417 35.5386 43.3732 35.42 43.4363 35.3155C43.4993 35.211 43.5864 35.1297 43.6975 35.0717C43.8103 35.0119 43.9372 34.9821 44.0782 34.9821C44.2192 34.9821 44.3453 35.0119 44.4564 35.0717C44.5676 35.1297 44.6547 35.211 44.7177 35.3155C44.7807 35.42 44.8122 35.5386 44.8122 35.6713C44.8122 35.804 44.7807 35.9226 44.7177 36.0271C44.6547 36.1316 44.5676 36.2138 44.4564 36.2735C44.3453 36.3315 44.2192 36.3606 44.0782 36.3606ZM44.0782 36.0421C44.1778 36.0421 44.259 36.0089 44.3221 35.9425C44.3868 35.8745 44.4191 35.7841 44.4191 35.6713C44.4191 35.5585 44.3868 35.4689 44.3221 35.4026C44.259 35.3346 44.1778 35.3006 44.0782 35.3006C43.9787 35.3006 43.8966 35.3346 43.8319 35.4026C43.7672 35.4689 43.7348 35.5585 43.7348 35.6713C43.7348 35.7841 43.7672 35.8745 43.8319 35.9425C43.8966 36.0089 43.9787 36.0421 44.0782 36.0421Z" fill="black"></path><path d="M45.4972 35.0318H45.8406V35.3304H45.5071V36.3407H45.119V35.3304H44.9125V35.0318H45.119V34.9721C45.119 34.8195 45.1638 34.6984 45.2533 34.6089C45.3446 34.5193 45.4723 34.4745 45.6365 34.4745C45.6946 34.4745 45.7493 34.4811 45.8008 34.4944C45.8538 34.506 45.8978 34.5234 45.9326 34.5466L45.8306 34.8278C45.7858 34.7963 45.7336 34.7805 45.6739 34.7805C45.5561 34.7805 45.4972 34.8452 45.4972 34.9746V35.0318Z" fill="black"></path><path d="M46.4594 35.0318H46.8028V35.3304H46.4694V36.3407H46.0812V35.3304H45.8747V35.0318H46.0812V34.9721C46.0812 34.8195 46.126 34.6984 46.2156 34.6089C46.3068 34.5193 46.4345 34.4745 46.5988 34.4745C46.6568 34.4745 46.7116 34.4811 46.763 34.4944C46.8161 34.506 46.86 34.5234 46.8949 34.5466L46.7929 34.8278C46.7481 34.7963 46.6958 34.7805 46.6361 34.7805C46.5183 34.7805 46.4594 34.8452 46.4594 34.9746V35.0318Z" fill="black"></path><path d="M48.2905 35.6763C48.2905 35.6813 48.288 35.7161 48.283 35.7808H47.2703C47.2885 35.8637 47.3317 35.9293 47.3997 35.9774C47.4677 36.0255 47.5523 36.0495 47.6535 36.0495C47.7232 36.0495 47.7845 36.0396 47.8376 36.0197C47.8924 35.9981 47.9429 35.9649 47.9894 35.9201L48.1959 36.1441C48.0698 36.2884 47.8857 36.3606 47.6435 36.3606C47.4926 36.3606 47.359 36.3315 47.2429 36.2735C47.1268 36.2138 47.0372 36.1316 46.9742 36.0271C46.9112 35.9226 46.8796 35.804 46.8796 35.6713C46.8796 35.5403 46.9103 35.4225 46.9717 35.318C47.0347 35.2118 47.1202 35.1297 47.228 35.0717C47.3375 35.0119 47.4594 34.9821 47.5938 34.9821C47.7248 34.9821 47.8434 35.0103 47.9496 35.0667C48.0557 35.1231 48.1387 35.2044 48.1984 35.3105C48.2598 35.415 48.2905 35.537 48.2905 35.6763ZM47.5963 35.2757C47.5083 35.2757 47.4345 35.3006 47.3748 35.3503C47.3151 35.4001 47.2786 35.4681 47.2653 35.5544H47.9247C47.9114 35.4698 47.8749 35.4026 47.8152 35.3528C47.7555 35.3014 47.6825 35.2757 47.5963 35.2757Z" fill="black"></path><path d="M49.8602 35.6763C49.8602 35.6813 49.8577 35.7161 49.8527 35.7808H48.84C48.8583 35.8637 48.9014 35.9293 48.9694 35.9774C49.0374 36.0255 49.122 36.0495 49.2232 36.0495C49.2929 36.0495 49.3542 36.0396 49.4073 36.0197C49.4621 35.9981 49.5127 35.9649 49.5591 35.9201L49.7656 36.1441C49.6396 36.2884 49.4554 36.3606 49.2132 36.3606C49.0623 36.3606 48.9288 36.3315 48.8126 36.2735C48.6965 36.2138 48.607 36.1316 48.5439 36.0271C48.4809 35.9226 48.4494 35.804 48.4494 35.6713C48.4494 35.5403 48.4801 35.4225 48.5414 35.318C48.6045 35.2118 48.6899 35.1297 48.7977 35.0717C48.9072 35.0119 49.0291 34.9821 49.1635 34.9821C49.2945 34.9821 49.4131 35.0103 49.5193 35.0667C49.6255 35.1231 49.7084 35.2044 49.7681 35.3105C49.8295 35.415 49.8602 35.537 49.8602 35.6763ZM49.166 35.2757C49.0781 35.2757 49.0042 35.3006 48.9445 35.3503C48.8848 35.4001 48.8483 35.4681 48.835 35.5544H49.4944C49.4811 35.4698 49.4447 35.4026 49.3849 35.3528C49.3252 35.3014 49.2522 35.2757 49.166 35.2757Z" fill="black"></path><path d="M50.569 36.3606C50.4578 36.3606 50.3492 36.3473 50.243 36.3207C50.1369 36.2925 50.0523 36.2577 49.9892 36.2162L50.1186 35.9376C50.1783 35.9757 50.2505 36.0072 50.3351 36.0321C50.4197 36.0553 50.5026 36.0669 50.5839 36.0669C50.7481 36.0669 50.8302 36.0263 50.8302 35.945C50.8302 35.9069 50.8078 35.8795 50.7631 35.8629C50.7183 35.8463 50.6494 35.8322 50.5565 35.8206C50.4471 35.804 50.3567 35.785 50.2853 35.7634C50.214 35.7418 50.1518 35.7037 50.0987 35.6489C50.0473 35.5942 50.0216 35.5162 50.0216 35.415C50.0216 35.3304 50.0456 35.2558 50.0937 35.1911C50.1435 35.1247 50.2148 35.0733 50.3077 35.0368C50.4023 35.0003 50.5134 34.9821 50.6411 34.9821C50.7357 34.9821 50.8294 34.9929 50.9223 35.0144C51.0169 35.0343 51.0948 35.0625 51.1562 35.099L51.0268 35.3752C50.909 35.3089 50.7805 35.2757 50.6411 35.2757C50.5582 35.2757 50.496 35.2873 50.4545 35.3105C50.4131 35.3338 50.3923 35.3636 50.3923 35.4001C50.3923 35.4416 50.4147 35.4706 50.4595 35.4872C50.5043 35.5038 50.5756 35.5195 50.6735 35.5345C50.783 35.5527 50.8725 35.5726 50.9422 35.5942C51.0119 35.6141 51.0724 35.6514 51.1239 35.7062C51.1753 35.7609 51.201 35.8372 51.201 35.9351C51.201 36.018 51.1761 36.0918 51.1263 36.1565C51.0766 36.2212 51.0036 36.2718 50.9074 36.3083C50.8128 36.3431 50.7 36.3606 50.569 36.3606Z" fill="black"></path><defs><filter id="filter0_d" x="23.3861" y="26.2087" width="21.5616" height="2.92173" filterUnits="userSpaceOnUse" color-interpolation-filters="sRGB"><feFlood flood-opacity="0" result="BackgroundImageFix"></feFlood><feColorMatrix in="SourceAlpha" type="matrix" values="0 0 0 0 0 0 0 0 0 0 0 0 0 0 0 0 0 0 127 0"></feColorMatrix><feOffset dy="0.680276"></feOffset><feGaussianBlur stdDeviation="0.340138"></feGaussianBlur><feColorMatrix type="matrix" values="0 0 0 0 0 0 0 0 0 0 0 0 0 0 0 0 0 0 0.28 0"></feColorMatrix><feBlend mode="normal" in2="BackgroundImageFix" result="effect1_dropShadow"></feBlend><feBlend mode="normal" in="SourceGraphic" in2="effect1_dropShadow" result="shape"></feBlend></filter></defs>
</svg>