<svg class="stripe-svg c-pointer" viewBox="0 0 73 30" fill="none" xmlns="http://www.w3.org/2000/svg" onclick="window.open('https://stripe.com/en-in/accept-payments/buy-me-a-coffee', '_blank');"> <path fill-rule="evenodd" clip-rule="evenodd" d="M72.421 15.48C72.421 10.36 69.941 6.32001 65.201 6.32001C60.441 6.32001 57.561 10.36 57.561 15.44C57.561 21.46 60.961 24.5 65.841 24.5C68.221 24.5 70.021 23.96 71.381 23.2V19.2C70.021 19.88 68.461 20.3 66.481 20.3C64.541 20.3 62.821 19.62 62.601 17.26H72.381C72.381 17 72.421 15.96 72.421 15.48ZM62.541 13.58C62.541 11.32 63.921 10.38 65.181 10.38C66.401 10.38 67.701 11.32 67.701 13.58H62.541Z" fill="#32325D"></path> <path fill-rule="evenodd" clip-rule="evenodd" d="M49.841 6.32001C47.881 6.32001 46.621 7.24001 45.921 7.88001L45.661 6.64001H41.261V29.96L46.261 28.9L46.281 23.24C47.001 23.76 48.061 24.5 49.821 24.5C53.401 24.5 56.661 21.62 56.661 15.28C56.641 9.48001 53.341 6.32001 49.841 6.32001ZM48.641 20.1C47.461 20.1 46.761 19.68 46.281 19.16L46.261 11.74C46.781 11.16 47.501 10.76 48.641 10.76C50.461 10.76 51.721 12.8 51.721 15.42C51.721 18.1 50.481 20.1 48.641 20.1Z" fill="#32325D"></path> <path fill-rule="evenodd" clip-rule="evenodd" d="M34.381 5.14L39.401 4.06V0L34.381 1.06V5.14Z" fill="#32325D"></path> <rect x="34.381" y="6.65997" width="5.02" height="17.5" fill="#32325D"></rect> <path fill-rule="evenodd" clip-rule="evenodd" d="M29.001 8.13998L28.681 6.65998H24.361V24.16H29.361V12.3C30.541 10.76 32.541 11.04 33.161 11.26V6.65998C32.521 6.41998 30.181 5.97998 29.001 8.13998Z" fill="#32325D"></path> <path fill-rule="evenodd" clip-rule="evenodd" d="M19.001 2.32001L14.121 3.36001L14.101 19.38C14.101 22.34 16.321 24.52 19.281 24.52C20.921 24.52 22.121 24.22 22.781 23.86V19.8C22.141 20.06 18.981 20.98 18.981 18.02V10.92H22.781V6.66001H18.981L19.001 2.32001Z" fill="#32325D"></path> <path fill-rule="evenodd" clip-rule="evenodd" d="M5.48102 11.74C5.48102 10.96 6.12102 10.66 7.18102 10.66C8.70102 10.66 10.621 11.12 12.141 11.94V7.24001C10.481 6.58001 8.84102 6.32001 7.18102 6.32001C3.12102 6.32001 0.421021 8.44001 0.421021 11.98C0.421021 17.5 8.02102 16.62 8.02102 19C8.02102 19.92 7.22102 20.22 6.10102 20.22C4.44102 20.22 2.32102 19.54 0.641021 18.62V23.38C2.50102 24.18 4.38102 24.52 6.10102 24.52C10.261 24.52 13.121 22.46 13.121 18.88C13.101 12.92 5.48102 13.98 5.48102 11.74Z" fill="#32325D"></path> </svg>