<svg viewBox="0 0 15 14" fill="none" xmlns="http://www.w3.org/2000/svg">
<path fill-rule="evenodd" clip-rule="evenodd" d="M7.46751 12.9167C7.40251 12.9167 7.20745 12.8493 7.20745 12.8493C5.77704 12.1088 2.39614 10.0216 1.22583 6.72268C1.03078 6.11678 0.575655 3.62571 2.00604 2.07721C2.85126 1.13465 3.63147 1 4.15161 1C5.38694 1 6.68727 1.74059 7.46751 2.8178C8.24768 1.67326 9.41804 1 10.7834 1C11.3035 1 12.0838 1.13465 12.994 2.07721C14.4243 3.62571 13.9692 6.18411 13.7742 6.72268C12.6039 10.089 9.15792 12.1088 7.79257 12.8493C7.66257 12.9167 7.53251 12.9167 7.46751 12.9167Z" stroke="#222222"></path>
</svg>