<svg class="xs-wid" width="128" height="19" viewBox="0 0 128 19" fill="none" xmlns="http://www.w3.org/2000/svg"><path d="M24.6611 6.09493H36.5091V0.0548096H24.6611V6.09493Z" fill="#222222" fill-opacity="0.5"></path><path d="M0.986816 0.0548706V6.09499H6.90022V18.1752H12.8136V6.09499H18.7481V0.0548706H0.986816Z" fill="#222222" fill-opacity="0.5"></path><path d="M18.748 18.1752H36.5094V12.1351H24.6614V6.09497H18.748V18.1752Z" fill="#222222" fill-opacity="0.5"></path><path d="M51.6096 4.61664H42.9084V7.12983H45.8229V15.0073H48.6951V7.12983H51.6096V4.61664Z" fill="#222222" fill-opacity="0.5"></path><path fill-rule="evenodd" clip-rule="evenodd" d="M51.3135 11.1214C51.3135 8.4181 52.8341 7.04535 54.8826 7.04535C57.0368 7.04535 58.3673 8.46034 58.3462 11.3537C58.3462 11.586 58.3462 11.7549 58.3251 11.8817H53.7422C53.8478 12.7476 54.3547 13.1277 55.0727 13.1277C55.7696 13.1277 56.3187 12.9799 57.1002 12.5786L58.1139 14.2893C57.1635 14.8595 56.1709 15.1763 54.946 15.1763C52.6018 15.1763 51.3135 13.5079 51.3135 11.1214ZM54.8202 9.03059C54.2077 9.03059 53.8698 9.43186 53.7853 10.2133H56.0028C55.8761 9.43186 55.6016 9.03059 54.8202 9.03059Z" fill="#222222" fill-opacity="0.5"></path><path d="M63.4361 13.001C62.7181 13.001 62.3379 12.3674 62.3379 11.1214C62.3379 9.89645 62.6758 9.19952 63.3728 9.19952C63.943 9.19952 64.1964 9.51631 64.5766 10.2132L66.4139 8.81937C65.7381 7.72117 64.8933 7.04535 63.415 7.04535C60.9229 7.04535 59.698 8.69265 59.698 11.0791C59.698 13.6979 61.0708 15.1552 63.3516 15.1552C64.7244 15.1552 65.5692 14.6272 66.4773 13.2967L64.7877 11.9661C64.2809 12.7264 63.943 13.001 63.4361 13.001Z" fill="#222222" fill-opacity="0.5"></path><path d="M72.645 7.04544C71.7158 7.04544 71.1667 7.36223 70.6809 7.72126V4.19434L67.9988 5.27142V15.0285H70.6809V10.5724C70.6809 9.60087 71.0188 9.32632 71.5891 9.32632C72.1382 9.32632 72.4761 9.60087 72.4761 10.5935V15.0285H75.1582V10.2556C75.1582 8.207 74.3346 7.04544 72.645 7.04544Z" fill="#222222" fill-opacity="0.5"></path><path d="M81.5974 12.6632C80.3514 12.6632 79.8445 11.3961 79.8445 9.81211C79.8445 8.16481 80.3725 6.96101 81.5763 6.96101C82.5267 6.96101 82.8857 7.57347 83.2447 8.54496L85.8635 7.51011C85.1455 5.54602 84.1317 4.44781 81.5763 4.44781C78.7886 4.44781 76.8245 6.47527 76.8245 9.81211C76.8245 12.8955 78.4718 15.1764 81.5552 15.1764C84.0261 15.1764 85.1877 13.8459 85.8846 12.4943L83.4559 11.206C82.8857 12.1775 82.5056 12.6632 81.5974 12.6632Z" fill="#222222" fill-opacity="0.5"></path><path d="M90.1948 7.78452V7.2143H87.5127V15.0073H90.1948V10.7623C90.1948 9.81198 90.5961 9.49519 91.2508 9.49519C91.7788 9.49519 92.1589 9.76974 92.4968 10.1499L93.1304 7.38326C92.8136 7.19318 92.4335 7.04535 91.8633 7.04535C91.1663 7.04535 90.6383 7.34102 90.1948 7.78452Z" fill="#222222" fill-opacity="0.5"></path><path d="M98.8527 11.6703C98.8527 12.6418 98.5147 12.9164 97.9656 12.9164C97.4165 12.9164 97.0786 12.6418 97.0786 11.6492V7.21417H94.3965V11.9871C94.3965 14.0357 95.2201 15.1761 96.9308 15.1761C97.8389 15.1761 98.4091 14.8594 98.8738 14.5003V15.0283H101.556V7.23529H98.8738V11.6703" fill="#222222" fill-opacity="0.5"></path><path d="M108.125 7.04535C107.196 7.04535 106.646 7.36214 106.161 7.72117V7.19318H103.479V14.9862H106.161V10.53C106.161 9.55854 106.499 9.28399 107.069 9.28399C107.618 9.28399 107.956 9.55854 107.956 10.5512V14.9862H110.638V10.2132C110.638 8.20691 109.835 7.04535 108.125 7.04535Z" fill="#222222" fill-opacity="0.5"></path><path d="M115.96 13.001C115.242 13.001 114.862 12.3674 114.862 11.1214C114.862 9.89645 115.2 9.19952 115.875 9.19952C116.446 9.19952 116.699 9.51631 117.079 10.2132L118.917 8.81937C118.241 7.72117 117.396 7.04535 115.918 7.04535C113.426 7.04535 112.201 8.69265 112.201 11.0791C112.201 13.6979 113.573 15.1552 115.854 15.1552C117.227 15.1552 118.072 14.6272 118.98 13.2967L117.29 11.9661C116.826 12.7264 116.467 13.001 115.96 13.001Z" fill="#222222" fill-opacity="0.5"></path><path d="M125.168 7.04544C124.239 7.04544 123.69 7.36223 123.204 7.72126V4.19434L120.522 5.27142V15.0285H123.204V10.5724C123.204 9.60087 123.542 9.32632 124.112 9.32632C124.661 9.32632 124.999 9.60087 124.999 10.5935V15.0285H127.681V10.2556C127.702 8.207 126.879 7.04544 125.168 7.04544Z" fill="#222222" fill-opacity="0.5"></path></svg>