<svg class="xs-wid" width="111" height="26" viewBox="0 0 111 26" fill="none" xmlns="http://www.w3.org/2000/svg"><path fill-rule="evenodd" clip-rule="evenodd" d="M0.731322 9.44252H2.59436L10.4937 19.3253V9.44252H11.7109V24.8294L1.92367 12.4269V24.6337H0.681641L0.731322 9.44252ZM13.7975 9.44252H19.4363L20.2312 11.2038C20.2312 11.2038 19.2872 10.2743 17.5236 10.2743H16.1573V15.6316H18.4427C19.6102 15.6316 19.784 15.5092 20.2312 15.0689V17.3194C20.2312 17.3194 19.7344 16.5611 18.4427 16.5611H16.1573V23.6063H19.3369C22.4172 23.6063 24.007 22.3342 24.007 22.3342L22.8643 24.6337H13.7726L13.7975 9.44252ZM92.1197 9.44252H98.3795L99.1744 11.2038C99.1744 11.2038 98.2806 10.2743 96.3427 10.2743H94.2806V15.6316H96.7651C97.6842 15.6316 97.9571 15.5582 98.3051 15.2157V17.0259C98.3051 17.0259 98.0567 16.4877 96.7651 16.4877H94.2806V23.6063H95.7961C98.5036 23.6063 99.5723 22.799 99.5723 22.799L98.2054 24.6337H92.1197V9.44252ZM20.9268 9.44252H23.3115L28.4534 20.573L29.5215 18.249L25.5967 9.44252H27.8573L30.7139 15.3869L33.4464 9.44252H34.6139L31.3598 17.0014L33.0241 20.573L38.0171 9.44252H39.3833L32.5273 24.756L30.1426 19.7901L27.8324 24.7805L20.9268 9.44252ZM60.8704 8.90431C66.1863 8.90431 69.4155 12.5982 69.4155 16.7079C69.4155 21.9918 66.5092 25.3431 60.9946 25.3431C55.48 25.3431 52.201 21.2579 52.201 17.1727C52.201 12.5737 55.6787 8.90431 60.8704 8.90431ZM54.4864 16.8302C54.4864 20.4017 56.5233 24.2912 61.1436 24.2912C65.4162 24.2912 67.1054 20.842 67.1054 16.928C67.1054 13.7968 64.9442 9.80949 60.7462 9.80949C57.8399 9.80949 54.4864 12.0845 54.4864 16.8302ZM71.2289 9.44252H74.8557C76.7684 9.44252 78.3582 10.5188 78.3582 12.5492C78.3582 14.9221 76.5945 15.5337 75.3773 15.9251C77.5633 16.292 78.383 17.3194 78.383 20.2305C78.383 23.1415 79.1282 24.1934 79.799 24.1934C80.3206 24.1934 80.7181 23.8509 80.8671 23.6308L81.1652 23.8264C81.0658 23.9733 80.4696 24.9028 79.0537 24.9028C77.6378 24.9028 76.5697 23.6308 76.5697 20.5974C76.5697 16.2431 75.3773 16.1453 74.4086 16.1453V15.8272C74.4334 15.8272 76.4455 15.3869 76.4455 12.9406C76.4455 10.6412 75.0295 10.2743 74.4582 10.2743H73.4149V24.6582H71.1792L71.2289 9.44252ZM100.566 9.44252H104.192C106.105 9.44252 107.695 10.5188 107.695 12.5492C107.695 14.9221 105.931 15.5337 104.714 15.9251C106.9 16.292 107.72 17.3194 107.72 20.2305C107.72 23.1415 108.465 24.1934 109.136 24.1934C109.657 24.1934 110.055 23.8509 110.204 23.6308L110.502 23.8264C110.402 23.9733 109.807 24.9028 108.391 24.9028C106.974 24.9028 105.906 23.6308 105.906 20.5974C105.906 16.2431 104.714 16.1453 103.745 16.1453V15.8272C103.77 15.8272 105.782 15.3869 105.782 12.9406C105.782 10.6412 104.366 10.2743 103.795 10.2743H102.752V24.6582H100.516L100.566 9.44252ZM88.4433 20.1816C88.4433 23.0926 89.1883 24.1445 89.8591 24.1445C90.3812 24.1445 90.7782 23.802 90.9277 23.5819L91.2259 23.7775C91.1262 23.9243 90.5298 24.8538 89.114 24.8538C87.6982 24.8538 86.6304 23.5819 86.6304 20.5485V19.9369C86.6304 18.1267 86.5307 16.7323 86.2325 15.8272C85.9841 15.1179 85.0903 14.5797 84.717 14.5797H84.2454V24.6093H82.0097L82.0346 9.3936H84.2454V13.8702L88.2946 9.3936H89.7349L85.4629 14.1149C87.6483 14.4818 88.4188 16.0964 88.4188 19.57V20.1816H88.4433ZM53.5673 0H54.7348V2.7398H57.4176V0H58.5851V6.36025H57.4176V3.22905H54.7348V6.36025H53.5673V0ZM60.7959 0H63.7768L64.1494 0.929578C64.1494 0.929578 63.5532 0.489249 63.0563 0.489249H61.9634V2.71534H62.9322C63.4787 2.71534 63.6278 2.47071 63.6278 2.47071V3.49814C63.6278 3.49814 63.4538 3.20459 62.9322 3.20459H61.9634V5.89546H63.3296C64.3729 5.89546 64.7952 5.35729 64.7952 5.35729L64.2736 6.38471H60.7711V0H60.7959ZM49.7418 0.489249H49.717V6.36025H48.4998V0.489249H47.8788C46.91 0.489249 46.14 1.1742 46.14 1.1742L46.4877 0.0244646H51.7539L52.1017 1.1742C52.1017 1.1742 51.3316 0.489249 50.3628 0.489249H49.7418ZM49.0214 24.6337H46.6616V16.7813L42.3642 9.44252H43.7553L47.8291 16.4143L51.9278 9.44252H53.3188L49.0214 16.7813V24.6337Z" fill="#222222" fill-opacity="0.5"></path></svg>