<svg width="68" height="68" viewBox="0 0 68 68" fill="none" xmlns="http://www.w3.org/2000/svg"><path d="M0 8C0 3.58172 3.58172 0 8 0H60C64.4183 0 68 3.58172 68 8V60C68 64.4183 64.4183 68 60 68H8C3.58172 68 0 64.4183 0 60V8Z" fill="#00769D"></path><g clip-path="url(#clip0)"><path d="M27.4705 27.7533H25.668L30.5821 41.6442L33.3331 33.7827L31.2002 27.7533H29.2984V26.4297H37.7201V27.7533H35.748L40.662 41.6442L42.4284 36.5963C44.7456 30.1291 40.5292 28.1145 40.5292 26.6711C40.5292 25.2278 41.6993 24.0578 43.1426 24.0578C43.2206 24.0578 43.2965 24.0621 43.3708 24.069C40.9253 21.7604 37.6278 20.3447 33.9993 20.3447C29.2582 20.3447 25.082 22.7614 22.6338 26.4297H27.4704V27.7533H27.4705Z" fill="white"></path><path d="M20.3447 33.9996C20.3447 39.2276 23.2832 43.7686 27.5981 46.0632L21.4357 28.6436C20.7337 30.2881 20.3447 32.0984 20.3447 33.9996Z" fill="white"></path><path d="M45.8837 27.2705C46.079 28.4206 46.0199 29.7132 45.7201 31.0109H45.7745L45.568 31.6009C45.4456 32.0269 45.2916 32.4627 45.1166 32.8909L40.418 46.0541C44.7238 43.7567 47.6547 39.2206 47.6547 33.9993C47.6547 31.5527 47.0107 29.2567 45.8837 27.2705Z" fill="white"></path><path d="M29.7881 46.992C31.1147 47.4217 32.5297 47.6548 33.9995 47.6548C35.4014 47.6548 36.7539 47.4432 38.027 47.0508L34.0327 35.7598L29.7881 46.992Z" fill="white"></path><path d="M45.5396 22.4597C42.4572 19.3773 38.3588 17.6797 33.9996 17.6797C29.6404 17.6797 25.5421 19.3773 22.4597 22.4597C19.3773 25.5421 17.6797 29.6404 17.6797 33.9997C17.6797 38.3589 19.3773 42.4572 22.4597 45.5396C25.5421 48.622 29.6405 50.3196 33.9997 50.3196C38.3589 50.3196 42.4572 48.622 45.5397 45.5396C48.6221 42.4572 50.3197 38.3588 50.3197 33.9997C50.3196 29.6404 48.622 25.5421 45.5396 22.4597ZM33.9996 49.1684C25.6356 49.1684 18.8309 42.3637 18.8309 33.9997C18.8309 25.6356 25.6356 18.8309 33.9996 18.8309C42.3637 18.8309 49.1683 25.6356 49.1683 33.9997C49.1683 42.3637 42.3637 49.1684 33.9996 49.1684Z" fill="white"></path></g><defs><clipPath id="clip0"><rect width="32.64" height="32.64" fill="white" transform="translate(17.6797 17.6797)"></rect></clipPath></defs></svg>