<svg width="68" height="68" viewBox="0 0 68 68" fill="none" xmlns="http://www.w3.org/2000/svg"><path d="M0 8C0 3.58172 3.58172 0 8 0H60C64.4183 0 68 3.58172 68 8V60C68 64.4183 64.4183 68 60 68H8C3.58172 68 0 64.4183 0 60V8Z" fill="#FF4A00"></path><path d="M49.7863 31.1535H40.2111L46.9395 24.4251C46.4219 23.6489 45.9042 23.1312 45.3866 22.3545C44.6418 21.8162 43.9488 21.2098 43.3165 20.543L36.5891 27.2719V17.9557C35.744 17.7419 34.8719 17.6547 34.0013 17.6972C33.1301 17.641 32.2555 17.7284 31.4126 17.9557V27.531L24.4256 20.544C23.6222 21.0045 22.9183 21.6201 22.355 22.355C21.8373 23.1312 21.0611 23.6489 20.5434 24.4256L27.2714 31.1535H17.9557L17.6971 33.7413C17.6411 34.6122 17.7284 35.4864 17.9557 36.329H27.5315L20.5445 43.316C21.5668 44.8555 22.8865 46.1752 24.4261 47.1976L31.1545 40.4692V50.0449C31.9995 50.2588 32.8716 50.346 33.7422 50.3035C34.6132 50.3596 35.4874 50.2722 36.33 50.0449V40.4702L43.0579 47.1991C43.8611 46.7384 44.5648 46.1227 45.128 45.3876C45.7948 44.7553 46.4012 44.0623 46.9395 43.3175L40.2111 36.5881H49.7863C50.0004 35.7431 50.0877 34.871 50.0454 34.0003C50.1002 33.0438 50.0131 32.0845 49.7868 31.1535H49.7863ZM37.8819 33.7413C37.8562 34.8805 37.6822 36.0115 37.3643 37.1057C36.2949 37.5251 35.1458 37.7019 33.9998 37.6234C32.8606 37.5977 31.7296 37.4237 30.6353 37.1057C30.216 36.0364 30.0392 34.8872 30.1177 33.7413C30.1434 32.6021 30.3174 31.471 30.6353 30.3768C31.7047 29.9575 32.8538 29.7807 33.9998 29.8591C35.139 29.8849 36.27 30.0589 37.3643 30.3768C37.6627 31.4753 37.8364 32.6039 37.8819 33.7413Z" fill="white"></path></svg>